# Blender 3.5.1
# www.blender.org
mtllib bank tangga.mtl
o tangga
v 12.092929 5.355199 36.035698
v 24.094486 5.355199 36.035694
v 24.094486 6.648821 33.110451
v 24.094486 5.355198 33.110451
v 12.092928 5.355198 33.110455
v 12.092928 6.648821 33.110455
v 24.094486 6.176100 33.110451
v 12.092928 6.176100 33.110455
v 24.094486 6.176100 32.677135
v 24.094486 5.355198 32.677135
v 12.092928 5.355198 32.677139
v 12.092928 6.176100 32.677139
v 24.094486 5.869256 32.677135
v 12.092928 5.869256 32.677139
v 24.094486 5.869256 32.324867
v 24.094486 5.355198 32.324867
v 12.092928 5.355198 32.324871
v 12.092928 5.869256 32.324871
v 24.094486 5.653998 32.324867
v 12.092928 5.653998 32.324871
v 24.094486 5.653998 32.079910
v 24.094486 5.355198 32.079910
v 12.092928 5.355198 32.079914
v 12.092928 5.653998 32.079914
v 24.094486 5.506483 32.079910
v 12.092928 5.506483 32.079914
v 24.094486 5.506483 31.834394
v 24.094486 5.355198 31.834394
v 12.092928 5.355198 31.834396
v 12.092928 5.506483 31.834396
v 24.094486 6.648821 36.035694
v 12.092929 6.648821 36.035694
v 15.606695 6.648821 36.035694
v 20.580719 6.648821 36.035694
v 19.811987 6.648821 36.035694
v 16.375429 6.648821 36.035694
v 18.093708 6.648821 36.035694
vn -1.0000 -0.0000 -0.0000
vn -0.0000 -0.0000 1.0000
vn -0.0000 -1.0000 -0.0000
vn 1.0000 -0.0000 -0.0000
vn -0.0000 -0.9777 0.2100
vn -0.0000 0.9777 0.2100
vt 0.171325 0.969510
vt 0.171325 0.969510
vt 0.171325 0.969510
vt 0.171325 0.969510
vt 0.171325 0.969510
vt 0.171325 0.969510
vt 0.171325 0.969510
vt 0.171325 0.969510
vt 0.171325 0.969510
vt 0.171325 0.969510
vt 0.171325 0.969510
vt 0.171325 0.969510
vt 0.171325 0.969510
vt 0.171325 0.969510
vt 0.171325 0.969510
vt 0.171325 0.969510
vt 0.171325 0.969510
vt 0.171325 0.969510
vt 0.171325 0.969510
vt 0.171325 0.969510
vt 0.171325 0.969510
vt 0.171325 0.969510
vt 0.171325 0.969510
vt 0.171325 0.969510
vt 0.171325 0.969510
vt 0.171325 0.969510
vt 0.171325 0.969510
vt 0.171325 0.969510
vt 0.171325 0.969510
vt 0.171325 0.969510
vt 0.171325 0.969510
vt 0.171325 0.969510
vt 0.171325 0.969510
vt 0.171325 0.969510
vt 0.171325 0.969510
vt 0.171325 0.969510
vt 0.171325 0.969510
s 0
usemtl TEXTURE
f 31/31/1 7/7/1 4/4/1
f 3/3/2 8/8/2 7/7/2
f 34/34/3 36/36/3 6/6/3
f 1/1/4 8/8/4 6/6/4
f 5/5/4 14/14/4 12/12/4
f 8/8/3 9/9/3 7/7/3
f 9/9/2 14/14/2 13/13/2
f 7/7/1 13/13/1 10/10/1
f 13/13/1 19/19/1 16/16/1
f 15/15/2 20/20/2 19/19/2
f 11/11/4 20/20/4 18/18/4
f 14/14/3 15/15/3 13/13/3
f 21/21/2 26/26/2 25/25/2
f 20/20/3 21/21/3 19/19/3
f 17/17/4 26/26/4 24/24/4
f 19/19/1 25/25/1 22/22/1
f 27/27/2 29/29/2 28/28/2
f 26/26/3 27/27/3 25/25/3
f 23/23/4 30/30/4 26/26/4
f 25/25/1 28/28/1 22/22/1
f 4/4/1 2/2/1 31/31/1
f 31/31/1 3/3/1 7/7/1
f 3/3/2 6/6/2 8/8/2
f 3/3/3 31/31/3 34/34/3
f 34/34/5 35/35/5 37/37/5
f 36/36/2 33/33/2 32/32/2
f 34/34/6 37/37/6 36/36/6
f 6/6/3 3/3/3 34/34/3
f 36/36/3 32/32/3 6/6/3
f 6/6/4 32/32/4 1/1/4
f 1/1/4 5/5/4 8/8/4
f 12/12/4 8/8/4 5/5/4
f 5/5/4 11/11/4 14/14/4
f 8/8/3 12/12/3 9/9/3
f 9/9/2 12/12/2 14/14/2
f 10/10/1 4/4/1 7/7/1
f 7/7/1 9/9/1 13/13/1
f 16/16/1 10/10/1 13/13/1
f 13/13/1 15/15/1 19/19/1
f 15/15/2 18/18/2 20/20/2
f 18/18/4 14/14/4 11/11/4
f 11/11/4 17/17/4 20/20/4
f 14/14/3 18/18/3 15/15/3
f 21/21/2 24/24/2 26/26/2
f 20/20/3 24/24/3 21/21/3
f 24/24/4 20/20/4 17/17/4
f 17/17/4 23/23/4 26/26/4
f 22/22/1 16/16/1 19/19/1
f 19/19/1 21/21/1 25/25/1
f 27/27/2 30/30/2 29/29/2
f 26/26/3 30/30/3 27/27/3
f 23/23/4 29/29/4 30/30/4
f 25/25/1 27/27/1 28/28/1
