# Blender 3.5.1
# www.blender.org
mtllib bank atap2.mtl
o atap_segitiga_alas
v 22.959255 11.814426 35.872864
v 22.580706 12.001614 35.872864
v 13.139644 11.814426 35.872868
v 13.468817 12.001614 35.872868
v 22.959253 11.814425 33.081551
v 22.580704 12.001613 33.081551
v 13.139643 11.814425 33.081551
v 13.468817 12.001613 33.081551
vn -0.0000 -0.0000 1.0000
vn -0.0000 -0.0000 -1.0000
vn -0.0000 -1.0000 -0.0000
vn -0.0000 1.0000 -0.0000
vt 0.475142 0.969760
vt 0.475142 0.969760
vt 0.475142 0.969760
vt 0.475142 0.969760
vt 0.475142 0.969760
vt 0.475142 0.969760
vt 0.475142 0.969760
vt 0.475142 0.969760
s 0
usemtl TEXTURE
f 2/2/1 3/3/1 1/1/1
f 7/7/2 6/6/2 5/5/2
f 7/7/3 1/1/3 3/3/3
f 4/4/4 6/6/4 8/8/4
f 2/2/1 4/4/1 3/3/1
f 7/7/2 8/8/2 6/6/2
f 7/7/3 5/5/3 1/1/3
f 4/4/4 2/2/4 6/6/4
