# Blender 3.5.1
# www.blender.org
mtllib bank gedung.mtl
o gedung_main
v 12.265307 5.355200 41.626999
v 12.265307 12.180202 41.626995
v 23.922110 5.355200 41.626995
v 23.922110 12.180202 41.626995
v 12.265306 5.355199 36.208073
v 12.756731 11.037717 36.208073
v 23.922108 5.355199 36.208073
v 23.430685 11.037717 36.208069
v 12.265307 6.648822 41.626995
v 23.922110 6.648822 41.626995
v 23.430685 7.312623 36.208073
v 12.756731 7.312623 36.208073
v 15.779074 12.180202 41.626995
v 20.408342 12.180202 41.626995
v 21.244522 11.037717 36.208073
v 15.779074 15.057656 41.626995
v 20.408342 15.057656 41.626995
v 20.408342 15.057655 36.208069
v 15.779073 15.057655 36.208073
v 21.244522 7.312623 36.208073
v 14.942894 7.312623 36.208073
v 14.942894 11.037717 36.208073
v 23.922108 12.180202 36.208069
v 23.922108 6.648821 36.208073
v 12.265306 12.180202 36.208073
v 12.265306 6.648821 36.208073
v 15.606695 6.648821 36.208073
v 20.408342 12.180202 36.208073
v 20.580719 6.648821 36.208073
v 15.779073 12.180202 36.208073
v 23.430685 9.796019 36.208073
v 23.430685 8.554321 36.208073
v 12.756731 9.796019 36.208073
v 12.756731 8.554321 36.208073
v 14.214172 7.312623 36.208073
v 13.485452 7.312623 36.208073
v 22.701963 11.037717 36.208073
v 21.973242 11.037717 36.208073
v 22.701963 7.312623 36.208073
v 21.973242 7.312623 36.208073
v 14.942894 9.796019 36.208073
v 14.942894 8.554321 36.208073
v 14.214172 11.037717 36.208073
v 13.485452 11.037717 36.208073
v 21.244522 9.796019 36.208073
v 21.244522 8.554321 36.208073
v 19.811987 6.648821 36.208073
v 16.375429 6.648821 36.208073
v 19.811987 11.701519 36.208073
v 16.375429 11.701519 36.208073
v 19.811987 10.096249 36.208073
v 16.375429 10.096249 36.208073
v 18.666468 11.701519 36.208073
v 17.520948 11.701519 36.208073
v 19.811987 11.166429 36.208073
v 19.811987 10.631339 36.208073
v 16.375429 11.166429 36.208073
v 16.375429 10.631339 36.208073
v 18.666468 10.096249 36.208073
v 17.520948 10.096249 36.208073
v 19.811987 9.970316 36.208073
v 16.375429 9.970316 36.208073
v 18.093708 9.970316 36.208073
v 12.092930 5.355200 41.799374
v 12.092930 12.180202 41.799374
v 24.094486 5.355200 41.799374
v 24.094486 12.180202 41.799370
v 12.092929 5.355199 36.035698
v 12.756731 11.037717 36.035694
v 24.094486 5.355199 36.035694
v 23.430685 11.037717 36.035694
v 12.092930 6.648822 41.799374
v 24.094486 6.648822 41.799374
v 23.430685 7.312623 36.035694
v 12.756731 7.312623 36.035694
v 15.606696 12.180202 41.799374
v 20.580721 12.180202 41.799374
v 21.244522 11.037717 36.035694
v 15.606696 15.057656 41.799374
v 20.580721 15.057656 41.799370
v 20.580719 15.057655 36.035694
v 15.606695 15.057655 36.035694
v 21.244522 7.312623 36.035694
v 14.942894 7.312623 36.035694
v 14.942894 11.037717 36.035694
v 24.094486 12.180202 36.035694
v 24.094486 6.648821 36.035694
v 12.092929 12.180202 36.035694
v 12.092929 6.648821 36.035694
v 15.606695 6.648821 36.035694
v 20.580719 12.180202 36.035694
v 20.580719 6.648821 36.035694
v 15.606695 12.180202 36.035694
v 23.430685 9.796019 36.035694
v 23.430685 8.554321 36.035694
v 12.756731 9.796019 36.035694
v 12.756731 8.554321 36.035694
v 14.214172 7.312623 36.035694
v 13.485452 7.312623 36.035694
v 22.701963 11.037717 36.035694
v 21.973242 11.037717 36.035694
v 22.701963 7.312623 36.035694
v 21.973242 7.312623 36.035694
v 14.942894 9.796019 36.035694
v 14.942894 8.554321 36.035694
v 14.214172 11.037717 36.035694
v 13.485452 11.037717 36.035694
v 21.244522 9.796019 36.035694
v 21.244522 8.554321 36.035694
v 19.811987 6.648821 36.035694
v 16.375429 6.648821 36.035694
v 19.811987 11.701519 36.035694
v 16.375429 11.701519 36.035694
v 19.811987 10.096249 36.035694
v 16.375429 10.096249 36.035694
v 18.666468 11.701519 36.035694
v 17.520948 11.701519 36.035694
v 19.811987 11.166429 36.035694
v 19.811987 10.631339 36.035694
v 16.375429 11.166429 36.035694
v 16.375429 10.631339 36.035694
v 18.666468 10.096249 36.035694
v 17.520948 10.096249 36.035694
v 19.811987 9.970316 36.035694
v 16.375429 9.970316 36.035694
v 18.093708 9.970316 36.035694
v 23.922110 7.025531 41.626995
v 12.265307 7.021127 41.626995
v 23.922110 6.672269 41.626995
v 12.265307 6.672269 41.626995
v 23.922108 6.672268 36.208073
v 12.265306 6.672268 36.208073
v 23.922110 6.674244 41.626995
v 12.265307 6.674244 41.626995
v 23.922108 6.674243 36.208073
v 12.265306 6.674243 36.208073
v 15.606696 14.576718 41.799374
v 20.580719 14.576717 36.035694
v 20.580721 14.576718 41.799370
v 15.606695 14.576717 36.035694
v 12.092930 5.355199 38.917534
v 15.310373 15.057656 42.095695
v 20.877045 15.057656 42.095695
v 20.877043 15.057655 35.739368
v 15.310372 15.057655 35.739372
v 20.877043 14.576717 35.739368
v 15.310372 14.576717 35.739372
v 15.310373 14.576718 42.095695
v 20.877045 14.576718 42.095695
vn -0.0000 -0.0000 -1.0000
vn -1.0000 -0.0000 -0.0000
vn -0.0000 -0.0000 1.0000
vn 1.0000 -0.0000 -0.0000
vn -0.0000 1.0000 -0.0000
vn -0.0000 -1.0000 -0.0000
vn -0.0000 -0.9679 0.2515
vn -0.0000 0.9838 0.1792
vn -0.0000 0.8834 -0.4686
vn -0.0000 -0.9838 -0.1792
vt 0.171735 0.967549
vt 0.171735 0.967549
vt 0.171735 0.967549
vt 0.171735 0.967549
vt 0.171735 0.967549
vt 0.171735 0.967549
vt 0.171735 0.967549
vt 0.171735 0.967549
vt 0.171735 0.967549
vt 0.171735 0.967549
vt 0.171735 0.967549
vt 0.171735 0.967549
vt 0.171735 0.967549
vt 0.171735 0.967549
vt 0.171735 0.967549
vt 0.171735 0.967549
vt 0.171735 0.967549
vt 0.171735 0.967549
vt 0.171735 0.967549
vt 0.171735 0.967549
vt 0.171735 0.967549
vt 0.171735 0.967549
vt 0.171735 0.967549
vt 0.171735 0.967549
vt 0.171735 0.967549
vt 0.171735 0.967549
vt 0.171735 0.967549
vt 0.171735 0.967549
vt 0.171735 0.967549
vt 0.171735 0.967549
vt 0.171735 0.967549
vt 0.171735 0.967549
vt 0.171735 0.967549
vt 0.171735 0.967549
vt 0.171735 0.967549
vt 0.171735 0.967549
vt 0.171735 0.967549
vt 0.171735 0.967549
vt 0.171735 0.967549
vt 0.171735 0.967549
vt 0.171735 0.967549
vt 0.171735 0.967549
vt 0.171735 0.967549
vt 0.171735 0.967549
vt 0.171735 0.967549
vt 0.171735 0.967549
vt 0.171735 0.967549
vt 0.171735 0.967549
vt 0.171735 0.967549
vt 0.171735 0.967549
vt 0.171735 0.967549
vt 0.171735 0.967549
vt 0.171735 0.967549
vt 0.171735 0.967549
vt 0.171735 0.967549
vt 0.171735 0.967549
vt 0.171735 0.967549
vt 0.171735 0.967549
vt 0.171735 0.967549
vt 0.171735 0.967549
vt 0.171735 0.967549
vt 0.171735 0.967549
vt 0.171735 0.967549
vt 0.171735 0.967549
vt 0.171735 0.967549
vt 0.171735 0.967549
vt 0.171735 0.967549
vt 0.171735 0.967549
vt 0.171735 0.967549
vt 0.171735 0.967549
vt 0.171735 0.967549
vt 0.171735 0.967549
vt 0.171735 0.967549
vt 0.171735 0.967549
vt 0.171735 0.967549
vt 0.171735 0.967549
vt 0.171735 0.967549
vt 0.181579 0.977392
vt 0.171735 0.967549
vt 0.474931 0.972931
vt 0.474931 0.972931
vt 0.474931 0.972931
vt 0.474931 0.972931
vt 0.171735 0.967549
vt 0.171735 0.967549
vt 0.171735 0.967549
vt 0.171735 0.967549
vt 0.171735 0.967549
vt 0.171735 0.967549
vt 0.171735 0.967549
vt 0.171735 0.967549
vt 0.181579 0.977392
vt 0.171735 0.967549
vt 0.171735 0.967549
vt 0.171735 0.967549
vt 0.171735 0.967549
vt 0.171735 0.967549
vt 0.171735 0.967549
vt 0.171735 0.967549
vt 0.171735 0.967549
vt 0.171735 0.967549
vt 0.171735 0.967549
vt 0.171735 0.967549
vt 0.171735 0.967549
vt 0.171735 0.967549
vt 0.171735 0.967549
vt 0.171735 0.967549
vt 0.171735 0.967549
vt 0.171735 0.967549
vt 0.171735 0.967549
vt 0.171735 0.967549
vt 0.171735 0.967549
vt 0.171735 0.967549
vt 0.171735 0.967549
vt 0.171735 0.967549
vt 0.171735 0.967549
vt 0.171735 0.967549
vt 0.171735 0.967549
vt 0.171735 0.967549
vt 0.171735 0.967549
vt 0.171735 0.967549
vt 0.171735 0.967549
vt 0.171735 0.967549
vt 0.171735 0.967549
vt 0.171735 0.967549
vt 0.171735 0.967549
vt 0.171735 0.967549
vt 0.171735 0.967549
vt 0.171735 0.967549
vt 0.171735 0.967549
vt 0.171735 0.967549
vt 0.171735 0.967549
vt 0.171735 0.967549
vt 0.171735 0.967549
vt 0.171735 0.967549
vt 0.171735 0.967549
vt 0.171735 0.967549
vt 0.171735 0.967549
vt 0.171735 0.967549
vt 0.078226 0.967549
vt 0.078226 0.967549
vt 0.181579 0.977392
vt 0.171735 0.967549
vt 0.181579 0.977392
vt 0.171735 0.967549
vt 0.078226 0.967549
vt 0.171735 0.967549
vt 0.078226 0.967549
vt 0.171735 0.967549
vt 0.471951 0.970010
vt 0.474931 0.972931
vt 0.471951 0.970010
vt 0.474931 0.972931
vt 0.471951 0.970010
vt 0.474931 0.972931
vt 0.474931 0.972931
vt 0.471951 0.970010
vt 0.078226 0.967549
vt 0.471951 0.970010
vt 0.078226 0.967549
vt 0.471951 0.970010
vt 0.471951 0.970010
vt 0.078226 0.967549
vt 0.471951 0.970010
vt 0.078226 0.967549
s 0
usemtl TEXTURE
f 9/9/1 10/10/1 1/1/1
f 10/10/2 127/129/2 24/24/2
f 29/29/3 26/26/3 7/7/3
f 30/30/4 16/16/4 13/13/4
f 53/53/3 28/28/3 19/19/3
f 13/13/1 17/17/1 14/14/1
f 14/14/2 18/18/2 28/28/2
f 58/58/3 57/57/3 27/27/3
f 32/32/3 24/24/3 23/23/3
f 33/33/3 25/25/3 26/26/3
f 35/35/3 12/12/3 27/27/3
f 37/37/3 23/23/3 28/28/3
f 40/40/3 29/29/3 24/24/3
f 42/42/3 27/27/3 30/30/3
f 43/43/3 30/30/3 25/25/3
f 45/45/3 28/28/3 29/29/3
f 28/28/3 51/51/3 61/61/3
f 60/60/3 52/52/3 63/63/3
f 25/25/4 9/9/4 5/5/4
f 72/72/3 73/73/3 76/76/3
f 73/73/4 87/88/4 67/67/4
f 70/70/1 89/90/1 92/94/1
f 81/82/5 145/156/5 82/83/5
f 139/146/6 146/158/6 149/165/6
f 82/83/5 142/151/5 79/80/5
f 140/148/6 146/158/6 138/141/6
f 90/91/1 121/123/1 115/117/1
f 86/87/1 74/74/1 95/97/1
f 89/90/1 69/69/1 96/98/1
f 90/91/1 75/75/1 98/100/1
f 91/93/1 71/71/1 100/102/1
f 87/88/1 83/84/1 103/105/1
f 93/95/1 84/85/1 105/107/1
f 88/89/1 85/86/1 106/108/1
f 92/94/1 78/79/1 108/110/1
f 114/116/1 119/121/1 91/93/1
f 126/128/1 123/125/1 122/124/1
f 141/149/2 72/72/2 88/89/2
f 29/29/5 90/91/5 27/27/5
f 48/48/6 90/91/6 111/113/6
f 32/32/2 74/74/2 11/11/2
f 12/12/4 97/99/4 34/34/4
f 36/36/5 75/75/5 12/12/5
f 38/38/6 78/79/6 101/103/6
f 40/40/5 83/84/5 20/20/5
f 42/42/2 84/85/2 21/21/2
f 44/44/6 69/69/6 107/109/6
f 20/20/4 109/111/4 46/46/4
f 8/8/2 94/96/2 31/31/2
f 31/31/2 95/97/2 32/32/2
f 33/33/4 69/69/4 6/6/4
f 34/34/4 96/98/4 33/33/4
f 21/21/5 98/100/5 35/35/5
f 35/35/5 99/101/5 36/36/5
f 8/8/6 100/102/6 71/71/6
f 38/38/6 100/102/6 37/37/6
f 11/11/5 102/104/5 39/39/5
f 39/39/5 103/105/5 40/40/5
f 22/22/2 104/106/2 41/41/2
f 41/41/2 105/107/2 42/42/2
f 22/22/6 106/108/6 85/86/6
f 44/44/6 106/108/6 43/43/6
f 45/45/4 78/79/4 15/15/4
f 46/46/4 108/110/4 45/45/4
f 29/29/6 110/112/6 92/94/6
f 50/50/6 117/119/6 54/54/6
f 61/61/2 110/112/2 47/47/2
f 48/48/4 125/127/4 62/62/4
f 56/56/2 114/116/2 51/51/2
f 52/52/4 121/123/4 58/58/4
f 60/60/5 115/117/5 52/52/5
f 53/53/6 112/114/6 49/49/6
f 54/54/6 116/118/6 53/53/6
f 49/49/2 118/120/2 55/55/2
f 55/55/2 119/121/2 56/56/2
f 57/57/4 113/115/4 50/50/4
f 58/58/4 120/122/4 57/57/4
f 51/51/5 122/124/5 59/59/5
f 60/60/5 122/124/5 123/125/5
f 63/63/6 125/127/6 126/128/6
f 61/61/6 126/128/6 124/126/6
f 128/130/1 13/13/1 14/14/1
f 3/3/2 131/133/2 7/7/2
f 131/133/3 136/138/3 132/134/3
f 1/1/1 129/131/1 3/3/1
f 5/5/4 130/132/4 1/1/4
f 7/7/3 132/134/3 5/5/3
f 133/135/6 136/138/6 135/137/6
f 130/132/1 133/135/1 129/131/1
f 132/134/4 134/136/4 130/132/4
f 129/131/2 135/137/2 131/133/2
f 138/142/4 77/78/4 91/92/4
f 139/145/3 76/76/3 77/77/3
f 140/147/1 91/93/1 117/119/1
f 137/139/2 93/95/2 76/76/2
f 142/150/2 147/161/2 148/162/2
f 145/157/1 146/159/1 147/161/1
f 143/152/3 148/162/3 149/164/3
f 144/154/4 149/164/4 146/159/4
f 140/148/6 148/163/6 147/160/6
f 139/146/6 148/163/6 137/140/6
f 80/81/5 144/155/5 81/82/5
f 79/80/5 143/153/5 80/81/5
f 9/9/1 128/130/1 127/129/1
f 10/10/1 3/3/1 1/1/1
f 9/9/1 127/129/1 10/10/1
f 127/129/2 4/4/2 23/23/2
f 24/24/2 7/7/2 3/3/2
f 127/129/2 23/23/2 24/24/2
f 24/24/2 3/3/2 10/10/2
f 7/7/3 24/24/3 29/29/3
f 29/29/7 27/27/7 26/26/7
f 26/26/3 5/5/3 7/7/3
f 30/30/4 19/19/4 16/16/4
f 19/19/3 30/30/3 50/50/3
f 19/19/3 50/50/3 54/54/3
f 28/28/3 18/18/3 19/19/3
f 53/53/3 49/49/3 28/28/3
f 19/19/3 54/54/3 53/53/3
f 13/13/1 16/16/1 17/17/1
f 14/14/2 17/17/2 18/18/2
f 27/27/3 48/48/3 62/62/3
f 27/27/3 62/62/3 52/52/3
f 50/50/3 30/30/3 27/27/3
f 57/57/3 50/50/3 27/27/3
f 27/27/3 52/52/3 58/58/3
f 23/23/3 8/8/3 31/31/3
f 32/32/3 11/11/3 24/24/3
f 23/23/3 31/31/3 32/32/3
f 26/26/3 12/12/3 34/34/3
f 33/33/3 6/6/3 25/25/3
f 26/26/3 34/34/3 33/33/3
f 27/27/3 21/21/3 35/35/3
f 35/35/8 36/36/8 12/12/8
f 12/12/3 26/26/3 27/27/3
f 28/28/3 15/15/3 38/38/3
f 37/37/3 8/8/3 23/23/3
f 28/28/3 38/38/3 37/37/3
f 24/24/3 11/11/3 39/39/3
f 40/40/3 20/20/3 29/29/3
f 24/24/3 39/39/3 40/40/3
f 30/30/3 22/22/3 41/41/3
f 42/42/3 21/21/3 27/27/3
f 30/30/3 41/41/3 42/42/3
f 25/25/3 6/6/3 44/44/3
f 43/43/3 22/22/3 30/30/3
f 25/25/3 44/44/3 43/43/3
f 29/29/3 20/20/3 46/46/3
f 45/45/3 15/15/3 28/28/3
f 29/29/3 46/46/3 45/45/3
f 47/47/3 29/29/3 28/28/3
f 28/28/3 49/49/3 55/55/3
f 28/28/3 55/55/3 56/56/3
f 61/61/3 47/47/3 28/28/3
f 28/28/3 56/56/3 51/51/3
f 63/63/3 61/61/3 51/51/3
f 63/63/3 51/51/3 59/59/3
f 52/52/3 62/62/3 63/63/3
f 63/63/3 59/59/3 60/60/3
f 5/5/4 26/26/4 25/25/4
f 25/25/4 2/2/4 128/130/4
f 9/9/4 1/1/4 5/5/4
f 25/25/4 128/130/4 9/9/4
f 72/72/3 64/64/3 66/66/3
f 73/73/3 67/67/3 77/77/3
f 72/72/3 66/66/3 73/73/3
f 76/76/3 65/65/3 72/72/3
f 73/73/3 77/77/3 76/76/3
f 73/73/4 66/66/4 70/70/4
f 87/88/4 86/87/4 67/67/4
f 73/73/4 70/70/4 87/88/4
f 92/94/1 87/88/1 70/70/1
f 70/70/1 68/68/1 89/90/1
f 89/90/9 90/91/9 92/94/9
f 81/82/5 144/155/5 145/156/5
f 139/146/6 138/141/6 146/158/6
f 82/83/5 145/156/5 142/151/5
f 140/148/6 147/160/6 146/158/6
f 125/127/1 111/113/1 90/91/1
f 90/91/1 93/95/1 113/115/1
f 90/91/1 113/115/1 120/122/1
f 115/117/1 125/127/1 90/91/1
f 90/91/1 120/122/1 121/123/1
f 94/96/1 71/71/1 86/87/1
f 86/87/1 87/88/1 74/74/1
f 95/97/1 94/96/1 86/87/1
f 97/99/1 75/75/1 89/90/1
f 89/90/1 88/89/1 69/69/1
f 96/98/1 97/99/1 89/90/1
f 98/100/1 84/85/1 90/91/1
f 90/91/1 89/90/1 75/75/1
f 75/75/10 99/101/10 98/100/10
f 101/103/1 78/79/1 91/93/1
f 91/93/1 86/87/1 71/71/1
f 100/102/1 101/103/1 91/93/1
f 102/104/1 74/74/1 87/88/1
f 87/88/1 92/94/1 83/84/1
f 103/105/1 102/104/1 87/88/1
f 104/106/1 85/86/1 93/95/1
f 93/95/1 90/91/1 84/85/1
f 105/107/1 104/106/1 93/95/1
f 107/109/1 69/69/1 88/89/1
f 88/89/1 93/95/1 85/86/1
f 106/108/1 107/109/1 88/89/1
f 109/111/1 83/84/1 92/94/1
f 92/94/1 91/93/1 78/79/1
f 108/110/1 109/111/1 92/94/1
f 91/93/1 92/94/1 110/112/1
f 91/93/1 110/112/1 124/126/1
f 118/120/1 112/114/1 91/93/1
f 119/121/1 118/120/1 91/93/1
f 91/93/1 124/126/1 114/116/1
f 114/116/1 124/126/1 126/128/1
f 126/128/1 125/127/1 115/117/1
f 126/128/1 115/117/1 123/125/1
f 122/124/1 114/116/1 126/128/1
f 89/90/2 68/68/2 141/149/2
f 141/149/2 64/64/2 72/72/2
f 72/72/2 65/65/2 88/89/2
f 88/89/2 89/90/2 141/149/2
f 29/29/5 92/94/5 90/91/5
f 48/48/6 27/27/6 90/91/6
f 32/32/2 95/97/2 74/74/2
f 12/12/4 75/75/4 97/99/4
f 36/36/5 99/101/5 75/75/5
f 38/38/6 15/15/6 78/79/6
f 40/40/5 103/105/5 83/84/5
f 42/42/2 105/107/2 84/85/2
f 44/44/6 6/6/6 69/69/6
f 20/20/4 83/84/4 109/111/4
f 8/8/2 71/71/2 94/96/2
f 31/31/2 94/96/2 95/97/2
f 33/33/4 96/98/4 69/69/4
f 34/34/4 97/99/4 96/98/4
f 21/21/5 84/85/5 98/100/5
f 35/35/5 98/100/5 99/101/5
f 8/8/6 37/37/6 100/102/6
f 38/38/6 101/103/6 100/102/6
f 11/11/5 74/74/5 102/104/5
f 39/39/5 102/104/5 103/105/5
f 22/22/2 85/86/2 104/106/2
f 41/41/2 104/106/2 105/107/2
f 22/22/6 43/43/6 106/108/6
f 44/44/6 107/109/6 106/108/6
f 45/45/4 108/110/4 78/79/4
f 46/46/4 109/111/4 108/110/4
f 29/29/6 47/47/6 110/112/6
f 50/50/6 113/115/6 117/119/6
f 61/61/2 124/126/2 110/112/2
f 48/48/4 111/113/4 125/127/4
f 56/56/2 119/121/2 114/116/2
f 52/52/4 115/117/4 121/123/4
f 60/60/5 123/125/5 115/117/5
f 53/53/6 116/118/6 112/114/6
f 54/54/6 117/119/6 116/118/6
f 49/49/2 112/114/2 118/120/2
f 55/55/2 118/120/2 119/121/2
f 57/57/4 120/122/4 113/115/4
f 58/58/4 121/123/4 120/122/4
f 51/51/5 114/116/5 122/124/5
f 60/60/5 59/59/5 122/124/5
f 63/63/6 62/62/6 125/127/6
f 61/61/6 63/63/6 126/128/6
f 4/4/1 127/129/1 128/130/1
f 128/130/1 2/2/1 13/13/1
f 14/14/1 4/4/1 128/130/1
f 3/3/2 129/131/2 131/133/2
f 131/133/3 135/137/3 136/138/3
f 1/1/1 130/132/1 129/131/1
f 5/5/4 132/134/4 130/132/4
f 7/7/3 131/133/3 132/134/3
f 133/135/6 134/136/6 136/138/6
f 130/132/1 134/136/1 133/135/1
f 132/134/4 136/138/4 134/136/4
f 129/131/2 133/135/2 135/137/2
f 138/142/4 139/144/4 77/78/4
f 139/145/3 137/139/3 76/76/3
f 113/115/1 93/95/1 140/147/1
f 140/147/1 138/143/1 91/93/1
f 91/93/1 112/114/1 116/118/1
f 117/119/1 113/115/1 140/147/1
f 91/93/1 116/118/1 117/119/1
f 137/139/2 140/147/2 93/95/2
f 142/150/2 145/157/2 147/161/2
f 145/157/1 144/154/1 146/159/1
f 143/152/3 142/150/3 148/162/3
f 144/154/4 143/152/4 149/164/4
f 140/148/6 137/140/6 148/163/6
f 139/146/6 149/165/6 148/163/6
f 80/81/5 143/153/5 144/155/5
f 79/80/5 142/151/5 143/153/5
