# Blender 3.5.1
# www.blender.org
mtllib bank flat.mtl
o atap_datar
v 12.092930 12.179818 41.799374
v 24.094486 12.179818 41.799370
v 15.606696 12.179818 41.799374
v 20.580721 12.179818 41.799374
v 15.606696 15.057272 41.799374
v 20.580721 15.057272 41.799370
v 20.580719 15.057271 36.035694
v 15.606695 15.057271 36.035694
v 24.094486 12.179817 36.035694
v 12.092929 12.179817 36.035694
v 20.580719 12.179817 36.035694
v 15.606695 12.179817 36.035694
v 15.147174 12.179817 36.495216
v 15.147175 12.179818 41.339851
v 12.552451 12.179818 41.339851
v 12.552450 12.179817 36.495216
v 23.634964 12.179817 36.495216
v 23.634966 12.179818 41.339851
v 21.040241 12.179818 41.339851
v 21.040241 12.179817 36.495216
v 20.121199 15.057271 36.495216
v 20.121199 15.057272 41.339851
v 16.066217 15.057272 41.339851
v 16.066217 15.057271 36.495216
v 21.040241 11.853639 41.339851
v 23.634966 11.853639 41.339851
v 23.634964 11.853638 36.495216
v 12.552450 11.853638 36.495216
v 12.552451 11.853639 41.339851
v 15.147175 11.853639 41.339851
v 21.040241 11.853638 36.495216
v 16.066217 14.731092 41.339851
v 20.121199 14.731092 41.339851
v 20.121199 14.731092 36.495216
v 16.066217 14.731092 36.495216
v 15.147174 11.853638 36.495216
vn -0.0000 -0.0000 1.0000
vn -1.0000 -0.0000 -0.0000
vn -0.0000 -1.0000 -0.0000
vn -0.0000 -0.0000 -1.0000
vn 1.0000 -0.0000 -0.0000
vt 0.467010 0.971970
vt 0.467010 0.971970
vt 0.467010 0.971970
vt 0.467010 0.971970
vt 0.467010 0.971970
vt 0.467010 0.971970
vt 0.467010 0.971970
vt 0.467010 0.971970
vt 0.467010 0.971970
vt 0.467010 0.971970
vt 0.467010 0.971970
vt 0.467010 0.971970
vt 0.467010 0.971970
vt 0.083128 0.971970
vt 0.467010 0.971970
vt 0.083128 0.971970
vt 0.467010 0.971970
vt 0.083128 0.971970
vt 0.083128 0.971970
vt 0.467010 0.971970
vt 0.467010 0.971970
vt 0.083128 0.971970
vt 0.467010 0.971970
vt 0.083128 0.971970
vt 0.467010 0.971970
vt 0.083128 0.971970
vt 0.467010 0.971970
vt 0.083128 0.971970
vt 0.467010 0.971970
vt 0.083128 0.971970
vt 0.467010 0.971970
vt 0.083128 0.971970
vt 0.083128 0.971970
vt 0.467010 0.971970
vt 0.083128 0.971970
vt 0.467010 0.971970
vt 0.083128 0.971970
vt 0.083128 0.971970
vt 0.083128 0.971970
vt 0.083128 0.971970
vt 0.083128 0.971970
vt 0.083128 0.971970
vt 0.083128 0.971970
vt 0.083128 0.971970
vt 0.083128 0.971970
vt 0.083128 0.971970
vt 0.083128 0.971970
vt 0.083128 0.971970
s 0
usemtl TEXTURE
f 23/33/1 33/45/1 22/32/1
f 24/35/2 32/44/2 23/33/2
f 16/19/2 29/41/2 15/18/2
f 12/12/3 14/15/3 13/13/3
f 1/1/3 14/15/3 3/3/3
f 1/1/3 16/20/3 15/17/3
f 12/12/3 16/20/3 10/10/3
f 9/9/3 18/23/3 17/21/3
f 4/4/3 18/23/3 2/2/3
f 4/4/3 20/27/3 19/25/3
f 9/9/3 20/27/3 11/11/3
f 6/6/3 21/29/3 7/7/3
f 5/5/3 22/31/3 6/6/3
f 8/8/3 23/34/3 5/5/3
f 7/7/3 24/36/3 8/8/3
f 30/42/3 28/40/3 36/48/3
f 26/38/3 31/43/3 27/39/3
f 33/45/3 35/47/3 34/46/3
f 15/18/1 30/42/1 14/16/1
f 13/14/4 28/40/4 16/19/4
f 19/26/1 26/38/1 18/24/1
f 21/30/4 35/47/4 24/35/4
f 17/22/4 31/43/4 20/28/4
f 14/16/5 36/48/5 13/14/5
f 18/24/5 27/39/5 17/22/5
f 22/32/5 34/46/5 21/30/5
f 20/28/2 25/37/2 19/26/2
f 23/33/1 32/44/1 33/45/1
f 24/35/2 35/47/2 32/44/2
f 16/19/2 28/40/2 29/41/2
f 12/12/3 3/3/3 14/15/3
f 1/1/3 15/17/3 14/15/3
f 1/1/3 10/10/3 16/20/3
f 12/12/3 13/13/3 16/20/3
f 9/9/3 2/2/3 18/23/3
f 4/4/3 19/25/3 18/23/3
f 4/4/3 11/11/3 20/27/3
f 9/9/3 17/21/3 20/27/3
f 6/6/3 22/31/3 21/29/3
f 5/5/3 23/34/3 22/31/3
f 8/8/3 24/36/3 23/34/3
f 7/7/3 21/29/3 24/36/3
f 30/42/3 29/41/3 28/40/3
f 26/38/3 25/37/3 31/43/3
f 33/45/3 32/44/3 35/47/3
f 15/18/1 29/41/1 30/42/1
f 13/14/4 36/48/4 28/40/4
f 19/26/1 25/37/1 26/38/1
f 21/30/4 34/46/4 35/47/4
f 17/22/4 27/39/4 31/43/4
f 14/16/5 30/42/5 36/48/5
f 18/24/5 26/38/5 27/39/5
f 22/32/5 33/45/5 34/46/5
f 20/28/2 31/43/2 25/37/2
