# Blender 3.5.1
# www.blender.org
mtllib bank atap.mtl
o atap_segitiga
v 23.311239 11.907736 35.863213
v 18.040846 14.780086 35.863213
v 12.768946 11.909246 35.863213
v 23.311239 11.907736 33.066898
v 18.040846 14.780086 33.066898
v 12.768946 11.909246 33.066898
v 23.182703 11.742501 35.863213
v 18.040806 14.514681 35.863213
v 12.897427 11.743971 35.863213
v 23.182703 11.742501 33.066898
v 18.040806 14.514681 33.066898
v 12.897427 11.743971 33.066898
vn 0.4785 0.8781 -0.0000
vn -0.4782 0.8782 -0.0000
vn -0.7895 -0.6137 -0.0000
vn -0.0000 -0.0000 -1.0000
vn 0.7893 -0.6140 -0.0000
vn 0.4743 -0.8804 -0.0000
vn -0.4746 -0.8802 -0.0000
vt 0.475142 0.969760
vt 0.475142 0.969760
vt 0.475142 0.969760
vt 0.475142 0.969760
vt 0.475142 0.969760
vt 0.475142 0.969760
vt 0.475142 0.969760
vt 0.475142 0.969760
vt 0.475142 0.969760
vt 0.475142 0.969760
vt 0.475142 0.969760
vt 0.475142 0.969760
s 0
usemtl TEXTURE
f 5/5/1 1/1/1 4/4/1
f 3/3/2 5/5/2 6/6/2
f 6/6/3 9/9/3 3/3/3
f 6/6/4 11/11/4 12/12/4
f 4/4/4 11/11/4 5/5/4
f 1/1/5 10/10/5 4/4/5
f 9/9/6 11/11/6 8/8/6
f 8/8/7 10/10/7 7/7/7
f 5/5/1 2/2/1 1/1/1
f 3/3/2 2/2/2 5/5/2
f 6/6/3 12/12/3 9/9/3
f 6/6/4 5/5/4 11/11/4
f 4/4/4 10/10/4 11/11/4
f 1/1/5 7/7/5 10/10/5
f 9/9/6 12/12/6 11/11/6
f 8/8/7 11/11/7 10/10/7
