# Blender 3.5.1
# www.blender.org
mtllib gedung03door.mtl
o vetri_
v -7.326405 9.928581 29.347820
v -7.326405 11.821853 29.347818
v -7.326405 11.821853 28.338602
v -7.326405 9.928581 28.338602
v -1.407406 9.928581 32.434155
v -1.407406 11.821854 32.434155
v -1.407406 11.821854 33.443371
v -1.407406 9.928581 33.443371
v -5.449467 10.032706 33.850487
v -5.449467 12.033364 33.850487
v -6.529682 12.033364 33.850487
v -6.529682 10.032706 33.850487
v -7.326405 9.928581 33.443371
v -7.326405 11.821854 33.443371
v -7.326405 11.821854 32.434155
v -7.326405 9.928581 32.434155
v -7.326405 9.001511 31.710230
v -7.326405 12.008878 31.710230
v -7.326405 12.008877 30.071743
v -7.326405 9.001511 30.071745
v -2.550023 8.999384 33.850487
v -2.550023 12.116968 33.850487
v -4.421536 12.116968 33.850487
v -4.421536 8.999384 33.850487
v -1.407406 9.928581 28.338602
v -1.407406 11.821853 28.338602
v -1.407406 11.821853 29.347818
v -1.407406 9.928581 29.347820
v -1.407406 9.001511 30.071745
v -1.407406 12.008877 30.071743
v -1.407406 12.008878 31.710230
v -1.407406 9.001511 31.710230
v -6.530375 10.036572 27.931488
v -6.530375 12.038614 27.931488
v -5.451293 12.038614 27.931488
v -5.451293 10.036572 27.931488
v -4.414331 8.997271 27.931488
v -4.414331 12.109512 27.931488
v -2.550750 12.109512 27.931488
v -2.550750 8.997271 27.931488
v -7.150777 5.479301 27.924061
v -7.150777 8.718410 27.924061
v -5.353843 8.718410 27.924061
v -5.353843 5.479301 27.924061
v -3.859965 6.104069 27.924061
v -3.859965 8.469658 27.924061
v -2.388033 8.469658 27.924061
v -2.388033 6.104069 27.924061
v -4.666550 6.441640 33.852917
v -4.666550 8.331593 33.852917
v -6.445215 8.331593 33.852917
v -6.445215 6.441640 33.852917
v -2.288597 6.441640 33.852917
v -2.288597 8.331593 33.852917
v -4.195607 8.331593 33.852917
v -4.195607 6.441640 33.852917
v -7.326405 7.996328 32.921791
v -7.326405 7.996328 31.289591
v -7.326405 6.201386 31.289591
v -7.326405 6.201386 32.921791
v -7.326405 6.201386 30.492384
v -7.326405 7.996327 30.492384
v -7.326405 7.996327 28.860184
v -7.326405 6.201386 28.860184
v -1.407406 6.202481 28.854799
v -1.407406 7.995232 28.854799
v -1.407406 7.995233 30.494865
v -1.407406 6.202482 30.494865
v -1.407406 6.202482 31.287111
v -1.407406 7.995233 31.287109
v -1.407406 7.995233 32.927177
v -1.407406 6.202482 32.927177
vn -1.0000 -0.0000 -0.0000
vn 1.0000 -0.0000 -0.0000
vn -0.0000 -0.0000 1.0000
vn -0.0000 -0.0000 -1.0000
vt 0.516132 0.185272
vt 0.609872 0.185272
vt 0.609872 0.231394
vt 0.516132 0.231394
vt 0.516132 0.685272
vt 0.609872 0.685272
vt 0.609872 0.731394
vt 0.516132 0.731395
vt 0.519527 0.933851
vt 0.606477 0.933851
vt 0.606477 0.982816
vt 0.519527 0.982816
vt 0.516132 0.018606
vt 0.609872 0.018606
vt 0.609872 0.064728
vt 0.516132 0.064728
vt 0.511934 0.094953
vt 0.614070 0.094953
vt 0.614070 0.155047
vt 0.511934 0.155047
vt 0.513134 0.845706
vt 0.612871 0.845706
vt 0.612871 0.904294
vt 0.513134 0.904294
vt 0.516132 0.518606
vt 0.609872 0.518605
vt 0.609872 0.564728
vt 0.516132 0.564728
vt 0.511934 0.594953
vt 0.614070 0.594953
vt 0.614070 0.655047
vt 0.511934 0.655047
vt 0.528467 0.274834
vt 0.597537 0.274834
vt 0.597537 0.308499
vt 0.528467 0.308499
vt 0.509317 0.341894
vt 0.616688 0.341894
vt 0.616688 0.408106
vt 0.509317 0.408106
vt 0.382128 0.255264
vt 0.493876 0.252526
vt 0.493876 0.270665
vt 0.382128 0.304878
vt 0.410981 0.405949
vt 0.465024 0.388325
vt 0.465024 0.440968
vt 0.410981 0.453285
vt 0.405401 0.888053
vt 0.470604 0.900065
vt 0.470604 0.967624
vt 0.405401 0.964354
vt 0.405401 0.790130
vt 0.470604 0.800370
vt 0.470604 0.881018
vt 0.405401 0.868428
vt 0.468965 0.039981
vt 0.468965 0.108296
vt 0.407040 0.108215
vt 0.407040 0.039400
vt 0.407040 0.141785
vt 0.468965 0.141704
vt 0.468965 0.210019
vt 0.407040 0.210600
vt 0.408448 0.541499
vt 0.467556 0.542222
vt 0.467556 0.612118
vt 0.408448 0.612040
vt 0.408448 0.637961
vt 0.467556 0.637882
vt 0.467556 0.707778
vt 0.408448 0.708501
s 0
usemtl VETRI_FINALE.001
f 2/2/1 4/4/1 1/1/1
f 6/6/2 8/8/2 5/5/2
f 10/10/3 12/12/3 9/9/3
f 14/14/1 16/16/1 13/13/1
f 18/18/1 20/20/1 17/17/1
f 22/22/3 24/24/3 21/21/3
f 26/26/2 28/28/2 25/25/2
f 30/30/2 32/32/2 29/29/2
f 34/34/4 36/36/4 33/33/4
f 38/38/4 40/40/4 37/37/4
f 50/50/3 52/52/3 49/49/3
f 46/46/4 48/48/4 45/45/4
f 42/42/4 44/44/4 41/41/4
f 53/53/3 55/55/3 56/56/3
f 58/58/1 60/60/1 57/57/1
f 62/62/1 64/64/1 61/61/1
f 66/66/2 68/68/2 65/65/2
f 70/70/2 72/72/2 69/69/2
f 2/2/1 3/3/1 4/4/1
f 6/6/2 7/7/2 8/8/2
f 10/10/3 11/11/3 12/12/3
f 14/14/1 15/15/1 16/16/1
f 18/18/1 19/19/1 20/20/1
f 22/22/3 23/23/3 24/24/3
f 26/26/2 27/27/2 28/28/2
f 30/30/2 31/31/2 32/32/2
f 34/34/4 35/35/4 36/36/4
f 38/38/4 39/39/4 40/40/4
f 50/50/3 51/51/3 52/52/3
f 46/46/4 47/47/4 48/48/4
f 42/42/4 43/43/4 44/44/4
f 53/53/3 54/54/3 55/55/3
f 58/58/1 59/59/1 60/60/1
f 62/62/1 63/63/1 64/64/1
f 66/66/2 67/67/2 68/68/2
f 70/70/2 71/71/2 72/72/2
