# Blender 3.5.1
# www.blender.org
mtllib gedung01atap.mtl
o Plane.014
o TETTO.002
v 3.573728 16.780239 36.195267
v 3.573733 16.780241 42.711090
v -2.942097 16.780239 36.195271
v -2.942093 16.780241 42.711098
v 3.573730 16.780239 38.367210
v 3.573731 16.780239 40.539150
v 1.401791 16.780241 42.711094
v -0.770151 16.780241 42.711094
v -2.942094 16.780239 40.539154
v -2.942096 16.780239 38.367214
v -0.770155 16.780239 36.195271
v 1.401787 16.780239 36.195267
v 3.285811 16.780239 40.539150
v 3.285810 16.780239 38.367210
v 3.285809 16.780239 36.483185
v 1.401787 16.780239 36.483189
v -0.770155 16.780239 36.483189
v -2.654177 16.780239 36.483189
v -2.654176 16.780239 38.367210
v -2.654174 16.780239 40.539154
v -2.654173 16.780241 42.423176
v -0.770151 16.780241 42.423176
v 1.401790 16.780241 42.423172
v 3.285813 16.780241 42.423172
v 3.285810 16.537540 38.367210
v 3.285811 16.537540 40.539150
v 3.285813 16.537542 42.423172
v 3.285809 16.537540 36.483185
v 1.401787 16.537540 36.483189
v -0.770155 16.537540 36.483189
v -2.654177 16.537540 36.483189
v -2.654176 16.537540 38.367210
v -2.654174 16.537540 40.539154
v -2.654173 16.537542 42.423176
v -0.770151 16.537542 42.423176
v 1.401790 16.537542 42.423172
vn -0.0000 1.0000 -0.0000
vt 0.427734 0.392578
vt 0.427734 0.392578
vt 0.427734 0.392578
vt 0.427734 0.392578
vt 0.427734 0.392578
vt 0.427734 0.392578
vt 0.427734 0.392578
vt 0.427734 0.392578
vt 0.427734 0.392578
vt 0.427734 0.392578
vt 0.427734 0.392578
vt 0.427734 0.392578
vt 0.427734 0.392578
vt 0.427734 0.392578
vt 0.427734 0.392578
vt 0.427734 0.392578
vt 0.427734 0.392578
vt 0.427734 0.392578
vt 0.427734 0.392578
vt 0.427734 0.392578
vt 0.427734 0.392578
vt 0.427734 0.392578
vt 0.427734 0.392578
vt 0.427734 0.392578
vt 0.427734 0.392578
vt 0.427734 0.392578
vt 0.427734 0.392578
vt 0.427734 0.392578
vt 0.427734 0.392578
vt 0.427734 0.392578
vt 0.427734 0.392578
vt 0.427734 0.392578
vt 0.427734 0.392578
vt 0.427734 0.392578
vt 0.427734 0.392578
vt 0.427734 0.392578
s 0
usemtl texture_FINALE.002
f 6/6/1 14/14/1 13/13/1
f 11/11/1 17/17/1 16/16/1
f 26/26/1 33/33/1 35/35/1
f 9/9/1 20/20/1 19/19/1
f 7/7/1 23/23/1 22/22/1
f 5/5/1 1/1/1 15/15/1
f 5/5/1 15/15/1 14/14/1
f 24/24/1 2/2/1 6/6/1
f 6/6/1 5/5/1 14/14/1
f 13/13/1 24/24/1 6/6/1
f 15/15/1 1/1/1 12/12/1
f 11/11/1 3/3/1 18/18/1
f 15/15/1 12/12/1 11/11/1
f 16/16/1 15/15/1 11/11/1
f 11/11/1 18/18/1 17/17/1
f 25/25/1 28/28/1 29/29/1
f 30/30/1 31/31/1 32/32/1
f 25/25/1 29/29/1 30/30/1
f 36/36/1 27/27/1 26/26/1
f 26/26/1 25/25/1 30/30/1
f 30/30/1 32/32/1 33/33/1
f 33/33/1 34/34/1 35/35/1
f 35/35/1 36/36/1 26/26/1
f 26/26/1 30/30/1 33/33/1
f 18/18/1 3/3/1 10/10/1
f 9/9/1 4/4/1 21/21/1
f 18/18/1 10/10/1 9/9/1
f 19/19/1 18/18/1 9/9/1
f 9/9/1 21/21/1 20/20/1
f 21/21/1 4/4/1 8/8/1
f 7/7/1 2/2/1 24/24/1
f 21/21/1 8/8/1 7/7/1
f 22/22/1 21/21/1 7/7/1
f 7/7/1 24/24/1 23/23/1
