# Blender 3.5.1
# www.blender.org
mtllib gedung03atap.mtl
o Plane.014
o tetto.004
v -7.334692 12.519129 33.859646
v -7.334692 12.519128 27.940647
v -1.415694 12.519129 33.859646
v -1.415694 12.519128 27.940647
v -1.631907 12.519128 28.156860
v -7.118479 12.519128 28.156860
v -7.118479 12.519129 33.643433
v -1.631907 12.519129 33.643433
v -7.118479 12.273062 28.156860
v -1.631907 12.273062 28.156860
v -1.631907 12.273063 33.643433
v -7.118479 12.273063 33.643433
v -7.334692 12.519129 32.036198
v -7.334692 12.519128 29.764091
v -2.318106 12.519129 33.859646
v -4.663550 12.519129 33.859646
v -1.415694 12.519128 29.764091
v -1.415694 12.519129 32.036198
v -4.663550 12.519128 27.940647
v -2.318106 12.519128 27.940647
vn -0.0000 1.0000 -0.0000
vt 0.369141 0.498047
vt 0.369141 0.498047
vt 0.369141 0.498047
vt 0.369141 0.498047
vt 0.369141 0.498047
vt 0.369141 0.498047
vt 0.369141 0.498047
vt 0.369141 0.498047
vt 0.230469 0.742188
vt 0.230469 0.742188
vt 0.230469 0.742188
vt 0.230469 0.742188
vt 0.369141 0.498047
vt 0.369141 0.498047
vt 0.369141 0.498047
vt 0.369141 0.498047
vt 0.369141 0.498047
vt 0.369141 0.498047
vt 0.369141 0.498047
vt 0.369141 0.498047
s 0
usemtl texture_FINALE.002
f 19/19/1 6/6/1 5/5/1
f 13/13/1 7/7/1 6/6/1
f 15/15/1 8/8/1 7/7/1
f 17/17/1 5/5/1 8/8/1
f 9/9/1 11/11/1 10/10/1
f 5/5/1 4/4/1 20/20/1
f 19/19/1 2/2/1 6/6/1
f 5/5/1 20/20/1 19/19/1
f 6/6/1 2/2/1 14/14/1
f 13/13/1 1/1/1 7/7/1
f 6/6/1 14/14/1 13/13/1
f 7/7/1 1/1/1 16/16/1
f 15/15/1 3/3/1 8/8/1
f 7/7/1 16/16/1 15/15/1
f 8/8/1 3/3/1 18/18/1
f 17/17/1 4/4/1 5/5/1
f 8/8/1 18/18/1 17/17/1
f 9/9/1 12/12/1 11/11/1
