# Blender 3.5.1
# www.blender.org
mtllib rubber.mtl
o Police_Sedan
o Police_Sedan.008
v -0.986215 0.721057 -1.355848
v -1.304894 0.722601 -1.355848
v -0.986215 0.659740 -1.167136
v -1.304894 0.660990 -1.166228
v -0.986215 0.499212 -1.050505
v -1.304894 0.499689 -1.049036
v -0.986215 0.300788 -1.050505
v -1.304894 0.300311 -1.049036
v -0.986215 0.140260 -1.167136
v -1.304894 0.139010 -1.166228
v -0.986215 0.078943 -1.355848
v -1.304894 0.077399 -1.355848
v -0.986215 0.140260 -1.544560
v -1.304894 0.139010 -1.545468
v -0.986215 0.300788 -1.661191
v -1.304894 0.300311 -1.662660
v -0.986215 0.499212 -1.661191
v -1.304894 0.499689 -1.662660
v -0.986215 0.659740 -1.544561
v -1.304894 0.660990 -1.545468
v -1.304894 0.732171 -1.114512
v -1.304894 0.810586 -1.355848
v -1.304894 0.526878 -0.965357
v -1.304894 0.273122 -0.965358
v -1.304894 0.067829 -1.114511
v -1.304894 -0.010586 -1.355848
v -1.304894 0.067829 -1.597185
v -1.304894 0.273122 -1.746338
v -1.304894 0.526878 -1.746338
v -1.304894 0.732171 -1.597185
v -0.986215 0.810586 -1.355848
v -0.986215 0.732171 -1.114512
v -0.986215 0.526878 -0.965357
v -0.986215 0.273122 -0.965358
v -0.986215 0.067829 -1.114512
v -0.986215 -0.010586 -1.355848
v -0.986215 0.067829 -1.597185
v -0.986215 0.273122 -1.746338
v -0.986215 0.526878 -1.746338
v -0.986215 0.732171 -1.597185
v 0.642112 0.721057 1.861801
v 0.960790 0.722601 1.861801
v 0.642112 0.659740 1.673088
v 0.960790 0.660990 1.672181
v 0.642112 0.499212 1.556458
v 0.960790 0.499689 1.554989
v 0.642112 0.300788 1.556458
v 0.960790 0.300311 1.554989
v 0.642112 0.140260 1.673089
v 0.960790 0.139010 1.672181
v 0.642112 0.078943 1.861801
v 0.960790 0.077399 1.861801
v 0.642112 0.140260 2.050513
v 0.960790 0.139010 2.051421
v 0.642112 0.300788 2.167144
v 0.960790 0.300311 2.168612
v 0.642112 0.499212 2.167144
v 0.960790 0.499689 2.168612
v 0.642112 0.659740 2.050513
v 0.960790 0.660990 2.051421
v 0.960790 0.732171 1.620464
v 0.960790 0.810586 1.861801
v 0.960790 0.526878 1.471310
v 0.960790 0.273122 1.471310
v 0.960790 0.067829 1.620464
v 0.960790 -0.010586 1.861801
v 0.960790 0.067829 2.103137
v 0.960790 0.273122 2.252291
v 0.960790 0.526878 2.252291
v 0.960790 0.732171 2.103137
v 0.642112 0.810586 1.861801
v 0.642112 0.732171 1.620464
v 0.642112 0.526878 1.471310
v 0.642112 0.273122 1.471310
v 0.642112 0.067829 1.620465
v 0.642112 -0.010586 1.861801
v 0.642112 0.067829 2.103137
v 0.642112 0.273122 2.252291
v 0.642112 0.526878 2.252291
v 0.642112 0.732171 2.103137
v 0.642112 0.721057 -1.355848
v 0.960790 0.722601 -1.355848
v 0.642112 0.659740 -1.167136
v 0.960790 0.660990 -1.166228
v 0.642112 0.499212 -1.050505
v 0.960790 0.499689 -1.049036
v 0.642112 0.300788 -1.050505
v 0.960790 0.300311 -1.049036
v 0.642112 0.140260 -1.167136
v 0.960790 0.139010 -1.166228
v 0.642112 0.078943 -1.355848
v 0.960790 0.077399 -1.355848
v 0.642112 0.140260 -1.544560
v 0.960790 0.139010 -1.545468
v 0.642112 0.300788 -1.661191
v 0.960790 0.300311 -1.662660
v 0.642112 0.499212 -1.661191
v 0.960790 0.499689 -1.662660
v 0.642112 0.659740 -1.544561
v 0.960790 0.660990 -1.545468
v 0.960790 0.732171 -1.114512
v 0.960790 0.810586 -1.355848
v 0.960790 0.526878 -0.965357
v 0.960790 0.273122 -0.965358
v 0.960790 0.067829 -1.114511
v 0.960790 -0.010586 -1.355848
v 0.960790 0.067829 -1.597185
v 0.960790 0.273122 -1.746338
v 0.960790 0.526878 -1.746338
v 0.960790 0.732171 -1.597185
v 0.642112 0.810586 -1.355848
v 0.642112 0.732171 -1.114512
v 0.642112 0.526878 -0.965357
v 0.642112 0.273122 -0.965358
v 0.642112 0.067829 -1.114512
v 0.642112 -0.010586 -1.355848
v 0.642112 0.067829 -1.597185
v 0.642112 0.273122 -1.746338
v 0.642112 0.526878 -1.746338
v 0.642112 0.732171 -1.597185
v -0.986215 0.721057 1.861801
v -1.304894 0.722601 1.861801
v -0.986215 0.659740 1.673088
v -1.304894 0.660990 1.672181
v -0.986215 0.499212 1.556458
v -1.304894 0.499689 1.554989
v -0.986215 0.300788 1.556458
v -1.304894 0.300311 1.554989
v -0.986215 0.140260 1.673089
v -1.304894 0.139010 1.672181
v -0.986215 0.078943 1.861801
v -1.304894 0.077399 1.861801
v -0.986215 0.140260 2.050513
v -1.304894 0.139010 2.051421
v -0.986215 0.300788 2.167144
v -1.304894 0.300311 2.168612
v -0.986215 0.499212 2.167144
v -1.304894 0.499689 2.168612
v -0.986215 0.659740 2.050513
v -1.304894 0.660990 2.051421
v -1.304894 0.732171 1.620464
v -1.304894 0.810586 1.861801
v -1.304894 0.526878 1.471310
v -1.304894 0.273122 1.471310
v -1.304894 0.067829 1.620464
v -1.304894 -0.010586 1.861801
v -1.304894 0.067829 2.103137
v -1.304894 0.273122 2.252291
v -1.304894 0.526878 2.252291
v -1.304894 0.732171 2.103137
v -0.986215 0.810586 1.861801
v -0.986215 0.732171 1.620464
v -0.986215 0.526878 1.471310
v -0.986215 0.273122 1.471310
v -0.986215 0.067829 1.620465
v -0.986215 -0.010586 1.861801
v -0.986215 0.067829 2.103137
v -0.986215 0.273122 2.252291
v -0.986215 0.526878 2.252291
v -0.986215 0.732171 2.103137
vn -0.0000 0.9511 0.3090
vn -0.0000 0.5878 0.8090
vn -0.0000 -0.0000 1.0000
vn -0.0000 -0.5878 0.8090
vn -0.0000 -0.9511 0.3090
vn -0.0000 -0.9511 -0.3090
vn -0.0000 -0.5878 -0.8090
vn -0.0000 -0.0000 -1.0000
vn -0.0000 0.5878 -0.8090
vn -0.0000 0.9511 -0.3090
vn -1.0000 -0.0000 -0.0000
vn 1.0000 -0.0000 -0.0000
vt 0.937500 0.567500
vt 0.937500 0.567500
vt 0.937500 0.567500
vt 0.937500 0.567500
vt 0.937500 0.567500
vt 0.937500 0.567500
vt 0.937500 0.567500
vt 0.937500 0.567500
vt 0.937500 0.567500
vt 0.937500 0.567500
vt 0.937500 0.567500
vt 0.937500 0.567500
vt 0.937500 0.567500
vt 0.937500 0.567500
vt 0.937500 0.567500
vt 0.937500 0.567500
vt 0.937500 0.567500
vt 0.937500 0.567500
vt 0.937500 0.567500
vt 0.937500 0.567500
vt 0.937500 0.567500
vt 0.937500 0.567500
vt 0.937500 0.567500
vt 0.937500 0.567500
vt 0.937500 0.567500
vt 0.937500 0.567500
vt 0.937500 0.567500
vt 0.937500 0.567500
vt 0.937500 0.567500
vt 0.937500 0.567500
vt 0.937500 0.567500
vt 0.937500 0.567500
vt 0.937500 0.567500
vt 0.937500 0.567500
vt 0.937500 0.567500
vt 0.937500 0.567500
vt 0.937500 0.567500
vt 0.937500 0.567500
vt 0.937500 0.567500
vt 0.937500 0.567500
vt 0.937500 0.567500
vt 0.937500 0.567500
vt 0.937500 0.567500
vt 0.937500 0.567500
vt 0.937500 0.567500
vt 0.937500 0.567500
vt 0.937500 0.567500
vt 0.937500 0.567500
vt 0.937500 0.567500
vt 0.937500 0.567500
vt 0.937500 0.567500
vt 0.937500 0.567500
vt 0.937500 0.567500
vt 0.937500 0.567500
vt 0.937500 0.567500
vt 0.937500 0.567500
vt 0.937500 0.567500
vt 0.937500 0.567500
vt 0.937500 0.567500
vt 0.937500 0.567500
vt 0.937500 0.567500
vt 0.937500 0.567500
vt 0.937500 0.567500
vt 0.937500 0.567500
vt 0.937500 0.567500
vt 0.937500 0.567500
vt 0.937500 0.567500
vt 0.937500 0.567500
vt 0.937500 0.567500
vt 0.937500 0.567500
vt 0.937500 0.567500
vt 0.937500 0.567500
vt 0.937500 0.567500
vt 0.937500 0.567500
vt 0.937500 0.567500
vt 0.937500 0.567500
vt 0.937500 0.567500
vt 0.937500 0.567500
vt 0.937500 0.567500
vt 0.937500 0.567500
vt 0.937500 0.567500
vt 0.937500 0.567500
vt 0.937500 0.567500
vt 0.937500 0.567500
vt 0.937500 0.567500
vt 0.937500 0.567500
vt 0.937500 0.567500
vt 0.937500 0.567500
vt 0.937500 0.567500
vt 0.937500 0.567500
vt 0.937500 0.567500
vt 0.937500 0.567500
vt 0.937500 0.567500
vt 0.937500 0.567500
vt 0.937500 0.567500
vt 0.937500 0.567500
vt 0.937500 0.567500
vt 0.937500 0.567500
vt 0.937500 0.567500
vt 0.937500 0.567500
vt 0.937500 0.567500
vt 0.937500 0.567500
vt 0.937500 0.567500
vt 0.937500 0.567500
vt 0.937500 0.567500
vt 0.937500 0.567500
vt 0.937500 0.567500
vt 0.937500 0.567500
vt 0.937500 0.567500
vt 0.937500 0.567500
vt 0.937500 0.567500
vt 0.937500 0.567500
vt 0.937500 0.567500
vt 0.937500 0.567500
vt 0.937500 0.567500
vt 0.937500 0.567500
vt 0.937500 0.567500
vt 0.937500 0.567500
vt 0.937500 0.567500
vt 0.937500 0.567500
vt 0.937500 0.567500
vt 0.937500 0.567500
vt 0.937500 0.567500
vt 0.937500 0.567500
vt 0.937500 0.567500
vt 0.937500 0.567500
vt 0.937500 0.567500
vt 0.937500 0.567500
vt 0.937500 0.567500
vt 0.937500 0.567500
vt 0.937500 0.567500
vt 0.937500 0.567500
vt 0.937500 0.567500
vt 0.937500 0.567500
vt 0.937500 0.567500
vt 0.937500 0.567500
vt 0.937500 0.567500
vt 0.937500 0.567500
vt 0.937500 0.567500
vt 0.937500 0.567500
vt 0.937500 0.567500
vt 0.937500 0.567500
vt 0.937500 0.567500
vt 0.937500 0.567500
vt 0.937500 0.567500
vt 0.937500 0.567500
vt 0.937500 0.567500
vt 0.937500 0.567500
vt 0.937500 0.567500
vt 0.937500 0.567500
vt 0.937500 0.567500
vt 0.937500 0.567500
vt 0.937500 0.567500
vt 0.937500 0.567500
vt 0.937500 0.567500
vt 0.937500 0.567500
vt 0.937500 0.567500
vt 0.937500 0.567500
vt 0.937500 0.567500
vt 0.937500 0.567500
s 1
usemtl tires
f 22/22/1 32/32/1 31/31/1
f 21/21/2 33/33/2 32/32/2
f 23/23/3 34/34/3 33/33/3
f 34/34/4 25/25/4 35/35/4
f 35/35/5 26/26/5 36/36/5
f 26/26/6 37/37/6 36/36/6
f 27/27/7 38/38/7 37/37/7
f 28/28/8 39/39/8 38/38/8
f 29/29/9 40/40/9 39/39/9
f 30/30/10 31/31/10 40/40/10
f 4/4/11 22/22/11 2/2/11
f 6/6/11 21/21/11 4/4/11
f 6/6/11 24/24/11 23/23/11
f 8/8/11 25/25/11 24/24/11
f 12/12/11 25/25/11 10/10/11
f 14/14/11 26/26/11 12/12/11
f 14/14/11 28/28/11 27/27/11
f 16/16/11 29/29/11 28/28/11
f 20/20/11 29/29/11 18/18/11
f 2/2/11 30/30/11 20/20/11
f 1/1/12 32/32/12 3/3/12
f 5/5/12 32/32/12 33/33/12
f 7/7/12 33/33/12 34/34/12
f 7/7/12 35/35/12 9/9/12
f 11/11/12 35/35/12 36/36/12
f 13/13/12 36/36/12 37/37/12
f 15/15/12 37/37/12 38/38/12
f 15/15/12 39/39/12 17/17/12
f 17/17/12 40/40/12 19/19/12
f 19/19/12 31/31/12 1/1/12
f 62/62/10 72/72/10 71/71/10
f 61/61/9 73/73/9 72/72/9
f 63/63/8 74/74/8 73/73/8
f 64/64/7 75/75/7 74/74/7
f 75/75/6 66/66/6 76/76/6
f 66/66/5 77/77/5 76/76/5
f 67/67/4 78/78/4 77/77/4
f 78/78/3 69/69/3 79/79/3
f 69/69/2 80/80/2 79/79/2
f 70/70/1 71/71/1 80/80/1
f 44/44/12 62/62/12 42/42/12
f 46/46/12 61/61/12 44/44/12
f 46/46/12 64/64/12 63/63/12
f 48/48/12 65/65/12 64/64/12
f 52/52/12 65/65/12 50/50/12
f 54/54/12 66/66/12 52/52/12
f 54/54/12 68/68/12 67/67/12
f 56/56/12 69/69/12 68/68/12
f 60/60/12 69/69/12 58/58/12
f 60/60/12 62/62/12 70/70/12
f 41/41/11 72/72/11 43/43/11
f 45/45/11 72/72/11 73/73/11
f 45/45/11 74/74/11 47/47/11
f 47/47/11 75/75/11 49/49/11
f 51/51/11 75/75/11 76/76/11
f 51/51/11 77/77/11 53/53/11
f 53/53/11 78/78/11 55/55/11
f 55/55/11 79/79/11 57/57/11
f 59/59/11 79/79/11 80/80/11
f 59/59/11 71/71/11 41/41/11
f 112/112/1 102/102/1 111/111/1
f 113/113/2 101/101/2 112/112/2
f 114/114/3 103/103/3 113/113/3
f 115/115/4 104/104/4 114/114/4
f 115/115/5 106/106/5 105/105/5
f 117/117/6 106/106/6 116/116/6
f 118/118/7 107/107/7 117/117/7
f 119/119/8 108/108/8 118/118/8
f 120/120/9 109/109/9 119/119/9
f 111/111/10 110/110/10 120/120/10
f 102/102/12 84/84/12 82/82/12
f 101/101/12 86/86/12 84/84/12
f 86/86/12 104/104/12 88/88/12
f 88/88/12 105/105/12 90/90/12
f 90/90/12 106/106/12 92/92/12
f 106/106/12 94/94/12 92/92/12
f 94/94/12 108/108/12 96/96/12
f 96/96/12 109/109/12 98/98/12
f 109/109/12 100/100/12 98/98/12
f 110/110/12 82/82/12 100/100/12
f 112/112/11 81/81/11 83/83/11
f 85/85/11 112/112/11 83/83/11
f 87/87/11 113/113/11 85/85/11
f 115/115/11 87/87/11 89/89/11
f 91/91/11 115/115/11 89/89/11
f 93/93/11 116/116/11 91/91/11
f 95/95/11 117/117/11 93/93/11
f 119/119/11 95/95/11 97/97/11
f 120/120/11 97/97/11 99/99/11
f 111/111/11 99/99/11 81/81/11
f 152/152/10 142/142/10 151/151/10
f 153/153/9 141/141/9 152/152/9
f 154/154/8 143/143/8 153/153/8
f 154/154/7 145/145/7 144/144/7
f 155/155/6 146/146/6 145/145/6
f 157/157/5 146/146/5 156/156/5
f 158/158/4 147/147/4 157/157/4
f 158/158/3 149/149/3 148/148/3
f 160/160/2 149/149/2 159/159/2
f 151/151/1 150/150/1 160/160/1
f 142/142/11 124/124/11 122/122/11
f 141/141/11 126/126/11 124/124/11
f 126/126/11 144/144/11 128/128/11
f 144/144/11 130/130/11 128/128/11
f 130/130/11 146/146/11 132/132/11
f 146/146/11 134/134/11 132/132/11
f 134/134/11 148/148/11 136/136/11
f 136/136/11 149/149/11 138/138/11
f 149/149/11 140/140/11 138/138/11
f 140/140/11 142/142/11 122/122/11
f 152/152/12 121/121/12 123/123/12
f 125/125/12 152/152/12 123/123/12
f 154/154/12 125/125/12 127/127/12
f 129/129/12 154/154/12 127/127/12
f 131/131/12 155/155/12 129/129/12
f 157/157/12 131/131/12 133/133/12
f 158/158/12 133/133/12 135/135/12
f 159/159/12 135/135/12 137/137/12
f 139/139/12 159/159/12 137/137/12
f 151/151/12 139/139/12 121/121/12
f 22/22/1 21/21/1 32/32/1
f 21/21/2 23/23/2 33/33/2
f 23/23/3 24/24/3 34/34/3
f 34/34/4 24/24/4 25/25/4
f 35/35/5 25/25/5 26/26/5
f 26/26/6 27/27/6 37/37/6
f 27/27/7 28/28/7 38/38/7
f 28/28/8 29/29/8 39/39/8
f 29/29/9 30/30/9 40/40/9
f 30/30/10 22/22/10 31/31/10
f 4/4/11 21/21/11 22/22/11
f 6/6/11 23/23/11 21/21/11
f 6/6/11 8/8/11 24/24/11
f 8/8/11 10/10/11 25/25/11
f 12/12/11 26/26/11 25/25/11
f 14/14/11 27/27/11 26/26/11
f 14/14/11 16/16/11 28/28/11
f 16/16/11 18/18/11 29/29/11
f 20/20/11 30/30/11 29/29/11
f 2/2/11 22/22/11 30/30/11
f 1/1/12 31/31/12 32/32/12
f 5/5/12 3/3/12 32/32/12
f 7/7/12 5/5/12 33/33/12
f 7/7/12 34/34/12 35/35/12
f 11/11/12 9/9/12 35/35/12
f 13/13/12 11/11/12 36/36/12
f 15/15/12 13/13/12 37/37/12
f 15/15/12 38/38/12 39/39/12
f 17/17/12 39/39/12 40/40/12
f 19/19/12 40/40/12 31/31/12
f 62/62/10 61/61/10 72/72/10
f 61/61/9 63/63/9 73/73/9
f 63/63/8 64/64/8 74/74/8
f 64/64/7 65/65/7 75/75/7
f 75/75/6 65/65/6 66/66/6
f 66/66/5 67/67/5 77/77/5
f 67/67/4 68/68/4 78/78/4
f 78/78/3 68/68/3 69/69/3
f 69/69/2 70/70/2 80/80/2
f 70/70/1 62/62/1 71/71/1
f 44/44/12 61/61/12 62/62/12
f 46/46/12 63/63/12 61/61/12
f 46/46/12 48/48/12 64/64/12
f 48/48/12 50/50/12 65/65/12
f 52/52/12 66/66/12 65/65/12
f 54/54/12 67/67/12 66/66/12
f 54/54/12 56/56/12 68/68/12
f 56/56/12 58/58/12 69/69/12
f 60/60/12 70/70/12 69/69/12
f 60/60/12 42/42/12 62/62/12
f 41/41/11 71/71/11 72/72/11
f 45/45/11 43/43/11 72/72/11
f 45/45/11 73/73/11 74/74/11
f 47/47/11 74/74/11 75/75/11
f 51/51/11 49/49/11 75/75/11
f 51/51/11 76/76/11 77/77/11
f 53/53/11 77/77/11 78/78/11
f 55/55/11 78/78/11 79/79/11
f 59/59/11 57/57/11 79/79/11
f 59/59/11 80/80/11 71/71/11
f 112/112/1 101/101/1 102/102/1
f 113/113/2 103/103/2 101/101/2
f 114/114/3 104/104/3 103/103/3
f 115/115/4 105/105/4 104/104/4
f 115/115/5 116/116/5 106/106/5
f 117/117/6 107/107/6 106/106/6
f 118/118/7 108/108/7 107/107/7
f 119/119/8 109/109/8 108/108/8
f 120/120/9 110/110/9 109/109/9
f 111/111/10 102/102/10 110/110/10
f 102/102/12 101/101/12 84/84/12
f 101/101/12 103/103/12 86/86/12
f 86/86/12 103/103/12 104/104/12
f 88/88/12 104/104/12 105/105/12
f 90/90/12 105/105/12 106/106/12
f 106/106/12 107/107/12 94/94/12
f 94/94/12 107/107/12 108/108/12
f 96/96/12 108/108/12 109/109/12
f 109/109/12 110/110/12 100/100/12
f 110/110/12 102/102/12 82/82/12
f 112/112/11 111/111/11 81/81/11
f 85/85/11 113/113/11 112/112/11
f 87/87/11 114/114/11 113/113/11
f 115/115/11 114/114/11 87/87/11
f 91/91/11 116/116/11 115/115/11
f 93/93/11 117/117/11 116/116/11
f 95/95/11 118/118/11 117/117/11
f 119/119/11 118/118/11 95/95/11
f 120/120/11 119/119/11 97/97/11
f 111/111/11 120/120/11 99/99/11
f 152/152/10 141/141/10 142/142/10
f 153/153/9 143/143/9 141/141/9
f 154/154/8 144/144/8 143/143/8
f 154/154/7 155/155/7 145/145/7
f 155/155/6 156/156/6 146/146/6
f 157/157/5 147/147/5 146/146/5
f 158/158/4 148/148/4 147/147/4
f 158/158/3 159/159/3 149/149/3
f 160/160/2 150/150/2 149/149/2
f 151/151/1 142/142/1 150/150/1
f 142/142/11 141/141/11 124/124/11
f 141/141/11 143/143/11 126/126/11
f 126/126/11 143/143/11 144/144/11
f 144/144/11 145/145/11 130/130/11
f 130/130/11 145/145/11 146/146/11
f 146/146/11 147/147/11 134/134/11
f 134/134/11 147/147/11 148/148/11
f 136/136/11 148/148/11 149/149/11
f 149/149/11 150/150/11 140/140/11
f 140/140/11 150/150/11 142/142/11
f 152/152/12 151/151/12 121/121/12
f 125/125/12 153/153/12 152/152/12
f 154/154/12 153/153/12 125/125/12
f 129/129/12 155/155/12 154/154/12
f 131/131/12 156/156/12 155/155/12
f 157/157/12 156/156/12 131/131/12
f 158/158/12 157/157/12 133/133/12
f 159/159/12 158/158/12 135/135/12
f 139/139/12 160/160/12 159/159/12
f 151/151/12 160/160/12 139/139/12
