# Blender 3.5.1
# www.blender.org
mtllib frame.mtl
o porta_bar
v 23.812729 11.777554 -35.603745
v 23.812729 11.777554 -33.573029
v 23.812729 13.641068 -35.603745
v 23.812729 13.641068 -33.573029
v 23.812729 11.777554 -34.588387
v 23.812729 13.641068 -34.588387
v 23.812729 11.932096 -34.512543
v 23.812729 11.932096 -33.687511
v 23.812729 13.486525 -33.687511
v 23.812729 13.486525 -34.512543
v 23.812729 11.932096 -35.489262
v 23.812729 11.932096 -34.664230
v 23.812729 13.486525 -34.664230
v 23.812729 13.486525 -35.489262
v 23.866444 11.777554 -35.603745
v 23.866442 11.777554 -33.573029
v 23.866444 13.641068 -35.603745
v 23.866442 13.641068 -33.573029
v 23.866442 11.777554 -34.588387
v 23.866442 13.641068 -34.588387
v 23.866442 11.932096 -34.512543
v 23.866442 11.932096 -33.687511
v 23.866442 13.486525 -33.687511
v 23.866442 13.486525 -34.512543
v 23.866444 11.932096 -35.489262
v 23.866442 11.932096 -34.664230
v 23.866442 13.486525 -34.664230
v 23.866444 13.486525 -35.489262
v 23.839586 11.932096 -35.489262
v 23.839586 11.932096 -34.664230
v 23.839586 13.486525 -34.664230
v 23.839586 13.486525 -35.489262
v 23.839586 11.932096 -34.512543
v 23.839584 11.932096 -33.687511
v 23.839584 13.486525 -33.687511
v 23.839586 13.486525 -34.512543
v 23.939068 12.703401 -34.600117
v 23.939068 12.389607 -34.600117
v 23.909618 12.703401 -34.600117
v 23.909618 12.389607 -34.600117
v 23.939068 12.703401 -34.721420
v 23.939068 12.389607 -34.721420
v 23.909618 12.703401 -34.721420
v 23.909618 12.389607 -34.721420
v 23.909618 12.703401 -34.629574
v 23.909618 12.389607 -34.629574
v 23.939068 12.703401 -34.629574
v 23.939068 12.389607 -34.629574
v 23.870230 12.389607 -34.600117
v 23.870230 12.703401 -34.600117
v 23.870230 12.703401 -34.629574
v 23.870230 12.389607 -34.629574
v 23.939270 12.389607 -34.581017
v 23.939270 12.703401 -34.581017
v 23.909821 12.389607 -34.581017
v 23.909821 12.703401 -34.581017
v 23.939270 12.389607 -34.459713
v 23.939270 12.703401 -34.459713
v 23.909821 12.389607 -34.459713
v 23.909821 12.703401 -34.459713
v 23.909821 12.389607 -34.551563
v 23.909821 12.703401 -34.551563
v 23.939270 12.389607 -34.551563
v 23.939270 12.703401 -34.551563
v 23.870432 12.703401 -34.581017
v 23.870434 12.389607 -34.581017
v 23.870434 12.389607 -34.551563
v 23.870432 12.703401 -34.551563
vn -1.0000 -0.0000 -0.0000
vn 1.0000 -0.0000 -0.0000
vn -0.0000 -0.0000 1.0000
vn -0.0000 1.0000 -0.0000
vn -0.0000 -0.0000 -1.0000
vn -0.0000 -1.0000 -0.0000
vt 0.974931 0.967549
vt 0.974931 0.967549
vt 0.974931 0.967549
vt 0.974931 0.967549
vt 0.974931 0.967549
vt 0.974931 0.967549
vt 0.974931 0.967549
vt 0.974931 0.967549
vt 0.974931 0.967549
vt 0.974931 0.967549
vt 0.974931 0.967549
vt 0.974931 0.967549
vt 0.974931 0.967549
vt 0.974931 0.967549
vt 0.974931 0.967549
vt 0.974931 0.967549
vt 0.974931 0.967549
vt 0.974931 0.967549
vt 0.974931 0.967549
vt 0.974931 0.967549
vt 0.974931 0.967549
vt 0.974931 0.967549
vt 0.974931 0.967549
vt 0.974931 0.967549
vt 0.974931 0.967549
vt 0.974931 0.967549
vt 0.974931 0.967549
vt 0.974931 0.967549
vt 0.974931 0.967549
vt 0.974931 0.967549
vt 0.974931 0.967549
vt 0.974931 0.967549
vt 0.974931 0.967549
vt 0.974931 0.967549
vt 0.974931 0.967549
vt 0.974931 0.967549
vt 0.974931 0.967549
vt 0.974931 0.967549
vt 0.974931 0.967549
vt 0.974931 0.967549
vt 0.974931 0.967549
vt 0.974931 0.967549
vt 0.974931 0.967549
vt 0.974931 0.967549
vt 0.974931 0.967549
vt 0.974931 0.967549
vt 0.974931 0.967549
vt 0.974931 0.967549
vt 0.974931 0.967549
vt 0.974931 0.967549
vt 0.974931 0.967549
vt 0.974931 0.967549
vt 0.974931 0.967549
vt 0.974931 0.967549
vt 0.974931 0.967549
vt 0.974931 0.967549
vt 0.974931 0.967549
vt 0.974931 0.967549
vt 0.974931 0.967549
vt 0.974931 0.967549
vt 0.974931 0.967549
vt 0.974931 0.967549
vt 0.974931 0.967549
vt 0.974931 0.967549
vt 0.974931 0.967549
vt 0.974931 0.967549
vt 0.974931 0.967549
vt 0.974931 0.967549
s 0
usemtl texture.003
f 5/5/1 8/8/1 7/7/1
f 4/4/1 8/8/1 2/2/1
f 6/6/1 9/9/1 4/4/1
f 6/6/1 7/7/1 10/10/1
f 5/5/1 11/11/1 1/1/1
f 5/5/1 13/13/1 12/12/1
f 6/6/1 14/14/1 13/13/1
f 1/1/1 14/14/1 3/3/1
f 19/19/2 22/22/2 16/16/2
f 22/22/2 18/18/2 16/16/2
f 23/23/2 20/20/2 18/18/2
f 24/24/2 19/19/2 20/20/2
f 25/25/2 19/19/2 15/15/2
f 26/26/2 20/20/2 19/19/2
f 20/20/2 28/28/2 17/17/2
f 28/28/2 15/15/2 17/17/2
f 29/29/3 28/28/3 32/32/3
f 34/34/4 21/21/4 33/33/4
f 35/35/5 22/22/5 34/34/5
f 32/32/6 27/27/6 31/31/6
f 29/29/4 26/26/4 25/25/4
f 36/36/6 23/23/6 35/35/6
f 33/33/3 24/24/3 36/36/3
f 5/5/6 16/16/6 2/2/6
f 2/2/3 18/18/3 4/4/3
f 4/4/4 20/20/4 6/6/4
f 31/31/5 26/26/5 30/30/5
f 1/1/6 19/19/6 5/5/6
f 3/3/4 20/20/4 17/17/4
f 3/3/5 15/15/5 1/1/5
f 13/13/5 30/30/5 12/12/5
f 11/11/4 30/30/4 29/29/4
f 14/14/6 31/31/6 13/13/6
f 11/11/3 32/32/3 14/14/3
f 7/7/3 36/36/3 10/10/3
f 10/10/6 35/35/6 9/9/6
f 9/9/5 34/34/5 8/8/5
f 7/7/4 34/34/4 33/33/4
f 38/38/5 39/39/5 37/37/5
f 46/46/2 43/43/2 45/45/2
f 44/44/3 41/41/3 43/43/3
f 48/48/1 37/37/1 47/47/1
f 43/43/6 47/47/6 45/45/6
f 40/40/4 48/48/4 46/46/4
f 46/46/4 42/42/4 44/44/4
f 39/39/6 47/47/6 37/37/6
f 42/42/1 47/47/1 41/41/1
f 40/40/5 50/50/5 39/39/5
f 54/54/3 55/55/3 53/53/3
f 45/45/3 52/52/3 46/46/3
f 39/39/6 51/51/6 45/45/6
f 46/46/4 49/49/4 40/40/4
f 62/62/2 59/59/2 61/61/2
f 60/60/5 57/57/5 59/59/5
f 64/64/1 53/53/1 63/63/1
f 59/59/4 63/63/4 61/61/4
f 56/56/6 64/64/6 62/62/6
f 62/62/6 58/58/6 60/60/6
f 61/61/4 53/53/4 55/55/4
f 58/58/1 63/63/1 57/57/1
f 56/56/3 66/66/3 55/55/3
f 61/61/5 68/68/5 62/62/5
f 55/55/4 67/67/4 61/61/4
f 62/62/6 65/65/6 56/56/6
f 5/5/1 2/2/1 8/8/1
f 4/4/1 9/9/1 8/8/1
f 6/6/1 10/10/1 9/9/1
f 6/6/1 5/5/1 7/7/1
f 5/5/1 12/12/1 11/11/1
f 5/5/1 6/6/1 13/13/1
f 6/6/1 3/3/1 14/14/1
f 1/1/1 11/11/1 14/14/1
f 19/19/2 21/21/2 22/22/2
f 22/22/2 23/23/2 18/18/2
f 23/23/2 24/24/2 20/20/2
f 24/24/2 21/21/2 19/19/2
f 25/25/2 26/26/2 19/19/2
f 26/26/2 27/27/2 20/20/2
f 20/20/2 27/27/2 28/28/2
f 28/28/2 25/25/2 15/15/2
f 29/29/3 25/25/3 28/28/3
f 34/34/4 22/22/4 21/21/4
f 35/35/5 23/23/5 22/22/5
f 32/32/6 28/28/6 27/27/6
f 29/29/4 30/30/4 26/26/4
f 36/36/6 24/24/6 23/23/6
f 33/33/3 21/21/3 24/24/3
f 5/5/6 19/19/6 16/16/6
f 2/2/3 16/16/3 18/18/3
f 4/4/4 18/18/4 20/20/4
f 31/31/5 27/27/5 26/26/5
f 1/1/6 15/15/6 19/19/6
f 3/3/4 6/6/4 20/20/4
f 3/3/5 17/17/5 15/15/5
f 13/13/5 31/31/5 30/30/5
f 11/11/4 12/12/4 30/30/4
f 14/14/6 32/32/6 31/31/6
f 11/11/3 29/29/3 32/32/3
f 7/7/3 33/33/3 36/36/3
f 10/10/6 36/36/6 35/35/6
f 9/9/5 35/35/5 34/34/5
f 7/7/4 8/8/4 34/34/4
f 38/38/5 40/40/5 39/39/5
f 46/46/2 44/44/2 43/43/2
f 44/44/3 42/42/3 41/41/3
f 48/48/1 38/38/1 37/37/1
f 43/43/6 41/41/6 47/47/6
f 40/40/4 38/38/4 48/48/4
f 46/46/4 48/48/4 42/42/4
f 39/39/6 45/45/6 47/47/6
f 42/42/1 48/48/1 47/47/1
f 40/40/5 49/49/5 50/50/5
f 54/54/3 56/56/3 55/55/3
f 45/45/3 51/51/3 52/52/3
f 39/39/6 50/50/6 51/51/6
f 46/46/4 52/52/4 49/49/4
f 62/62/2 60/60/2 59/59/2
f 60/60/5 58/58/5 57/57/5
f 64/64/1 54/54/1 53/53/1
f 59/59/4 57/57/4 63/63/4
f 56/56/6 54/54/6 64/64/6
f 62/62/6 64/64/6 58/58/6
f 61/61/4 63/63/4 53/53/4
f 58/58/1 64/64/1 63/63/1
f 56/56/3 65/65/3 66/66/3
f 61/61/5 67/67/5 68/68/5
f 55/55/4 66/66/4 67/67/4
f 62/62/6 68/68/6 65/65/6
o porta_principale
v 15.607676 5.317650 -32.017506
v 11.548420 5.317650 -32.017509
v 15.607676 8.141238 -32.017506
v 11.548420 8.141238 -32.017509
v 13.513530 5.317650 -32.017506
v 13.513530 8.141238 -32.017509
v 13.357107 5.553763 -32.017506
v 11.784533 5.553763 -32.017509
v 11.784534 7.905125 -32.017509
v 13.357107 7.905125 -32.017509
v 15.371562 5.553763 -32.017506
v 13.669952 5.553763 -32.017506
v 13.669952 7.905125 -32.017506
v 15.371563 7.905125 -32.017506
v 15.607676 5.317650 -31.878181
v 11.548420 5.317650 -31.878185
v 15.607676 8.141238 -31.878181
v 11.548420 8.141238 -31.878185
v 13.513530 5.317650 -31.878183
v 13.513530 8.141238 -31.878185
v 13.357107 5.553763 -31.878183
v 11.784533 5.553763 -31.878185
v 11.784533 7.905125 -31.878185
v 13.357107 7.905125 -31.878185
v 15.371562 5.553763 -31.878181
v 13.669952 5.553763 -31.878183
v 13.669952 7.905125 -31.878183
v 15.371563 7.905125 -31.878181
v 15.371562 5.553763 -31.947844
v 13.669952 5.553763 -31.947845
v 13.669952 7.905125 -31.947845
v 15.371563 7.905125 -31.947844
v 13.357107 5.553763 -31.947845
v 11.784533 5.553763 -31.947845
v 11.784533 7.905125 -31.947847
v 13.357107 7.905125 -31.947845
v 13.537725 6.866068 -31.689804
v 13.537725 6.386650 -31.689804
v 13.537725 6.866068 -31.766193
v 13.537725 6.386650 -31.766193
v 13.787910 6.866068 -31.689804
v 13.787910 6.386650 -31.689804
v 13.787910 6.866068 -31.766193
v 13.787910 6.386650 -31.766193
v 13.598474 6.866068 -31.766193
v 13.598474 6.386650 -31.766193
v 13.598474 6.866068 -31.689804
v 13.598474 6.386650 -31.689804
v 13.537725 6.386650 -31.868359
v 13.537725 6.866068 -31.868359
v 13.598474 6.866068 -31.868359
v 13.598474 6.386650 -31.868359
v 13.498329 6.386649 -31.689280
v 13.498328 6.866067 -31.689280
v 13.498329 6.386649 -31.765669
v 13.498329 6.866067 -31.765669
v 13.248145 6.386649 -31.689280
v 13.248145 6.866067 -31.689280
v 13.248145 6.386649 -31.765669
v 13.248145 6.866067 -31.765669
v 13.437581 6.386649 -31.765669
v 13.437581 6.866067 -31.765669
v 13.437581 6.386649 -31.689280
v 13.437580 6.866067 -31.689280
v 13.498329 6.866067 -31.867832
v 13.498329 6.386649 -31.867832
v 13.437581 6.386649 -31.867832
v 13.437581 6.866067 -31.867832
vn -0.0000 -0.0000 -1.0000
vn -0.0000 -0.0000 1.0000
vn -1.0000 -0.0000 -0.0000
vn -0.0000 1.0000 -0.0000
vn 1.0000 -0.0000 -0.0000
vn -0.0000 -1.0000 -0.0000
vt 0.974931 0.967549
vt 0.974931 0.967549
vt 0.974931 0.967549
vt 0.974931 0.967549
vt 0.974931 0.967549
vt 0.974931 0.967549
vt 0.974931 0.967549
vt 0.974931 0.967549
vt 0.974931 0.967549
vt 0.974931 0.967549
vt 0.974931 0.967549
vt 0.974931 0.967549
vt 0.974931 0.967549
vt 0.974931 0.967549
vt 0.974931 0.967549
vt 0.974931 0.967549
vt 0.974931 0.967549
vt 0.974931 0.967549
vt 0.974931 0.967549
vt 0.974931 0.967549
vt 0.974931 0.967549
vt 0.974931 0.967549
vt 0.974931 0.967549
vt 0.974931 0.967549
vt 0.974931 0.967549
vt 0.974931 0.967549
vt 0.974931 0.967549
vt 0.974931 0.967549
vt 0.974931 0.967549
vt 0.974931 0.967549
vt 0.974931 0.967549
vt 0.974931 0.967549
vt 0.974931 0.967549
vt 0.974931 0.967549
vt 0.974931 0.967549
vt 0.974931 0.967549
vt 0.974931 0.967549
vt 0.974931 0.967549
vt 0.974931 0.967549
vt 0.974931 0.967549
vt 0.974931 0.967549
vt 0.974931 0.967549
vt 0.974931 0.967549
vt 0.974931 0.967549
vt 0.974931 0.967549
vt 0.974931 0.967549
vt 0.974931 0.967549
vt 0.974931 0.967549
vt 0.974931 0.967549
vt 0.974931 0.967549
vt 0.974931 0.967549
vt 0.974931 0.967549
vt 0.974931 0.967549
vt 0.974931 0.967549
vt 0.974931 0.967549
vt 0.974931 0.967549
vt 0.974931 0.967549
vt 0.974931 0.967549
vt 0.974931 0.967549
vt 0.974931 0.967549
vt 0.974931 0.967549
vt 0.974931 0.967549
vt 0.974931 0.967549
vt 0.974931 0.967549
vt 0.974931 0.967549
vt 0.974931 0.967549
vt 0.974931 0.967549
vt 0.974931 0.967549
s 0
usemtl texture.003
f 73/73/7 76/76/7 75/75/7
f 72/72/7 76/76/7 70/70/7
f 74/74/7 77/77/7 72/72/7
f 73/73/7 78/78/7 74/74/7
f 73/73/7 79/79/7 69/69/7
f 74/74/7 80/80/7 73/73/7
f 74/74/7 82/82/7 81/81/7
f 69/69/7 82/82/7 71/71/7
f 87/87/8 90/90/8 84/84/8
f 90/90/8 86/86/8 84/84/8
f 91/91/8 88/88/8 86/86/8
f 88/88/8 89/89/8 87/87/8
f 93/93/8 87/87/8 83/83/8
f 87/87/8 95/95/8 88/88/8
f 88/88/8 96/96/8 85/85/8
f 96/96/8 83/83/8 85/85/8
f 97/97/9 96/96/9 100/100/9
f 102/102/10 89/89/10 101/101/10
f 103/103/11 90/90/11 102/102/11
f 100/100/12 95/95/12 99/99/12
f 98/98/10 93/93/10 97/97/10
f 104/104/12 91/91/12 103/103/12
f 101/101/9 92/92/9 104/104/9
f 73/73/12 84/84/12 70/70/12
f 70/70/9 86/86/9 72/72/9
f 72/72/10 88/88/10 74/74/10
f 99/99/11 94/94/11 98/98/11
f 69/69/12 87/87/12 73/73/12
f 74/74/10 85/85/10 71/71/10
f 71/71/11 83/83/11 69/69/11
f 81/81/11 98/98/11 80/80/11
f 80/80/10 97/97/10 79/79/10
f 82/82/12 99/99/12 81/81/12
f 79/79/9 100/100/9 82/82/9
f 75/75/9 104/104/9 78/78/9
f 78/78/12 103/103/12 77/77/12
f 77/77/11 102/102/11 76/76/11
f 76/76/10 101/101/10 75/75/10
f 106/106/11 107/107/11 105/105/11
f 114/114/8 111/111/8 113/113/8
f 112/112/9 109/109/9 111/111/9
f 116/116/7 105/105/7 115/115/7
f 111/111/12 115/115/12 113/113/12
f 108/108/10 116/116/10 114/114/10
f 114/114/10 110/110/10 112/112/10
f 113/113/12 105/105/12 107/107/12
f 110/110/7 115/115/7 109/109/7
f 108/108/11 118/118/11 107/107/11
f 122/122/9 123/123/9 121/121/9
f 113/113/9 120/120/9 114/114/9
f 107/107/12 119/119/12 113/113/12
f 114/114/10 117/117/10 108/108/10
f 130/130/8 127/127/8 129/129/8
f 128/128/11 125/125/11 127/127/11
f 132/132/7 121/121/7 131/131/7
f 127/127/10 131/131/10 129/129/10
f 124/124/12 132/132/12 130/130/12
f 130/130/12 126/126/12 128/128/12
f 129/129/10 121/121/10 123/123/10
f 126/126/7 131/131/7 125/125/7
f 124/124/9 134/134/9 123/123/9
f 129/129/11 136/136/11 130/130/11
f 123/123/10 135/135/10 129/129/10
f 130/130/12 133/133/12 124/124/12
f 73/73/7 70/70/7 76/76/7
f 72/72/7 77/77/7 76/76/7
f 74/74/7 78/78/7 77/77/7
f 73/73/7 75/75/7 78/78/7
f 73/73/7 80/80/7 79/79/7
f 74/74/7 81/81/7 80/80/7
f 74/74/7 71/71/7 82/82/7
f 69/69/7 79/79/7 82/82/7
f 87/87/8 89/89/8 90/90/8
f 90/90/8 91/91/8 86/86/8
f 91/91/8 92/92/8 88/88/8
f 88/88/8 92/92/8 89/89/8
f 93/93/8 94/94/8 87/87/8
f 87/87/8 94/94/8 95/95/8
f 88/88/8 95/95/8 96/96/8
f 96/96/8 93/93/8 83/83/8
f 97/97/9 93/93/9 96/96/9
f 102/102/10 90/90/10 89/89/10
f 103/103/11 91/91/11 90/90/11
f 100/100/12 96/96/12 95/95/12
f 98/98/10 94/94/10 93/93/10
f 104/104/12 92/92/12 91/91/12
f 101/101/9 89/89/9 92/92/9
f 73/73/12 87/87/12 84/84/12
f 70/70/9 84/84/9 86/86/9
f 72/72/10 86/86/10 88/88/10
f 99/99/11 95/95/11 94/94/11
f 69/69/12 83/83/12 87/87/12
f 74/74/10 88/88/10 85/85/10
f 71/71/11 85/85/11 83/83/11
f 81/81/11 99/99/11 98/98/11
f 80/80/10 98/98/10 97/97/10
f 82/82/12 100/100/12 99/99/12
f 79/79/9 97/97/9 100/100/9
f 75/75/9 101/101/9 104/104/9
f 78/78/12 104/104/12 103/103/12
f 77/77/11 103/103/11 102/102/11
f 76/76/10 102/102/10 101/101/10
f 106/106/11 108/108/11 107/107/11
f 114/114/8 112/112/8 111/111/8
f 112/112/9 110/110/9 109/109/9
f 116/116/7 106/106/7 105/105/7
f 111/111/12 109/109/12 115/115/12
f 108/108/10 106/106/10 116/116/10
f 114/114/10 116/116/10 110/110/10
f 113/113/12 115/115/12 105/105/12
f 110/110/7 116/116/7 115/115/7
f 108/108/11 117/117/11 118/118/11
f 122/122/9 124/124/9 123/123/9
f 113/113/9 119/119/9 120/120/9
f 107/107/12 118/118/12 119/119/12
f 114/114/10 120/120/10 117/117/10
f 130/130/8 128/128/8 127/127/8
f 128/128/11 126/126/11 125/125/11
f 132/132/7 122/122/7 121/121/7
f 127/127/10 125/125/10 131/131/10
f 124/124/12 122/122/12 132/132/12
f 130/130/12 132/132/12 126/126/12
f 129/129/10 131/131/10 121/121/10
f 126/126/7 132/132/7 131/131/7
f 124/124/9 133/133/9 134/134/9
f 129/129/11 135/135/11 136/136/11
f 123/123/10 134/134/10 135/135/10
f 130/130/12 136/136/12 133/133/12
