# Blender 3.5.1
# www.blender.org
mtllib main tengah.mtl
o Cube.023
v 17.611652 5.290140 -38.855000
v 17.611652 12.322094 -38.855000
v 9.525474 5.290140 -31.888737
v 9.525474 12.322094 -31.888737
v 17.619081 5.290140 -31.888733
v 17.619081 12.322094 -31.888733
v 15.607128 5.298460 -31.888733
v 15.607127 8.134264 -31.888733
v 11.541873 8.134264 -31.888735
v 11.541874 5.298460 -31.888735
v 17.619081 8.134264 -31.888733
v 9.525474 8.134264 -31.888737
v 17.241213 7.791492 -31.888733
v 17.241213 5.634208 -31.888733
v 9.868095 7.791492 -31.888737
v 9.868096 5.634179 -31.888737
v 15.949750 5.639644 -31.888733
v 11.199251 5.639672 -31.888735
v 15.949750 7.791492 -31.888733
v 11.199251 7.791492 -31.888735
v 17.611652 5.290140 -38.729668
v 17.611652 12.322094 -38.729668
v 9.525474 5.290140 -32.014069
v 9.525474 12.322094 -32.014069
v 17.619081 5.290140 -32.014065
v 17.619081 12.322094 -32.014065
v 15.607127 8.134264 -32.014065
v 11.541873 8.134264 -32.014065
v 11.541874 5.298460 -32.014065
v 17.619081 8.134264 -32.014065
v 9.525474 8.134264 -32.014069
v 17.241213 7.791492 -32.014065
v 17.241213 5.634208 -32.014065
v 9.868095 7.791492 -32.014069
v 9.868096 5.634179 -32.014069
v 15.949750 5.639644 -32.014065
v 11.199251 5.639672 -32.014065
v 15.949750 7.791492 -32.014065
v 11.199251 7.791492 -32.014065
v 17.241213 7.791492 -31.951397
v 17.241213 5.634208 -31.951397
v 15.949750 5.639644 -31.951399
v 15.949750 7.791492 -31.951399
v 9.868095 7.791492 -31.951401
v 9.868096 5.634179 -31.951401
v 11.199251 5.639672 -31.951401
v 11.199251 7.791492 -31.951401
v 15.607128 5.297866 -32.014065
v 9.525476 5.290140 -38.855003
v 9.525476 12.322094 -38.855003
v 17.611652 5.290140 -38.855000
v 17.611652 12.322094 -38.855000
v 9.525476 5.290140 -38.729671
v 9.525476 12.322094 -38.729671
v 17.611652 5.290140 -38.729668
v 17.611652 12.322094 -38.729668
vn -0.0000 -0.0000 1.0000
vn -0.0000 -0.0000 -1.0000
vn -1.0000 -0.0000 -0.0000
vn 1.0000 -0.0000 -0.0000
vn -0.0000 -1.0000 -0.0000
vn 0.0042 1.0000 -0.0000
vn -0.0041 1.0000 -0.0000
vn 0.0041 -1.0000 -0.0000
vn -0.0038 -1.0000 -0.0000
vn 0.0013 -1.0000 0.0015
vn -0.0041 -1.0000 0.0047
vt 0.026982 0.268745
vt 0.026982 0.268745
vt 0.026982 0.268745
vt 0.026982 0.268745
vt 0.026982 0.268745
vt 0.026982 0.268745
vt 0.026982 0.268745
vt 0.026982 0.268745
vt 0.026982 0.268745
vt 0.026982 0.268745
vt 0.026982 0.268745
vt 0.026982 0.268745
vt 0.026982 0.268745
vt 0.026982 0.268745
vt 0.026982 0.268745
vt 0.026982 0.268745
vt 0.026982 0.268745
vt 0.026982 0.268745
vt 0.026982 0.268745
vt 0.026982 0.268745
vt 0.026982 0.268745
vt 0.026982 0.268745
vt 0.026982 0.268745
vt 0.026982 0.268745
vt 0.026982 0.268745
vt 0.026982 0.268745
vt 0.026982 0.268745
vt 0.026982 0.268745
vt 0.026982 0.268745
vt 0.026982 0.268745
vt 0.026982 0.268745
vt 0.026982 0.268745
vt 0.026982 0.268745
vt 0.026982 0.268745
vt 0.026982 0.268745
vt 0.026982 0.268745
vt 0.026982 0.268745
vt 0.026982 0.268745
vt 0.026982 0.268745
vt 0.026982 0.268745
vt 0.026982 0.268745
vt 0.026982 0.268745
vt 0.026982 0.268745
vt 0.026982 0.268745
vt 0.026982 0.268745
vt 0.026982 0.268745
vt 0.026982 0.268745
vt 0.026982 0.268745
vt 0.026982 0.268745
vt 0.026982 0.268745
vt 0.026982 0.268745
vt 0.026982 0.268745
vt 0.026982 0.268745
vt 0.026982 0.268745
vt 0.026982 0.268745
vt 0.026982 0.268745
s 0
usemtl texture.003
f 11/11/1 6/6/1 8/8/1
f 6/6/1 9/9/1 8/8/1
f 4/4/1 12/12/1 9/9/1
f 14/14/1 11/11/1 13/13/1
f 16/16/1 12/12/1 3/3/1
f 14/14/1 7/7/1 5/5/1
f 16/16/1 10/10/1 18/18/1
f 13/13/1 8/8/1 19/19/1
f 19/19/1 7/7/1 17/17/1
f 20/20/1 10/10/1 9/9/1
f 20/20/1 12/12/1 15/15/1
f 30/30/2 27/27/2 26/26/2
f 26/26/2 28/28/2 24/24/2
f 24/24/2 28/28/2 31/31/2
f 30/30/2 33/33/2 32/32/2
f 35/35/2 31/31/2 34/34/2
f 7/7/3 27/27/3 48/48/3
f 29/29/2 35/35/2 37/37/2
f 27/27/2 32/32/2 38/38/2
f 48/48/2 33/33/2 25/25/2
f 39/39/2 29/29/2 37/37/2
f 31/31/2 39/39/2 34/34/2
f 48/48/2 38/38/2 36/36/2
f 2/2/4 21/21/4 1/1/4
f 40/40/3 33/33/3 41/41/3
f 45/45/4 34/34/4 44/44/4
f 9/9/5 27/27/5 8/8/5
f 11/11/4 26/26/4 6/6/4
f 4/4/3 31/31/3 12/12/3
f 42/42/4 38/38/4 43/43/4
f 47/47/3 37/37/3 46/46/3
f 5/5/4 30/30/4 11/11/4
f 12/12/3 23/23/3 3/3/3
f 41/41/6 36/36/6 42/42/6
f 45/45/7 37/37/7 35/35/7
f 43/43/5 32/32/5 40/40/5
f 10/10/4 28/28/4 9/9/4
f 44/44/5 39/39/5 47/47/5
f 10/10/8 23/23/8 29/29/8
f 5/5/9 48/48/9 25/25/9
f 19/19/5 40/40/5 13/13/5
f 14/14/6 42/42/6 17/17/6
f 17/17/4 43/43/4 19/19/4
f 13/13/3 41/41/3 14/14/3
f 15/15/5 47/47/5 20/20/5
f 18/18/7 45/45/7 16/16/7
f 20/20/3 46/46/3 18/18/3
f 16/16/4 44/44/4 15/15/4
f 50/50/2 51/51/2 49/49/2
f 55/55/1 54/54/1 53/53/1
f 51/51/5 53/53/5 49/49/5
f 49/49/3 54/54/3 50/50/3
f 55/55/10 48/48/10 23/23/10
f 52/52/4 55/55/4 51/51/4
f 6/6/1 4/4/1 9/9/1
f 14/14/1 5/5/1 11/11/1
f 16/16/1 15/15/1 12/12/1
f 14/14/1 17/17/1 7/7/1
f 16/16/1 3/3/1 10/10/1
f 13/13/1 11/11/1 8/8/1
f 19/19/1 8/8/1 7/7/1
f 20/20/1 18/18/1 10/10/1
f 20/20/1 9/9/1 12/12/1
f 26/26/2 27/27/2 28/28/2
f 30/30/2 25/25/2 33/33/2
f 35/35/2 23/23/2 31/31/2
f 7/7/3 8/8/3 27/27/3
f 29/29/2 23/23/2 35/35/2
f 27/27/2 30/30/2 32/32/2
f 48/48/2 36/36/2 33/33/2
f 39/39/2 28/28/2 29/29/2
f 31/31/2 28/28/2 39/39/2
f 48/48/2 27/27/2 38/38/2
f 2/2/4 22/22/4 21/21/4
f 40/40/3 32/32/3 33/33/3
f 45/45/4 35/35/4 34/34/4
f 9/9/5 28/28/5 27/27/5
f 11/11/4 30/30/4 26/26/4
f 4/4/3 24/24/3 31/31/3
f 42/42/4 36/36/4 38/38/4
f 47/47/3 39/39/3 37/37/3
f 5/5/4 25/25/4 30/30/4
f 12/12/3 31/31/3 23/23/3
f 41/41/6 33/33/6 36/36/6
f 45/45/7 46/46/7 37/37/7
f 43/43/5 38/38/5 32/32/5
f 10/10/4 29/29/4 28/28/4
f 44/44/5 34/34/5 39/39/5
f 10/10/8 3/3/8 23/23/8
f 5/5/11 7/7/11 48/48/11
f 19/19/5 43/43/5 40/40/5
f 14/14/6 41/41/6 42/42/6
f 17/17/4 42/42/4 43/43/4
f 13/13/3 40/40/3 41/41/3
f 15/15/5 44/44/5 47/47/5
f 18/18/7 46/46/7 45/45/7
f 20/20/3 47/47/3 46/46/3
f 16/16/4 45/45/4 44/44/4
f 50/50/2 52/52/2 51/51/2
f 55/55/1 56/56/1 54/54/1
f 51/51/5 55/55/5 53/53/5
f 49/49/3 53/53/3 54/54/3
f 23/23/5 53/53/5 55/55/5
f 55/55/9 25/25/9 48/48/9
f 48/48/1 29/29/1 23/23/1
f 52/52/4 56/56/4 55/55/4
