# Blender 3.5.1
# www.blender.org
mtllib park.mtl
o Cube.022
v 23.767887 5.326507 -38.796768
v 23.767885 13.343191 -38.796768
v 29.989225 5.326507 -38.796768
v 31.004416 13.343191 -38.796764
v 23.767881 5.326507 -30.780085
v 23.767881 13.343191 -30.780085
v 29.989222 5.326507 -30.780083
v 31.004412 13.343191 -30.780081
v 23.767881 11.040263 -31.210131
v 23.767881 11.637777 -31.210131
v 29.685133 11.637777 -31.084171
v 29.685133 11.040264 -31.084171
v 23.767881 9.036092 -31.210131
v 23.767881 9.633606 -31.210131
v 29.685133 9.633607 -31.084171
v 29.685133 9.036093 -31.084171
v 23.767881 7.031921 -31.210131
v 23.767881 7.629435 -31.210131
v 29.685133 7.629435 -31.084171
v 29.685133 7.031921 -31.084171
v 23.767885 7.629435 -38.796768
v 23.767885 7.031921 -38.796768
v 23.767885 9.633606 -38.796768
v 23.767885 9.036092 -38.796768
v 23.767885 11.637777 -38.796768
v 23.767885 11.040263 -38.796768
v 30.608444 11.040264 -38.796764
v 30.831034 11.637777 -38.796764
v 30.402864 9.036093 -38.796764
v 30.435062 9.633607 -38.796764
v 30.162607 7.031921 -38.796768
v 30.229483 7.629435 -38.796768
v 30.608440 11.040264 -30.780081
v 30.831030 11.637777 -30.780081
v 30.402861 9.036093 -30.780081
v 30.435059 9.633607 -30.780081
v 30.162601 7.031921 -30.780083
v 30.229479 7.629435 -30.780083
v 23.767881 11.040263 -30.780085
v 23.767881 11.637777 -30.780085
v 23.767881 9.036092 -30.780085
v 23.767881 9.633606 -30.780085
v 23.767881 7.031921 -30.780085
v 23.767881 7.629435 -30.780085
v 29.685137 7.031921 -38.492676
v 29.685137 7.629435 -38.492676
v 29.685137 9.036093 -38.492676
v 29.685137 9.633607 -38.492676
v 29.685137 11.040264 -38.492676
v 29.685137 11.637777 -38.492676
v 23.767885 7.031921 -38.366722
v 23.767885 7.629435 -38.366722
v 23.767885 9.036092 -38.366722
v 23.767885 9.633606 -38.366722
v 23.767885 11.040263 -38.366722
v 23.767885 11.637777 -38.366722
v 23.767887 5.427787 -38.695488
v 23.767885 13.343191 -38.653534
v 29.911201 5.412868 -38.713284
v 30.900356 13.353771 -38.698914
v 23.767881 5.427787 -30.881365
v 23.767881 13.343191 -30.923321
v 29.911198 5.412868 -30.863565
v 30.900352 13.353771 -30.877934
v 23.770050 10.939674 -31.312077
v 23.769241 11.765888 -31.274172
v 29.652054 11.772979 -31.274168
v 29.642941 10.910347 -31.127268
v 23.770050 8.935503 -31.312077
v 23.769241 9.761717 -31.274172
v 29.652054 9.768807 -31.117962
v 29.642941 8.906177 -31.127268
v 23.770050 6.931332 -31.312077
v 23.769241 7.757546 -31.274172
v 29.652054 7.764637 -31.117962
v 29.642941 6.902005 -31.127268
v 23.767885 7.730715 -38.695488
v 23.767885 6.930641 -38.695488
v 23.767885 9.734886 -38.695488
v 23.767885 8.934813 -38.695488
v 23.767885 11.739058 -38.695488
v 23.767885 10.938984 -38.695488
v 30.520370 10.962379 -38.714958
v 30.753010 11.724138 -38.713284
v 30.314791 8.958208 -38.714958
v 30.358044 9.720701 -38.713108
v 30.075447 6.953172 -38.714809
v 30.152464 7.716530 -38.713108
v 30.520367 10.962379 -30.861891
v 30.753006 11.724138 -30.863565
v 30.314787 8.958208 -30.861891
v 30.358040 9.720701 -30.863739
v 30.075443 6.953172 -30.862040
v 30.152460 7.716530 -30.863739
v 23.767881 10.938984 -30.881365
v 23.767881 11.739058 -30.881365
v 23.767881 8.934813 -30.881365
v 23.767881 9.734886 -30.881365
v 23.767881 6.930641 -30.881365
v 23.767881 7.730715 -30.881365
v 29.642944 6.902005 -38.449581
v 29.652058 7.764637 -38.458885
v 29.642944 8.906177 -38.449581
v 29.652058 9.768807 -38.458885
v 29.642944 10.910347 -38.449581
v 29.652058 11.772979 -38.264774
v 23.770054 6.931332 -38.264778
v 23.769245 7.757546 -38.302681
v 23.770054 8.935503 -38.264778
v 23.769245 9.761717 -38.302681
v 23.770054 10.939674 -38.264778
v 23.769245 11.765888 -38.302681
v 29.654318 11.921417 -38.264553
v 29.654314 11.921417 -31.273945
v 23.771502 11.914327 -31.273949
v 30.755266 11.872577 -30.863340
v 23.770142 11.887495 -30.881142
v 30.755270 11.872577 -38.713058
v 23.770145 11.887495 -38.695267
v 23.771505 11.914327 -38.302460
vn 0.9949 -0.1011 -0.0000
vn 0.9925 -0.1223 -0.0000
vn -0.0000 -0.0000 1.0000
vn -0.0000 -1.0000 -0.0000
vn -0.0213 -0.0000 0.9998
vn -0.0000 -0.0000 -1.0000
vn -0.0000 1.0000 -0.0000
vn 1.0000 -0.0000 -0.0000
vn -0.0213 -0.0000 -0.9998
vn -0.9959 0.0900 -0.0000
vn -0.9916 0.1296 -0.0000
vn 0.0029 0.0011 -1.0000
vn 0.0024 1.0000 -0.0000
vn -0.0012 1.0000 -0.0000
vn 0.0265 0.0105 -0.9996
vn 0.0031 0.0007 -1.0000
vn 0.0030 0.0011 -1.0000
vn 0.0064 -0.0094 -0.9999
vn -0.9944 0.1060 -0.0000
vn 0.0028 -0.0000 1.0000
vn 0.0027 -0.0000 1.0000
vn 0.0025 -0.0261 0.9997
vn 0.0772 -0.9970 -0.0000
vn -0.9999 0.0152 0.0024
vn 0.0680 0.9977 -0.0000
vn 0.0017 0.9832 0.1827
vn 0.0029 -0.9828 -0.1848
vn 0.0017 0.9832 -0.1827
vn 0.0029 -0.0000 1.0000
vn 0.0002 -0.1679 -0.9858
vn -0.9999 0.0106 -0.0000
vn 0.0265 0.0105 0.9996
vn -0.0060 -0.2094 0.9778
vn 0.0016 0.9834 -0.1816
vn 0.0029 -0.9828 0.1848
vn 0.0029 -0.9831 0.1832
vn 0.0030 -0.9827 -0.1852
vn 0.9999 -0.0152 -0.0000
vn 0.0016 0.9834 0.1816
vn 0.0592 -0.9982 -0.0000
vn 0.0957 0.9954 -0.0000
vn -0.0026 -0.0015 1.0000
vn 0.1175 -0.9931 -0.0000
vn 0.0029 -0.9831 -0.1832
vn 0.0030 -0.9827 0.1852
vn -0.0000 0.9942 -0.1075
vn 0.1011 0.9949 -0.0000
vn -0.0015 1.0000 -0.0000
vn -1.0000 -0.0000 -0.0000
vn -0.9998 -0.0000 0.0212
vn -0.9998 -0.0000 -0.0213
vn -1.0000 0.0092 -0.0028
vn -0.9999 -0.0164 0.0051
vn -0.9999 0.0152 -0.0024
vn -0.9999 0.0152 -0.0000
vn -0.0064 -0.0014 1.0000
vn -0.0000 0.0015 -1.0000
vn -0.0025 0.0015 -1.0000
vn 0.0027 -0.0000 -1.0000
vn 0.0316 0.0458 -0.9984
vn 0.0029 -0.0000 -1.0000
vn 0.0028 -0.0000 -1.0000
vn 0.0025 -0.0261 -0.9997
vn 0.0030 0.0011 1.0000
vn 0.0029 0.0011 1.0000
vn 0.0064 -0.0094 0.9999
vn -0.0030 0.9977 0.0681
vn -0.0049 -1.0000 0.0016
vn -0.0030 0.9977 -0.0681
vn 0.0031 0.0007 1.0000
vn 0.0316 0.0458 0.9984
vn -0.0049 -1.0000 -0.0016
vn -0.0000 0.9942 0.1075
vn -0.9998 -0.0000 0.0213
vn -0.9998 -0.0000 -0.0212
vn -1.0000 0.0092 0.0028
vn -0.9999 -0.0164 -0.0051
vt 0.125000 0.750000
vt 0.037451 0.259197
vt 0.375000 0.000000
vt 0.625000 0.000000
vt 0.037451 0.259197
vt 0.375000 0.250000
vt 0.625000 0.250000
vt 0.037451 0.259197
vt 0.375000 0.750000
vt 0.625000 0.750000
vt 0.037451 0.259197
vt 0.375000 0.500000
vt 0.625000 0.500000
vt 0.285908 0.375000
vt 0.986762 0.973376
vt 0.553183 0.750000
vt 0.000000 0.000000
vt 0.986762 0.973376
vt 0.571817 0.750000
vt 0.000000 0.000000
vt 0.986762 0.973376
vt 0.571817 0.500000
vt 0.986762 0.973376
vt 0.285908 0.375000
vt 0.285908 0.375000
vt 0.986762 0.973376
vt 0.490683 0.750000
vt 0.986762 0.973376
vt 0.509317 0.750000
vt 0.000000 0.000000
vt 0.986762 0.973376
vt 0.509317 0.500000
vt 0.000000 0.000000
vt 0.986762 0.973376
vt 0.285908 0.375000
vt 0.285908 0.375000
vt 0.986762 0.973376
vt 0.428183 0.750000
vt 0.986762 0.973376
vt 0.446817 0.750000
vt 0.000000 0.000000
vt 0.986762 0.973376
vt 0.446817 0.500000
vt 0.000000 0.000000
vt 0.986762 0.973376
vt 0.285908 0.375000
vt 0.446817 0.000000
vt 0.285908 0.375000
vt 0.428183 0.000000
vt 0.509317 0.000000
vt 0.285908 0.375000
vt 0.490683 0.000000
vt 0.571817 0.000000
vt 0.285908 0.375000
vt 0.553183 0.000000
vt 0.553183 0.250000
vt 0.285908 0.375000
vt 0.571817 0.250000
vt 0.490683 0.250000
vt 0.285908 0.375000
vt 0.509317 0.250000
vt 0.428183 0.250000
vt 0.285908 0.375000
vt 0.446817 0.250000
vt 0.553183 0.500000
vt 0.285908 0.375000
vt 0.571817 0.500000
vt 0.490683 0.500000
vt 0.285908 0.375000
vt 0.509317 0.500000
vt 0.428183 0.500000
vt 0.285908 0.375000
vt 0.446817 0.500000
vt 0.285908 0.375000
vt 0.553183 0.750000
vt 0.571817 0.750000
vt 0.285908 0.375000
vt 0.490683 0.750000
vt 0.509317 0.750000
vt 0.285908 0.375000
vt 0.428183 0.750000
vt 0.446817 0.750000
vt 0.986762 0.973376
vt 0.285908 0.375000
vt 0.000000 0.000000
vt 0.986762 0.973376
vt 0.446817 0.250000
vt 0.986762 0.973376
vt 0.285908 0.375000
vt 0.000000 0.000000
vt 0.986762 0.973376
vt 0.509317 0.250000
vt 0.986762 0.973376
vt 0.285908 0.375000
vt 0.000000 0.000000
vt 0.986762 0.973376
vt 0.571817 0.250000
vt 0.285908 0.375000
vt 0.986762 0.973376
vt 0.428183 0.000000
vt 0.986762 0.973376
vt 0.446817 0.000000
vt 0.000000 0.000000
vt 0.285908 0.375000
vt 0.986762 0.973376
vt 0.490683 0.000000
vt 0.000000 0.000000
vt 0.986762 0.973376
vt 0.509317 0.000000
vt 0.285908 0.375000
vt 0.986762 0.973376
vt 0.553183 0.000000
vt 0.000000 0.000000
vt 0.986762 0.973376
vt 0.571817 0.000000
vt 0.125000 0.750000
vt 0.375000 0.000000
vt 0.625000 0.000000
vt 0.125000 0.500000
vt 0.375000 0.250000
vt 0.625000 0.250000
vt 0.375000 0.750000
vt 0.625000 0.750000
vt 0.375000 0.500000
vt 0.625000 0.500000
vt 0.986762 0.973376
vt 0.553183 0.750000
vt 0.269464 0.434718
vt 0.000000 0.000000
vt 0.986762 0.973376
vt 0.571817 0.750000
vt 0.499385 0.447785
vt 0.986762 0.973376
vt 0.269464 0.434718
vt 0.499385 0.447785
vt 0.986762 0.973376
vt 0.553183 0.500000
vt 0.986762 0.973376
vt 0.490683 0.750000
vt 0.509317 0.750000
vt 0.986762 0.973376
vt 0.000000 0.000000
vt 0.986762 0.973376
vt 0.509317 0.500000
vt 0.000000 0.000000
vt 0.986762 0.973376
vt 0.490683 0.500000
vt 0.986762 0.973376
vt 0.428183 0.750000
vt 0.446817 0.750000
vt 0.986762 0.973376
vt 0.000000 0.000000
vt 0.986762 0.973376
vt 0.446817 0.500000
vt 0.000000 0.000000
vt 0.986762 0.973376
vt 0.428183 0.500000
vt 0.446817 0.000000
vt 0.428183 0.000000
vt 0.509317 0.000000
vt 0.490683 0.000000
vt 0.571817 0.000000
vt 0.553183 0.000000
vt 0.553183 0.250000
vt 0.571817 0.250000
vt 0.490683 0.250000
vt 0.509317 0.250000
vt 0.428183 0.250000
vt 0.446817 0.250000
vt 0.553183 0.500000
vt 0.571817 0.500000
vt 0.490683 0.500000
vt 0.509317 0.500000
vt 0.428183 0.500000
vt 0.446817 0.500000
vt 0.553183 0.750000
vt 0.571817 0.750000
vt 0.490683 0.750000
vt 0.509317 0.750000
vt 0.428183 0.750000
vt 0.446817 0.750000
vt 0.986762 0.973376
vt 0.428183 0.250000
vt 0.000000 0.000000
vt 0.986762 0.973376
vt 0.446817 0.250000
vt 0.986762 0.973376
vt 0.490683 0.250000
vt 0.000000 0.000000
vt 0.986762 0.973376
vt 0.509317 0.250000
vt 0.986762 0.973376
vt 0.553183 0.250000
vt 0.269464 0.434718
vt 0.986762 0.973376
vt 0.499385 0.447785
vt 0.428183 0.000000
vt 0.986762 0.973376
vt 0.986762 0.973376
vt 0.000000 0.000000
vt 0.446817 0.000000
vt 0.490683 0.000000
vt 0.986762 0.973376
vt 0.986762 0.973376
vt 0.509317 0.000000
vt 0.000000 0.000000
vt 0.553183 0.000000
vt 0.986762 0.973376
vt 0.269464 0.434718
vt 0.499385 0.447785
vt 0.986762 0.973376
vt 0.000000 0.000000
vt 0.571817 0.000000
vt 0.499385 0.447785
vt 0.499385 0.447785
vt 0.571817 0.750000
vt 0.499385 0.447785
vt 0.571817 0.500000
vt 0.571817 0.750000
vt 0.571817 0.250000
vt 0.571817 0.000000
vt 0.571817 0.000000
vt 0.499385 0.447785
s 0
usemtl pavimentop_terrazza
f 66/128/14 106/194/14 112/209/14
f 67/135/57 115/217/57 114/215/57
f 66/128/14 67/134/14 106/194/14
f 67/135/57 66/132/57 115/217/57
usemtl vetri
f 4/7/1 34/67/1 28/58/1
f 27/56/2 36/70/2 30/61/2
f 36/70/3 39/75/3 42/79/3
f 7/12/3 43/81/3 5/9/3
f 38/73/3 41/78/3 44/82/3
f 34/67/3 6/10/3 40/76/3
f 31/62/1 7/12/1 3/6/1
f 29/59/2 38/73/2 32/64/2
f 24/52/6 32/64/6 21/47/6
f 26/55/6 30/61/6 23/50/6
f 2/4/6 28/58/6 25/53/6
f 29/60/7 16/35/7 35/69/7
f 40/76/4 11/22/4 34/67/4
f 30/61/4 15/32/4 48/92/4
f 44/82/4 19/43/4 38/73/4
f 22/48/7 45/84/7 31/63/7
f 21/47/4 46/87/4 52/102/4
f 22/49/6 3/6/6 1/3/6
f 23/50/4 48/92/4 54/109/4
f 43/80/7 20/46/7 17/36/7
f 39/74/7 12/24/7 9/14/7
f 24/51/7 47/89/7 29/60/7
f 34/67/4 50/97/4 28/58/4
f 42/79/4 15/32/4 36/70/4
f 27/57/7 12/24/7 33/66/7
f 38/73/4 46/87/4 32/64/4
f 25/53/4 50/97/4 56/115/4
f 37/72/7 45/84/7 20/46/7
f 26/54/7 49/94/7 27/57/7
f 41/77/7 16/35/7 13/25/7
f 90/171/10 60/121/10 84/165/10
f 92/173/11 83/164/11 86/167/11
f 92/173/12 95/176/12 89/170/12
f 63/124/16 99/180/16 93/174/16
f 94/175/17 97/178/17 91/172/17
f 90/171/18 62/123/18 64/125/18
f 63/124/19 87/168/19 59/120/19
f 94/175/11 85/166/11 88/169/11
f 88/169/20 80/161/20 77/158/20
f 86/167/21 82/163/21 79/160/21
f 84/165/22 58/118/22 81/162/22
f 72/147/23 85/166/23 91/172/23
f 112/213/24 119/221/24 81/162/24
f 86/167/25 71/144/25 92/173/25
f 75/154/26 100/181/26 94/175/26
f 101/183/27 78/159/27 87/168/27
f 77/158/28 102/186/28 88/169/28
f 59/120/29 78/159/29 57/117/29
f 79/160/34 104/191/34 86/167/34
f 99/180/35 76/157/35 93/174/35
f 95/176/36 68/137/36 89/170/36
f 103/188/37 80/161/37 85/166/37
f 90/171/38 118/220/38 116/218/38
f 71/144/39 98/179/39 92/173/39
f 68/137/40 83/164/40 89/170/40
f 102/186/41 94/175/41 88/169/41
f 90/171/42 117/219/42 96/177/42
f 76/157/43 87/168/43 93/174/43
f 105/193/44 82/163/44 83/164/44
f 97/178/45 72/147/45 91/172/45
f 2/4/46 60/121/46 4/7/46
f 4/7/47 64/125/47 8/13/47
f 6/10/48 64/125/48 62/123/48
f 18/40/52 100/181/52 74/150/52
f 51/100/53 78/159/53 107/197/53
f 52/102/49 77/158/49 21/47/49
f 1/3/49 78/159/49 22/49/49
f 21/47/49 80/161/49 24/52/49
f 23/50/49 82/163/49 26/55/49
f 2/4/49 81/162/49 58/118/49
f 6/10/49 96/177/49 40/76/49
f 39/75/49 98/179/49 42/79/49
f 41/78/49 100/181/49 44/82/49
f 43/81/49 61/122/49 5/9/49
f 10/19/52 96/177/52 66/131/52
f 54/109/49 79/160/49 23/50/49
f 53/106/53 80/161/53 109/202/53
f 17/38/49 99/180/49 43/81/49
f 9/16/49 95/176/49 39/75/49
f 56/115/49 81/162/49 25/53/49
f 55/112/53 82/163/53 111/207/53
f 14/29/52 98/179/52 70/140/52
f 13/27/49 97/178/49 41/78/49
f 66/131/54 117/219/54 115/216/54
f 84/165/58 119/221/58 118/220/58
f 4/7/1 8/13/1 34/67/1
f 27/56/2 33/65/2 36/70/2
f 36/70/3 33/65/3 39/75/3
f 7/12/3 37/71/3 43/81/3
f 38/73/3 35/68/3 41/78/3
f 34/67/3 8/13/3 6/10/3
f 31/62/1 37/71/1 7/12/1
f 29/59/2 35/68/2 38/73/2
f 24/52/6 29/59/6 32/64/6
f 26/55/6 27/56/6 30/61/6
f 2/4/6 4/7/6 28/58/6
f 29/60/7 47/89/7 16/35/7
f 40/76/4 10/19/4 11/22/4
f 30/61/4 36/70/4 15/32/4
f 44/82/4 18/40/4 19/43/4
f 22/48/7 51/98/7 45/84/7
f 21/47/4 32/64/4 46/87/4
f 22/49/6 31/62/6 3/6/6
f 23/50/4 30/61/4 48/92/4
f 43/80/7 37/72/7 20/46/7
f 39/74/7 33/66/7 12/24/7
f 24/51/7 53/104/7 47/89/7
f 34/67/4 11/22/4 50/97/4
f 42/79/4 14/29/4 15/32/4
f 27/57/7 49/94/7 12/24/7
f 38/73/4 19/43/4 46/87/4
f 25/53/4 28/58/4 50/97/4
f 37/72/7 31/63/7 45/84/7
f 26/54/7 55/110/7 49/94/7
f 41/77/7 35/69/7 16/35/7
f 90/171/10 64/125/10 60/121/10
f 92/173/11 89/170/11 83/164/11
f 92/173/59 98/179/59 95/176/59
f 63/124/61 61/122/61 99/180/61
f 94/175/62 100/181/62 97/178/62
f 90/171/63 96/177/63 62/123/63
f 63/124/19 93/174/19 87/168/19
f 94/175/11 91/172/11 85/166/11
f 88/169/64 85/166/64 80/161/64
f 86/167/65 83/164/65 82/163/65
f 84/165/66 60/121/66 58/118/66
f 72/147/23 103/188/23 85/166/23
f 112/213/24 120/222/24 119/221/24
f 86/167/25 104/191/25 71/144/25
f 75/154/67 74/150/67 100/181/67
f 101/183/68 107/197/68 78/159/68
f 77/158/69 108/201/69 102/186/69
f 59/120/70 87/168/70 78/159/70
f 79/160/69 110/205/69 104/191/69
f 99/180/72 73/149/72 76/157/72
f 95/176/72 65/127/72 68/137/72
f 103/188/68 109/202/68 80/161/68
f 90/171/38 84/165/38 118/220/38
f 71/144/67 70/140/67 98/179/67
f 68/137/40 105/193/40 83/164/40
f 102/186/41 75/154/41 94/175/41
f 90/171/42 116/218/42 117/219/42
f 76/157/43 101/183/43 87/168/43
f 105/193/68 111/207/68 82/163/68
f 97/178/72 69/139/72 72/147/72
f 2/4/48 58/118/48 60/121/48
f 4/7/47 60/121/47 64/125/47
f 6/10/73 8/13/73 64/125/73
f 18/40/49 44/82/49 100/181/49
f 51/100/49 22/49/49 78/159/49
f 52/102/76 108/201/76 77/158/76
f 1/3/49 57/117/49 78/159/49
f 21/47/49 77/158/49 80/161/49
f 23/50/49 79/160/49 82/163/49
f 2/4/49 25/53/49 81/162/49
f 6/10/49 62/123/49 96/177/49
f 39/75/49 95/176/49 98/179/49
f 41/78/49 97/178/49 100/181/49
f 43/81/49 99/180/49 61/122/49
f 10/19/49 40/76/49 96/177/49
f 54/109/76 110/205/76 79/160/76
f 53/106/49 24/52/49 80/161/49
f 17/38/77 73/149/77 99/180/77
f 9/16/77 65/127/77 95/176/77
f 56/115/76 112/213/76 81/162/76
f 55/112/49 26/55/49 82/163/49
f 14/29/49 42/79/49 98/179/49
f 13/27/77 69/139/77 97/178/77
f 66/131/54 96/177/54 117/219/54
f 84/165/58 81/162/58 119/221/58
usemtl TEXTURE_FINALE.001
f 7/11/4 1/2/4 3/5/4
f 56/113/4 11/20/4 10/17/4
f 18/39/5 20/45/5 19/42/5
f 14/28/5 16/34/5 15/31/5
f 10/18/5 12/23/5 11/21/5
f 19/42/8 45/83/8 46/86/8
f 15/31/8 47/88/8 48/91/8
f 11/21/8 49/93/8 50/96/8
f 46/86/9 51/99/9 52/101/9
f 48/91/9 53/105/9 54/108/9
f 50/96/9 55/111/9 56/114/9
f 15/33/4 54/107/4 48/90/4
f 19/44/4 52/103/4 46/85/4
f 57/116/13 63/124/13 59/119/13
f 76/156/15 74/151/15 75/153/15
f 72/146/15 70/141/15 71/143/15
f 68/136/30 66/130/30 67/133/30
f 102/185/31 76/156/31 75/153/31
f 104/190/31 72/146/31 71/143/31
f 106/195/31 68/136/31 67/133/31
f 108/199/32 101/182/32 102/185/32
f 110/204/32 103/187/32 104/190/32
f 112/211/33 105/192/33 106/195/33
f 110/206/14 71/145/14 104/189/14
f 108/200/14 75/155/14 102/184/14
f 5/9/49 57/116/49 1/1/49
f 10/17/31 112/212/31 56/113/31
f 54/108/50 109/203/50 110/204/50
f 52/101/50 107/198/50 108/199/50
f 10/18/51 65/126/51 9/15/51
f 18/39/51 73/148/51 17/37/51
f 14/28/51 69/138/51 13/26/51
f 56/114/50 111/208/50 112/211/50
f 14/30/31 110/206/31 54/107/31
f 52/103/31 74/152/31 108/200/31
f 67/135/55 113/214/55 106/196/55
f 106/196/56 120/223/56 112/210/56
f 7/11/4 5/8/4 1/2/4
f 56/113/4 50/95/4 11/20/4
f 18/39/5 17/37/5 20/45/5
f 14/28/5 13/26/5 16/34/5
f 10/18/5 9/15/5 12/23/5
f 19/42/8 20/45/8 45/83/8
f 15/31/8 16/34/8 47/88/8
f 11/21/8 12/23/8 49/93/8
f 46/86/9 45/83/9 51/99/9
f 48/91/9 47/88/9 53/105/9
f 50/96/9 49/93/9 55/111/9
f 15/33/4 14/30/4 54/107/4
f 19/44/4 18/41/4 52/103/4
f 57/116/13 61/122/13 63/124/13
f 76/156/60 73/148/60 74/151/60
f 72/146/60 69/138/60 70/141/60
f 68/136/60 65/126/60 66/130/60
f 102/185/31 101/182/31 76/156/31
f 104/190/31 103/187/31 72/146/31
f 106/195/31 105/192/31 68/136/31
f 108/199/71 107/198/71 101/182/71
f 110/204/71 109/203/71 103/187/71
f 112/211/71 111/208/71 105/192/71
f 110/206/14 70/142/14 71/145/14
f 108/200/14 74/152/14 75/155/14
f 5/9/49 61/122/49 57/116/49
f 10/17/31 66/129/31 112/212/31
f 54/108/74 53/105/74 109/203/74
f 52/101/74 51/99/74 107/198/74
f 10/18/75 66/130/75 65/126/75
f 18/39/75 74/151/75 73/148/75
f 14/28/75 70/141/75 69/138/75
f 56/114/74 55/111/74 111/208/74
f 14/30/31 70/142/31 110/206/31
f 52/103/31 18/41/31 74/152/31
f 67/135/55 114/215/55 113/214/55
f 106/196/56 113/214/56 120/223/56
