# Blender 3.5.1
# www.blender.org
mtllib alas ijo.mtl
o Plane.014
o TERRENO
v -13.636578 5.299292 18.994169
v -3.636578 5.299292 18.994169
v -13.636578 5.299290 8.994169
v -3.636578 5.299290 8.994169
vn -0.0000 1.0000 -0.0000
vt 0.632882 0.593510
vt 0.632882 0.593510
vt 0.632882 0.593510
vt 0.632882 0.593510
s 0
usemtl BASI_EDIFICI
f 2/2/1 3/3/1 1/1/1
f 2/2/1 4/4/1 3/3/1
o TERRENO.001
v -13.662202 5.298037 -0.986527
v -3.675842 5.298037 -0.986527
v -13.662202 5.298034 -13.815722
v -3.675842 5.298034 -13.815722
v -13.662202 5.298035 -12.093557
v -13.662202 5.298036 -2.673357
v -3.675842 5.298036 -2.673358
v -3.675842 5.298035 -12.093558
vn -0.0000 1.0000 -0.0000
vt 0.625500 0.591049
vt 0.625500 0.591049
vt 0.625500 0.591049
vt 0.625500 0.591049
vt 0.625500 0.591049
vt 0.534451 0.957706
vt 0.534451 0.957706
vt 0.625500 0.591049
vt 0.625500 0.591049
vt 0.534451 0.957706
vt 0.625500 0.591049
vt 0.534451 0.957706
s 0
usemtl BASI_EDIFICI
f 12/15/2 7/7/2 9/9/2
f 6/6/2 10/12/2 5/5/2
f 11/14/2 9/10/2 10/11/2
f 12/15/2 8/8/2 7/7/2
f 6/6/2 11/13/2 10/12/2
f 11/14/2 12/16/2 9/10/2
o prato_mall
v 32.032135 5.284317 -21.755024
v 32.032143 5.284317 -39.532303
v 0.329990 5.284316 -21.755039
v 0.329994 5.284316 -39.532318
v 26.330229 5.284317 -21.755024
v 26.330235 5.284317 -39.532303
v 32.032139 5.284317 -30.269245
v 26.330231 5.284317 -30.269245
v 3.019899 5.284316 -39.532318
v 3.037073 5.284316 -21.755039
v 0.329992 5.284316 -30.311144
v 3.019897 5.284316 -30.311144
vn -0.0000 1.0000 -0.0000
vt 0.654957 0.732109
vt 0.374619 0.732109
vt 0.560750 0.000075
vt 0.629422 0.594471
vt 0.654957 0.642193
vt 0.374619 0.642193
vt 0.520692 0.732109
vt 0.520692 0.642193
vt 0.629422 0.594471
vt 0.374619 0.274602
vt 0.560750 0.085453
vt 0.654957 0.274873
vt 0.629422 0.594471
vt 0.290900 0.000075
vt 0.629422 0.594471
vt 0.520032 0.274602
vt 0.290900 0.084911
s 0
usemtl BASI_EDIFICI
f 21/25/3 23/29/3 24/31/3
f 19/23/3 18/22/3 20/24/3
f 19/23/3 17/21/3 13/17/3
f 20/24/3 21/26/3 22/28/3
f 24/33/3 15/19/3 22/27/3
f 21/25/3 16/20/3 23/29/3
f 19/23/3 14/18/3 18/22/3
f 19/23/3 20/24/3 17/21/3
f 22/28/3 17/21/3 20/24/3
f 20/24/3 18/22/3 21/26/3
f 21/26/3 24/32/3 22/28/3
f 24/33/3 23/30/3 15/19/3
o TERRENO.002
v -13.661901 5.298037 9.020666
v -3.643885 5.298037 9.020666
v -13.661901 5.298035 -0.986527
v -3.643885 5.298035 -0.986527
v -6.864429 5.298037 9.020666
v -6.864429 5.298035 -0.986527
v -3.643885 5.298036 5.193357
v -3.643885 5.298036 2.809169
v -6.864429 5.298036 5.193357
v -6.864429 5.298036 2.809169
v -6.864429 5.342367 5.193357
v -6.864429 5.342367 2.809169
vn -0.0000 1.0000 -0.0000
vn -0.0000 -0.0000 1.0000
vn 0.0138 0.9999 -0.0000
vn -0.0000 -0.0000 -1.0000
vn -1.0000 -0.0000 -0.0000
vt 0.618118 0.591049
vt 0.618118 0.591049
vt 0.618118 0.591049
vt 0.618118 0.591049
vt 0.618118 0.591049
vt 0.618118 0.591049
vt 0.618118 0.591049
vt 0.522147 0.974931
vt 0.618118 0.591049
vt 0.522147 0.974931
vt 0.618118 0.591049
vt 0.618118 0.591049
vt 0.522147 0.974931
vt 0.618118 0.591049
vt 0.522147 0.974931
vt 0.618118 0.591049
s 0
usemtl BASI_EDIFICI
f 32/42/4 30/39/4 34/45/4
f 33/44/4 34/45/4 27/36/4
f 26/35/4 33/44/4 29/38/4
f 33/44/5 31/40/5 35/47/5
f 31/41/6 36/48/6 35/46/6
f 32/42/7 34/45/7 36/49/7
f 33/44/8 36/49/8 34/45/8
f 32/42/4 28/37/4 30/39/4
f 27/36/4 25/34/4 29/38/4
f 27/36/4 29/38/4 33/44/4
f 34/45/4 30/39/4 27/36/4
f 26/35/4 31/40/4 33/44/4
f 31/41/6 32/43/6 36/48/6
f 33/44/8 35/47/8 36/49/8
o terreno
v 0.329996 5.284317 -21.798016
v 0.329998 5.284317 -39.532299
v -21.673624 5.292943 -21.798018
v -21.673622 5.292943 -39.532303
vn 0.0004 1.0000 -0.0000
vt 0.628941 0.967304
vt 0.628941 0.967304
vt 0.628941 0.967304
vt 0.628941 0.967304
s 0
usemtl texture.002
f 38/51/9 39/52/9 37/50/9
f 38/51/9 40/53/9 39/52/9
o Plane.001
v 39.266129 5.299292 -11.785385
v 53.401688 5.299292 -11.785385
v 39.266129 5.299290 -21.785385
v 53.401688 5.299290 -21.785385
v 39.266129 5.299290 -20.554762
v 39.266129 5.299291 -13.016008
v 53.401688 5.299291 -13.016008
v 53.401688 5.299290 -20.554762
vn -0.0000 1.0000 -0.0000
vt 0.627961 0.588588
vt 0.627961 0.588588
vt 0.627961 0.588588
vt 0.627961 0.588588
vt 0.627961 0.588588
vt 0.622772 0.968056
vt 0.622772 0.968056
vt 0.627961 0.588588
vt 0.627961 0.588588
vt 0.622772 0.968056
vt 0.627961 0.588588
vt 0.622772 0.968056
s 0
usemtl TEXTURE_FINALE
f 48/64/10 43/56/10 45/58/10
f 42/55/10 46/61/10 41/54/10
f 47/63/10 45/59/10 46/60/10
f 48/64/10 44/57/10 43/56/10
f 42/55/10 47/62/10 46/61/10
f 47/63/10 48/65/10 45/59/10
o Plane.006
v 39.271828 5.296387 5.606969
v 53.401684 5.296387 5.606969
v 39.271828 5.296384 -11.785385
v 53.401684 5.296384 -11.785385
vn -0.0000 1.0000 -0.0000
vt 1.045126 0.041325
vt 1.045126 0.902949
vt -0.050048 0.041325
vt -0.050048 0.902949
s 0
usemtl parcheggio_gelati
f 50/67/11 51/68/11 49/66/11
f 50/67/11 52/69/11 51/68/11
o Plane.008
v 26.222395 5.299292 42.709705
v 39.295498 5.299292 42.709705
v 26.222395 5.299289 27.024778
v 39.295498 5.299289 27.024778
vn -0.0000 1.0000 -0.0000
vt 0.570312 0.593750
vt 0.570312 0.593750
vt 0.570312 0.593750
vt 0.570312 0.593750
s 0
usemtl texture_FINALE.002
f 54/71/12 55/72/12 53/70/12
f 54/71/12 56/73/12 55/72/12
o Plane.011
v 39.256783 5.299293 27.053219
v 53.401688 5.299293 27.053219
v 39.256783 5.299289 5.606969
v 53.401688 5.299289 5.606969
vn -0.0000 1.0000 -0.0000
vt 0.628236 0.980561
vt 0.628236 0.980561
vt 0.628236 0.980561
vt 0.628236 0.980561
s 0
usemtl TEXTURE_FINALE
f 58/75/13 59/76/13 57/74/13
f 58/75/13 60/77/13 59/76/13
o Plane.009
v -21.673620 5.299292 42.707619
v -8.628502 5.299292 42.707619
v -21.673620 5.299289 27.024780
v -8.628502 5.299289 27.024780
vn -0.0000 1.0000 -0.0000
vt 0.570312 0.593750
vt 0.570312 0.593750
vt 0.570312 0.593750
vt 0.570312 0.593750
s 0
usemtl texture_FINALE.002
f 62/79/14 63/80/14 61/78/14
f 62/79/14 64/81/14 63/80/14
o Plane.015
v 39.295498 5.299292 42.709705
v 53.401684 5.299292 42.709705
v 39.295498 5.299289 27.042561
v 53.401684 5.299289 27.042561
vn -0.0000 1.0000 -0.0000
vt 0.583984 0.599609
vt 0.583984 0.599609
vt 0.583984 0.599609
vt 0.583984 0.599609
s 0
usemtl texture.001
f 66/83/15 67/84/15 65/82/15
f 66/83/15 68/85/15 67/84/15
o Plane.004
v 26.249537 5.299292 42.709705
v 26.249537 5.299289 27.024780
v 9.760210 5.299292 42.709705
v 9.760210 5.299289 27.024780
vn -0.0000 1.0000 -0.0000
vt 0.676722 0.730979
vt 0.676722 0.730979
vt 0.676722 0.730979
vt 0.676722 0.730979
s 0
usemtl TEXTURE
f 70/87/16 71/88/16 69/86/16
f 70/87/16 72/89/16 71/88/16
o Plane.007
v -8.642567 5.299292 42.709705
v 9.795242 5.299292 42.709705
v -8.642567 5.299289 27.024780
v 9.795242 5.299289 27.024780
vn -0.0000 1.0000 -0.0000
vt 0.627809 0.968384
vt 0.627809 0.968384
vt 0.627809 0.968384
vt 0.627809 0.968384
s 0
usemtl texture_FINALE.002
f 74/91/17 75/92/17 73/90/17
f 74/91/17 76/93/17 75/92/17
