# Blender 3.5.1
# www.blender.org
mtllib lampu taman3.mtl
o LAMPIONE.037
v 1.138362 7.542655 -21.602772
v 1.169541 7.542655 -21.589857
v 1.182455 7.542655 -21.558680
v 1.169541 7.542655 -21.527502
v 1.138362 7.542655 -21.514587
v 1.107184 7.542655 -21.527502
v 1.094270 7.542655 -21.558680
v 1.107184 7.542655 -21.589857
v 1.138362 5.673315 -21.602772
v 1.169541 5.673315 -21.589857
v 1.182455 5.673315 -21.558680
v 1.169541 5.673315 -21.527502
v 1.138362 5.673315 -21.514587
v 1.107184 5.673315 -21.527502
v 1.094270 5.673315 -21.558680
v 1.107184 5.673315 -21.589857
v 1.138362 5.304965 -21.656523
v 1.207548 5.304965 -21.627865
v 1.184348 5.673315 -21.604666
v 1.236206 5.304965 -21.558680
v 1.203396 5.673315 -21.558680
v 1.207548 5.304965 -21.489492
v 1.184348 5.673315 -21.512693
v 1.138362 5.304965 -21.460836
v 1.138362 5.673315 -21.493645
v 1.069176 5.304965 -21.489492
v 1.092376 5.673315 -21.512693
v 1.040519 5.304965 -21.558680
v 1.073328 5.673315 -21.558680
v 1.069176 5.304965 -21.627865
v 1.092376 5.673315 -21.604666
v 1.138362 5.673315 -21.623713
v 1.140273 7.508790 -21.663147
v 1.138362 7.864233 -21.632030
v 1.212059 7.508790 -21.633411
v 1.190229 7.864233 -21.610546
v 1.241793 7.508790 -21.561626
v 1.211713 7.864233 -21.558680
v 1.212059 7.508790 -21.489841
v 1.190229 7.864233 -21.506813
v 1.140273 7.508790 -21.460106
v 1.138362 7.864233 -21.485329
v 1.068488 7.508790 -21.489841
v 1.086495 7.864233 -21.506813
v 1.038753 7.508790 -21.561626
v 1.065011 7.864233 -21.558680
v 1.068488 7.508790 -21.633411
v 1.086495 7.864233 -21.610546
v 1.146991 7.514826 -21.661154
v 1.145932 7.809159 -21.735880
v 1.258310 7.809159 -21.689331
v 1.205898 7.514826 -21.636753
v 1.215399 7.514826 -21.627253
v 1.269014 7.809159 -21.678627
v 1.315563 7.809159 -21.566250
v 1.239799 7.514826 -21.568344
v 1.239799 7.514826 -21.554909
v 1.315563 7.809159 -21.551111
v 1.269014 7.809159 -21.438732
v 1.215399 7.514826 -21.496002
v 1.205898 7.514826 -21.486500
v 1.258310 7.809159 -21.428028
v 1.145932 7.809159 -21.381479
v 1.146991 7.514826 -21.462101
v 1.133555 7.514826 -21.462101
v 1.130793 7.809159 -21.381479
v 1.018415 7.809159 -21.428028
v 1.074648 7.514826 -21.486500
v 1.065147 7.514826 -21.496002
v 1.007711 7.809159 -21.438732
v 0.961162 7.809159 -21.551111
v 1.040747 7.514826 -21.554909
v 1.040747 7.514826 -21.568344
v 0.961162 7.809159 -21.566250
v 1.007711 7.809159 -21.678627
v 1.065147 7.514826 -21.627253
v 1.074648 7.514826 -21.636753
v 1.018415 7.809159 -21.689331
v 1.130793 7.809159 -21.735880
v 1.133555 7.514826 -21.661154
v 1.143159 7.516288 -21.651899
v 1.141614 7.810807 -21.725456
v 1.202066 7.516288 -21.627501
v 1.253992 7.810807 -21.678907
v 1.258590 7.810807 -21.674309
v 1.206147 7.516288 -21.623419
v 1.230547 7.516288 -21.564512
v 1.305138 7.810807 -21.561932
v 1.305138 7.810807 -21.555429
v 1.230547 7.516288 -21.558741
v 1.206147 7.516288 -21.499834
v 1.258590 7.810807 -21.443050
v 1.253992 7.810807 -21.438452
v 1.202066 7.516288 -21.495752
v 1.143159 7.516288 -21.471354
v 1.141614 7.810807 -21.391905
v 1.135111 7.810807 -21.391905
v 1.137387 7.516288 -21.471354
v 1.078481 7.516288 -21.495752
v 1.022733 7.810807 -21.438452
v 1.018135 7.810807 -21.443050
v 1.074400 7.516288 -21.499834
v 1.049999 7.516288 -21.558741
v 0.971587 7.810807 -21.555429
v 0.971587 7.810807 -21.561932
v 1.049999 7.516288 -21.564512
v 1.074400 7.516288 -21.623419
v 1.018135 7.810807 -21.674309
v 1.022733 7.810807 -21.678907
v 1.078480 7.516288 -21.627501
v 1.137388 7.516288 -21.651899
v 1.135111 7.810807 -21.725456
v 1.266945 7.815959 -21.687262
v 1.138362 7.815959 -21.740522
v 1.320205 7.815959 -21.558680
v 1.266945 7.815959 -21.430098
v 1.138362 7.815959 -21.376837
v 1.009780 7.815959 -21.430098
v 0.956519 7.815959 -21.558680
v 1.009780 7.815959 -21.687262
v 1.172403 7.913632 -21.592720
v 1.138362 7.913632 -21.606819
v 1.186502 7.913632 -21.558680
v 1.172403 7.913632 -21.524639
v 1.138362 7.913632 -21.510540
v 1.104322 7.913632 -21.524639
v 1.090222 7.913632 -21.558680
v 1.104322 7.913632 -21.592720
vn 0.3827 -0.0000 -0.9239
vn 0.9239 -0.0000 -0.3827
vn 0.9239 -0.0000 0.3827
vn 0.3827 -0.0000 0.9239
vn -0.3827 -0.0000 0.9239
vn -0.9239 -0.0000 0.3827
vn -0.9239 -0.0000 -0.3827
vn -0.3827 -0.0000 -0.9239
vn -0.0000 1.0000 -0.0000
vn -0.3814 0.0820 -0.9208
vn -0.9208 0.0820 -0.3814
vn -0.9208 0.0820 0.3814
vn -0.3814 0.0820 0.9208
vn 0.3814 0.0820 0.9208
vn 0.9208 0.0820 0.3814
vn 0.9208 0.0820 -0.3814
vn 0.3814 0.0820 -0.9208
vn 0.1335 -0.9895 0.0553
vn 0.1335 0.9895 -0.0553
vn -0.1335 0.9895 -0.0553
vn 0.9141 0.0964 0.3939
vn 0.3931 0.0882 0.9153
vn 0.3662 0.1056 -0.9245
vn -0.3461 0.4265 0.8356
vn 0.0553 -0.9895 -0.1335
vn -0.0553 0.9895 0.1335
vn -0.0000 -1.0000 -0.0000
vn 0.4524 -0.2179 -0.8648
vn 0.3749 -0.2007 -0.9051
vn 0.3919 -0.2264 -0.8917
vn 0.3799 -0.1199 -0.9172
vn 0.9315 -0.2202 -0.2894
vn 0.9051 -0.2006 -0.3749
vn 0.9078 -0.2284 -0.3517
vn 0.9172 -0.1199 -0.3799
vn 0.8590 -0.2270 0.4589
vn 0.9051 -0.2007 0.3749
vn 0.8865 -0.2358 0.3982
vn 0.9172 -0.1199 0.3799
vn 0.2759 -0.2343 0.9322
vn 0.3749 -0.2007 0.9051
vn 0.3380 -0.2443 0.9089
vn 0.3799 -0.1199 0.9172
vn -0.4665 -0.2377 0.8520
vn -0.3749 -0.2007 0.9051
vn -0.4065 -0.2487 0.8791
vn -0.3799 -0.1199 0.9172
vn -0.9322 -0.2354 0.2749
vn -0.9051 -0.2006 0.3749
vn -0.9090 -0.2466 0.3360
vn -0.9172 -0.1199 0.3799
vn -0.8579 -0.2287 -0.4601
vn -0.9051 -0.2006 -0.3749
vn -0.8846 -0.2393 -0.4004
vn -0.9172 -0.1199 -0.3799
vn -0.2882 -0.2215 -0.9316
vn -0.3749 -0.2007 -0.9051
vn -0.3495 -0.2309 -0.9080
vn -0.3799 -0.1199 -0.9172
vn 0.3730 -0.2230 -0.9006
vn 0.9002 -0.2247 -0.3729
vn 0.8987 -0.2318 0.3723
vn 0.3715 -0.2400 0.8969
vn -0.3711 -0.2445 0.8958
vn -0.8962 -0.2428 0.3712
vn -0.8978 -0.2358 -0.3719
vn -0.3726 -0.2276 -0.8996
vn -0.1335 -0.9895 0.0553
vn -0.9157 0.0850 0.3927
vn -0.3926 0.0833 0.9159
vn -0.3670 0.1011 -0.9247
vn 0.0553 0.9895 0.1335
vn -0.0553 -0.9895 -0.1335
vn -0.3943 0.1008 -0.9134
vn 0.9249 0.0967 0.3678
vn 0.9246 0.1037 -0.3666
vn -0.1335 0.9895 0.0553
vn 0.0553 0.9895 -0.1335
vn 0.1335 -0.9895 -0.0553
vn -0.0553 -0.9895 0.1335
vn 0.9130 0.1039 -0.3946
vn -0.3701 0.0833 0.9253
vn 0.3693 0.0879 0.9251
vn -0.9147 0.0926 -0.3935
vn -0.0553 0.9895 -0.1335
vn 0.1335 0.9895 0.0553
vn 0.0553 -0.9895 0.1335
vn -0.1335 -0.9895 -0.0553
vn -0.9250 0.0923 -0.3686
vn -0.9252 0.0852 0.3698
vn 0.3948 0.1057 -0.9127
vn 0.1661 0.9010 -0.4009
vn 0.4009 0.9010 -0.1661
vn 0.4009 0.9010 0.1661
vn 0.1661 0.9010 0.4009
vn -0.1661 0.9010 0.4009
vn -0.4009 0.9010 0.1660
vn -0.4009 0.9010 -0.1661
vn -0.1661 0.9010 -0.4009
vn 0.8356 0.4265 0.3461
vn 0.3461 0.4265 -0.8356
vn -0.3461 0.4265 -0.8356
vn -0.8357 0.4265 0.3461
vn 0.3461 0.4265 0.8356
vn 0.8356 0.4265 -0.3461
vn -0.8356 0.4265 -0.3461
vn 0.3533 -0.2264 -0.9077
vn 0.2912 -0.2182 -0.9314
vn 0.8908 -0.2281 -0.3931
vn 0.9051 -0.2007 -0.3749
vn 0.8640 -0.2192 -0.4533
vn 0.9083 -0.2352 0.3459
vn 0.9318 -0.2251 0.2847
vn 0.4032 -0.2436 0.8821
vn 0.4629 -0.2326 0.8554
vn -0.3343 -0.2485 0.9091
vn -0.2730 -0.2374 0.9323
vn -0.8801 -0.2471 0.4055
vn -0.9051 -0.2007 0.3749
vn -0.8528 -0.2366 0.4656
vn -0.9086 -0.2400 -0.3417
vn -0.9051 -0.2007 -0.3749
vn -0.9321 -0.2307 -0.2794
vn -0.3952 -0.2314 -0.8890
vn -0.4561 -0.2230 -0.8615
vn -0.4009 0.9010 0.1661
vn -0.8356 0.4265 0.3461
vn -0.8357 0.4265 -0.3461
vt 0.786786 0.974709
vt 0.786786 0.974709
vt 0.786786 0.974709
vt 0.786786 0.974709
vt 0.786786 0.974709
vt 0.786786 0.974709
vt 0.786786 0.974709
vt 0.786786 0.974709
vt 0.786786 0.974709
vt 0.786786 0.974709
vt 0.786786 0.974709
vt 0.786786 0.974709
vt 0.786786 0.974709
vt 0.786786 0.974709
vt 0.786786 0.974709
vt 0.786786 0.974709
vt 0.786786 0.974709
vt 0.786786 0.974709
vt 0.786786 0.974709
vt 0.786786 0.974709
vt 0.786786 0.974709
vt 0.786786 0.974709
vt 0.786786 0.974709
vt 0.786786 0.974709
vt 0.786786 0.974709
vt 0.786786 0.974709
vt 0.786786 0.974709
vt 0.786786 0.974709
vt 0.786786 0.974709
vt 0.786786 0.974709
vt 0.786786 0.974709
vt 0.786786 0.974709
vt 0.786786 0.974709
vt 0.786786 0.974709
vt 0.786786 0.974709
vt 0.786786 0.974709
vt 0.786786 0.974709
vt 0.786786 0.974709
vt 0.786786 0.974709
vt 0.786786 0.974709
vt 0.786786 0.974709
vt 0.786786 0.974709
vt 0.786786 0.974709
vt 0.786786 0.974709
vt 0.786786 0.974709
vt 0.786786 0.974709
vt 0.786786 0.974709
vt 0.786786 0.974709
vt 0.786786 0.974709
vt 0.786786 0.974709
vt 0.786786 0.974709
vt 0.786786 0.974709
vt 0.786786 0.974709
vt 0.786786 0.974709
vt 0.786786 0.974709
vt 0.786786 0.974709
vt 0.786786 0.974709
vt 0.786786 0.974709
vt 0.786786 0.974709
vt 0.786786 0.974709
vt 0.786786 0.974709
vt 0.786786 0.974709
vt 0.786786 0.974709
vt 0.786786 0.974709
vt 0.786786 0.974709
vt 0.786786 0.974709
vt 0.786786 0.974709
vt 0.786786 0.974709
vt 0.786786 0.974709
vt 0.786786 0.974709
vt 0.786786 0.974709
vt 0.786786 0.974709
vt 0.786786 0.974709
vt 0.786786 0.974709
vt 0.786786 0.974709
vt 0.786786 0.974709
vt 0.786786 0.974709
vt 0.786786 0.974709
vt 0.786786 0.974709
vt 0.786786 0.974709
vt 0.327928 0.877116
vt 0.786786 0.974709
vt 0.327928 0.877116
vt 0.786786 0.974709
vt 0.327928 0.877116
vt 0.786786 0.974709
vt 0.327928 0.877116
vt 0.786786 0.974709
vt 0.327928 0.877116
vt 0.786786 0.974709
vt 0.327928 0.877116
vt 0.786786 0.974709
vt 0.327928 0.877116
vt 0.786786 0.974709
vt 0.327928 0.877116
vt 0.786786 0.974709
vt 0.327928 0.877116
vt 0.786786 0.974709
vt 0.327928 0.877116
vt 0.786786 0.974709
vt 0.327928 0.877116
vt 0.786786 0.974709
vt 0.327928 0.877116
vt 0.786786 0.974709
vt 0.327928 0.877116
vt 0.786786 0.974709
vt 0.327928 0.877116
vt 0.786786 0.974709
vt 0.327928 0.877116
vt 0.786786 0.974709
vt 0.327928 0.877116
vt 0.786786 0.974709
vt 0.327928 0.877116
vt 0.786786 0.974709
vt 0.327928 0.877116
vt 0.786786 0.974709
vt 0.786786 0.974709
vt 0.327928 0.877116
vt 0.786786 0.974709
vt 0.327928 0.877116
vt 0.327928 0.877116
vt 0.786786 0.974709
vt 0.327928 0.877116
vt 0.786786 0.974709
vt 0.327928 0.877116
vt 0.786786 0.974709
vt 0.327928 0.877116
vt 0.786786 0.974709
vt 0.786786 0.974709
vt 0.327928 0.877116
vt 0.786786 0.974709
vt 0.327928 0.877116
vt 0.327928 0.877116
vt 0.786786 0.974709
vt 0.327928 0.877116
vt 0.786786 0.974709
vt 0.327928 0.877116
vt 0.786786 0.974709
vt 0.327928 0.877116
vt 0.786786 0.974709
vt 0.327928 0.877116
vt 0.786786 0.974709
vt 0.327928 0.877116
vt 0.786786 0.974709
vt 0.786786 0.974709
vt 0.786786 0.974709
vt 0.786786 0.974709
vt 0.786786 0.974709
vt 0.786786 0.974709
vt 0.786786 0.974709
vt 0.786786 0.974709
vt 0.786786 0.974709
vt 0.786786 0.974709
vt 0.786786 0.974709
vt 0.786786 0.974709
vt 0.786786 0.974709
vt 0.786786 0.974709
vt 0.786786 0.974709
vt 0.786786 0.974709
vt 0.786786 0.974709
s 0
usemtl lowpolytex
f 1/1/1 10/10/1 9/9/1
f 2/2/2 11/11/2 10/10/2
f 3/3/3 12/12/3 11/11/3
f 4/4/4 13/13/4 12/12/4
f 5/5/5 14/14/5 13/13/5
f 6/6/6 15/15/6 14/14/6
f 7/7/7 16/16/7 15/15/7
f 8/8/8 9/9/8 16/16/8
f 12/12/9 25/25/9 23/23/9
f 14/14/9 25/25/9 13/13/9
f 14/14/9 29/29/9 27/27/9
f 31/31/10 17/17/10 30/30/10
f 29/29/11 30/30/11 28/28/11
f 27/27/12 28/28/12 26/26/12
f 25/25/13 26/26/13 24/24/13
f 23/23/14 24/24/14 22/22/14
f 21/21/15 22/22/15 20/20/15
f 19/19/16 20/20/16 18/18/16
f 32/32/17 18/18/17 17/17/17
f 12/12/9 21/21/9 11/11/9
f 10/10/9 21/21/9 19/19/9
f 9/9/9 19/19/9 32/32/9
f 16/16/9 32/32/9 31/31/9
f 15/15/9 31/31/9 29/29/9
f 75/75/18 105/129/18 74/74/18
f 53/53/19 87/94/19 56/56/19
f 73/73/20 107/134/20 76/76/20
f 68/68/21 100/119/21 67/67/21
f 53/53/22 85/90/22 86/92/22
f 73/73/23 105/129/23 106/131/23
f 42/42/24 126/158/24 44/44/24
f 67/67/25 97/114/25 66/66/25
f 65/65/26 99/117/26 68/68/26
f 39/39/27 43/43/27 47/47/27
f 33/33/28 50/50/28 49/49/28
f 113/145/29 50/50/29 114/146/29
f 35/35/30 51/51/30 113/145/30
f 35/35/31 49/49/31 52/52/31
f 35/35/32 54/54/32 53/53/32
f 115/147/33 54/54/33 113/145/33
f 37/37/34 55/55/34 115/147/34
f 35/35/35 56/56/35 37/37/35
f 37/37/36 58/58/36 57/57/36
f 116/148/37 58/58/37 115/147/37
f 39/39/38 59/59/38 116/148/38
f 39/39/39 57/57/39 60/60/39
f 39/39/40 62/62/40 61/61/40
f 117/149/41 62/62/41 116/148/41
f 41/41/42 63/63/42 117/149/42
f 39/39/43 64/64/43 41/41/43
f 41/41/44 66/66/44 65/65/44
f 118/150/45 66/66/45 117/149/45
f 43/43/46 67/67/46 118/150/46
f 41/41/47 68/68/47 43/43/47
f 43/43/48 70/70/48 69/69/48
f 119/151/49 70/70/49 118/150/49
f 45/45/50 71/71/50 119/151/50
f 43/43/51 72/72/51 45/45/51
f 45/45/52 74/74/52 73/73/52
f 120/152/53 74/74/53 119/151/53
f 47/47/54 75/75/54 120/152/54
f 45/45/55 76/76/55 47/47/55
f 47/47/56 78/78/56 77/77/56
f 114/146/57 78/78/57 120/152/57
f 33/33/58 79/79/58 114/146/58
f 47/47/59 80/80/59 33/33/59
f 81/81/60 84/87/60 83/85/60
f 85/89/61 87/93/61 86/91/61
f 89/97/62 91/101/62 90/99/62
f 93/105/63 95/109/63 94/107/63
f 97/113/64 99/118/64 98/115/64
f 102/123/65 104/127/65 103/125/65
f 106/132/66 108/135/66 107/133/66
f 110/139/67 112/143/67 111/141/67
f 55/55/68 85/90/68 54/54/68
f 61/61/69 93/106/69 94/108/69
f 76/76/70 108/136/70 75/75/70
f 56/56/71 88/96/71 55/55/71
f 64/64/72 94/108/72 95/110/72
f 63/63/73 93/106/73 62/62/73
f 69/69/74 101/122/74 102/124/74
f 49/49/75 82/84/75 81/82/75
f 64/64/76 96/112/76 63/63/76
f 69/69/77 103/126/77 72/72/77
f 52/52/78 81/82/78 83/86/78
f 71/71/79 101/122/79 70/70/79
f 51/51/80 82/84/80 50/50/80
f 77/77/81 109/138/81 110/140/81
f 57/57/82 89/98/82 90/100/82
f 72/72/83 104/128/83 71/71/83
f 52/52/84 84/88/84 51/51/84
f 77/77/85 111/142/85 80/80/85
f 57/57/86 91/102/86 60/60/86
f 79/79/87 109/138/87 78/78/87
f 59/59/88 89/98/88 58/58/88
f 65/65/89 97/114/89 98/116/89
f 80/80/90 112/144/90 79/79/90
f 60/60/91 92/104/91 59/59/91
f 36/36/92 114/146/92 34/34/92
f 38/38/93 113/145/93 36/36/93
f 38/38/94 116/148/94 115/147/94
f 42/42/95 116/148/95 40/40/95
f 42/42/96 118/150/96 117/149/96
f 44/44/97 119/151/97 118/150/97
f 48/48/98 119/151/98 46/46/98
f 48/48/99 114/146/99 120/152/99
f 127/159/9 125/157/9 123/155/9
f 38/38/100 124/156/100 40/40/100
f 36/36/101 122/154/101 121/153/101
f 48/48/102 122/154/102 34/34/102
f 44/44/103 127/159/103 46/46/103
f 40/40/104 125/157/104 42/42/104
f 36/36/105 123/155/105 38/38/105
f 46/46/106 128/160/106 48/48/106
f 1/1/1 2/2/1 10/10/1
f 2/2/2 3/3/2 11/11/2
f 3/3/3 4/4/3 12/12/3
f 4/4/4 5/5/4 13/13/4
f 5/5/5 6/6/5 14/14/5
f 6/6/6 7/7/6 15/15/6
f 7/7/7 8/8/7 16/16/7
f 8/8/8 1/1/8 9/9/8
f 12/12/9 13/13/9 25/25/9
f 14/14/9 27/27/9 25/25/9
f 14/14/9 15/15/9 29/29/9
f 31/31/10 32/32/10 17/17/10
f 29/29/11 31/31/11 30/30/11
f 27/27/12 29/29/12 28/28/12
f 25/25/13 27/27/13 26/26/13
f 23/23/14 25/25/14 24/24/14
f 21/21/15 23/23/15 22/22/15
f 19/19/16 21/21/16 20/20/16
f 32/32/17 19/19/17 18/18/17
f 12/12/9 23/23/9 21/21/9
f 10/10/9 11/11/9 21/21/9
f 9/9/9 10/10/9 19/19/9
f 16/16/9 9/9/9 32/32/9
f 15/15/9 16/16/9 31/31/9
f 75/75/18 108/136/18 105/129/18
f 53/53/19 86/92/19 87/94/19
f 73/73/20 106/131/20 107/134/20
f 68/68/21 99/117/21 100/119/21
f 53/53/22 54/54/22 85/90/22
f 73/73/23 74/74/23 105/129/23
f 42/42/24 125/157/24 126/158/24
f 67/67/25 100/119/25 97/114/25
f 65/65/26 98/116/26 99/117/26
f 47/47/27 33/33/27 35/35/27
f 35/35/27 37/37/27 39/39/27
f 39/39/27 41/41/27 43/43/27
f 43/43/27 45/45/27 47/47/27
f 47/47/27 35/35/27 39/39/27
f 33/33/107 114/146/107 50/50/107
f 113/145/29 51/51/29 50/50/29
f 35/35/108 52/52/108 51/51/108
f 35/35/31 33/33/31 49/49/31
f 35/35/109 113/145/109 54/54/109
f 115/147/110 55/55/110 54/54/110
f 37/37/111 56/56/111 55/55/111
f 35/35/35 53/53/35 56/56/35
f 37/37/112 115/147/112 58/58/112
f 116/148/37 59/59/37 58/58/37
f 39/39/113 60/60/113 59/59/113
f 39/39/39 37/37/39 57/57/39
f 39/39/114 116/148/114 62/62/114
f 117/149/41 63/63/41 62/62/41
f 41/41/115 64/64/115 63/63/115
f 39/39/43 61/61/43 64/64/43
f 41/41/116 117/149/116 66/66/116
f 118/150/45 67/67/45 66/66/45
f 43/43/117 68/68/117 67/67/117
f 41/41/47 65/65/47 68/68/47
f 43/43/118 118/150/118 70/70/118
f 119/151/119 71/71/119 70/70/119
f 45/45/120 72/72/120 71/71/120
f 43/43/51 69/69/51 72/72/51
f 45/45/121 119/151/121 74/74/121
f 120/152/122 75/75/122 74/74/122
f 47/47/123 76/76/123 75/75/123
f 45/45/55 73/73/55 76/76/55
f 47/47/124 120/152/124 78/78/124
f 114/146/57 79/79/57 78/78/57
f 33/33/125 80/80/125 79/79/125
f 47/47/59 77/77/59 80/80/59
f 81/81/60 82/83/60 84/87/60
f 85/89/61 88/95/61 87/93/61
f 89/97/62 92/103/62 91/101/62
f 93/105/63 96/111/63 95/109/63
f 97/113/64 100/120/64 99/118/64
f 102/123/65 101/121/65 104/127/65
f 106/132/66 105/130/66 108/135/66
f 110/139/67 109/137/67 112/143/67
f 55/55/68 88/96/68 85/90/68
f 61/61/69 62/62/69 93/106/69
f 76/76/70 107/134/70 108/136/70
f 56/56/71 87/94/71 88/96/71
f 64/64/72 61/61/72 94/108/72
f 63/63/73 96/112/73 93/106/73
f 69/69/74 70/70/74 101/122/74
f 49/49/75 50/50/75 82/84/75
f 64/64/76 95/110/76 96/112/76
f 69/69/77 102/124/77 103/126/77
f 52/52/78 49/49/78 81/82/78
f 71/71/79 104/128/79 101/122/79
f 51/51/80 84/88/80 82/84/80
f 77/77/81 78/78/81 109/138/81
f 57/57/82 58/58/82 89/98/82
f 72/72/83 103/126/83 104/128/83
f 52/52/84 83/86/84 84/88/84
f 77/77/85 110/140/85 111/142/85
f 57/57/86 90/100/86 91/102/86
f 79/79/87 112/144/87 109/138/87
f 59/59/88 92/104/88 89/98/88
f 65/65/89 66/66/89 97/114/89
f 80/80/90 111/142/90 112/144/90
f 60/60/91 91/102/91 92/104/91
f 36/36/92 113/145/92 114/146/92
f 38/38/93 115/147/93 113/145/93
f 38/38/94 40/40/94 116/148/94
f 42/42/95 117/149/95 116/148/95
f 42/42/96 44/44/96 118/150/96
f 44/44/126 46/46/126 119/151/126
f 48/48/98 120/152/98 119/151/98
f 48/48/99 34/34/99 114/146/99
f 123/155/9 121/153/9 122/154/9
f 122/154/9 128/160/9 127/159/9
f 127/159/9 126/158/9 125/157/9
f 125/157/9 124/156/9 123/155/9
f 123/155/9 122/154/9 127/159/9
f 38/38/100 123/155/100 124/156/100
f 36/36/101 34/34/101 122/154/101
f 48/48/102 128/160/102 122/154/102
f 44/44/127 126/158/127 127/159/127
f 40/40/104 124/156/104 125/157/104
f 36/36/105 121/153/105 123/155/105
f 46/46/128 127/159/128 128/160/128
