# Blender 3.5.1
# www.blender.org
mtllib sudut ijo.mtl
o Plane.014
o Plane.001
v -21.673622 5.299291 -13.738480
v -21.389919 5.299291 -15.291912
v -20.947498 5.299291 -16.787928
v -20.223175 5.299291 -18.169651
v -19.244499 5.299290 -19.384556
v -18.048668 5.299290 -20.386452
v -16.681152 5.299290 -21.137253
v -15.168056 5.299290 -21.608414
v -13.536011 5.299290 -21.798018
v 32.873352 5.296383 -21.613342
v 34.368664 5.296383 -21.158422
v 35.746166 5.296383 -20.419910
v 36.952682 5.296384 -19.426317
v 37.941639 5.296384 -18.215996
v 38.674858 5.296384 -16.835670
v 39.271835 5.296390 19.034536
v 39.124039 5.296384 -15.338625
v 39.271835 5.299291 -13.784851
v 39.114750 5.296391 20.566389
v 38.665874 5.296391 22.039400
v 37.941982 5.296391 23.398527
v 36.970116 5.296391 24.592985
v 35.786602 5.296391 25.578138
v 34.435654 5.296391 26.317183
v 32.967758 5.296391 26.782499
v 31.452757 5.296391 27.024778
v -21.379486 5.299297 20.560484
v -20.923100 5.299297 22.058805
v -20.182148 5.299297 23.438749
v -19.185322 5.299297 24.646894
v -17.971214 5.299298 25.636446
v -16.586838 5.299298 26.369093
v -15.085800 5.299298 26.816465
v -13.622856 5.299298 27.029333
v -21.673622 5.299297 27.024782
v 39.295502 5.299297 27.059053
v -21.673618 5.299289 -21.814011
v 39.266129 5.299289 -21.754318
v -21.673622 5.299296 19.003336
v 31.434711 5.299289 -21.754318
vn -0.0000 1.0000 -0.0000
vn -0.0005 1.0000 -0.0007
vn -0.0007 1.0000 0.0006
vn -0.0034 1.0000 -0.0004
vn -0.0013 1.0000 -0.0004
vn -0.0004 1.0000 -0.0023
vn -0.0004 1.0000 -0.0013
vn -0.0009 1.0000 -0.0005
vn -0.0007 1.0000 -0.0005
vn -0.0005 1.0000 -0.0009
vn -0.0000 0.9998 0.0206
vn -0.0004 1.0000 0.0014
vn -0.0198 0.9998 -0.0000
vn -0.0014 1.0000 0.0004
vn -0.0005 1.0000 0.0009
vn -0.0006 1.0000 0.0007
vn -0.0009 1.0000 0.0005
vt 0.621094 0.982422
vt 0.621094 0.982422
vt 0.621094 0.982422
vt 0.621094 0.982422
vt 0.621094 0.982422
vt 0.621094 0.982422
vt 0.621094 0.982422
vt 0.621094 0.982422
vt 0.621094 0.982422
vt 0.630859 0.970703
vt 0.630859 0.970703
vt 0.630859 0.970703
vt 0.630859 0.970703
vt 0.630859 0.970703
vt 0.630859 0.970703
vt 0.630859 0.970703
vt 0.630859 0.970703
vt 0.630859 0.970703
vt 0.630859 0.970703
vt 0.630859 0.970703
vt 0.630859 0.970703
vt 0.630859 0.970703
vt 0.630859 0.970703
vt 0.630859 0.970703
vt 0.630859 0.970703
vt 0.630859 0.970703
vt 0.630859 0.970703
vt 0.630859 0.970703
vt 0.630859 0.970703
vt 0.630859 0.970703
vt 0.630859 0.970703
vt 0.630859 0.970703
vt 0.630859 0.970703
vt 0.630859 0.970703
vt 0.625000 0.968750
vt 0.630859 0.970703
vt 0.621094 0.982422
vt 0.630859 0.970703
vt 0.630859 0.970703
vt 0.630859 0.970703
s 0
usemtl texture_FINALE.002
f 35/35/1 30/30/1 29/29/1
f 35/35/1 34/34/1 33/33/1
f 22/22/2 23/23/2 36/36/2
f 13/13/3 14/14/3 38/38/3
f 35/35/1 33/33/1 32/32/1
f 5/5/1 6/6/1 37/37/1
f 27/27/1 39/39/1 35/35/1
f 28/28/1 27/27/1 35/35/1
f 35/35/1 32/32/1 31/31/1
f 35/35/1 31/31/1 30/30/1
f 29/29/1 28/28/1 35/35/1
f 36/36/4 16/16/4 19/19/4
f 36/36/5 19/19/5 20/20/5
f 25/25/6 26/26/6 36/36/6
f 24/24/7 25/25/7 36/36/7
f 36/36/8 20/20/8 21/21/8
f 36/36/9 21/21/9 22/22/9
f 23/23/10 24/24/10 36/36/10
f 37/37/1 1/1/1 2/2/1
f 37/37/1 2/2/1 3/3/1
f 8/8/1 9/9/1 37/37/1
f 7/7/1 8/8/1 37/37/1
f 37/37/1 3/3/1 4/4/1
f 37/37/1 4/4/1 5/5/1
f 6/6/1 7/7/1 37/37/1
f 38/38/11 40/40/11 10/10/11
f 38/38/12 10/10/12 11/11/12
f 17/17/13 18/18/13 38/38/13
f 15/15/14 17/17/14 38/38/14
f 38/38/15 11/11/15 12/12/15
f 38/38/16 12/12/16 13/13/16
f 14/14/17 15/15/17 38/38/17
