# Blender 3.5.1
# www.blender.org
mtllib streetlamp001.mtl
o a._Mball_01
v 16.031408 7.845896 -0.292640
v 16.031408 7.822812 -0.315725
v 16.054491 7.822812 -0.292640
v 16.031408 7.770308 -0.339996
v 16.078762 7.770308 -0.292640
v 16.083910 7.813647 -0.240137
v 16.078762 7.822812 -0.240137
v 16.083910 7.770308 -0.283476
v 16.083910 7.717805 -0.283476
v 16.078764 7.717805 -0.292640
v 16.083910 7.674466 -0.240137
v 16.054493 7.665302 -0.292640
v 16.078764 7.665302 -0.240137
v 16.031408 7.617946 -0.240137
v 16.031408 7.642217 -0.292640
v 16.031408 7.665302 -0.315726
v 15.978905 7.617945 -0.292640
v 15.978905 7.665302 -0.339997
v 15.978905 7.674464 -0.345144
v 16.031408 7.717805 -0.339996
v 16.022243 7.717805 -0.345144
v 16.022243 7.770308 -0.345144
v 15.978905 7.717805 -0.360252
v 15.978905 7.770308 -0.360252
v 15.978905 7.813648 -0.345144
v 15.926401 7.813649 -0.345144
v 15.926401 7.770308 -0.360253
v 15.978905 7.822812 -0.339996
v 15.926401 7.822812 -0.339997
v 15.873899 7.770308 -0.339997
v 15.883060 7.770308 -0.345144
v 15.873899 7.822812 -0.315726
v 15.873899 7.845897 -0.292640
v 15.926401 7.870167 -0.292640
v 15.873899 7.870168 -0.240137
v 15.926401 7.875315 -0.283477
v 15.883060 7.875315 -0.240137
v 15.926401 7.890423 -0.240137
v 15.926401 7.890423 -0.187634
v 15.883060 7.875315 -0.187634
v 15.926401 7.875315 -0.144294
v 15.873899 7.845897 -0.135131
v 15.873899 7.870168 -0.187634
v 15.926401 7.870167 -0.135131
v 15.926401 7.822812 -0.087775
v 15.873899 7.822812 -0.112045
v 15.873899 7.770308 -0.087774
v 15.926401 7.813649 -0.082628
v 15.883060 7.770308 -0.082628
v 15.873899 7.717805 -0.087774
v 15.883060 7.717805 -0.082628
v 15.873899 7.665302 -0.112044
v 15.926401 7.674463 -0.082628
v 15.926401 7.665302 -0.087774
v 15.873899 7.642215 -0.135131
v 15.926401 7.617945 -0.135131
v 15.926401 7.612799 -0.144292
v 15.883059 7.612799 -0.187634
v 15.873899 7.617945 -0.187634
v 15.926401 7.597689 -0.187634
v 15.926401 7.597689 -0.240137
v 15.883059 7.612799 -0.240137
v 15.926401 7.612799 -0.283479
v 15.873899 7.617945 -0.240137
v 15.926401 7.617945 -0.292640
v 15.873899 7.642215 -0.292640
v 15.926401 7.665302 -0.339997
v 15.873899 7.665302 -0.315727
v 15.926401 7.674464 -0.345144
v 15.883060 7.717805 -0.345144
v 15.873899 7.717805 -0.339997
v 15.926401 7.717805 -0.360253
v 15.826541 7.717805 -0.292640
v 15.850811 7.665302 -0.292640
v 15.826541 7.770308 -0.292640
v 15.821395 7.674462 -0.240137
v 15.826541 7.665302 -0.240137
v 15.821395 7.717805 -0.283480
v 15.821395 7.674462 -0.187634
v 15.826541 7.665302 -0.187634
v 15.821395 7.717805 -0.144291
v 15.826541 7.717805 -0.135131
v 15.850811 7.665302 -0.135131
v 15.821395 7.770308 -0.144292
v 15.826541 7.770308 -0.135131
v 15.821395 7.813651 -0.187634
v 15.826541 7.822812 -0.187634
v 15.850812 7.822812 -0.135131
v 15.806285 7.770308 -0.187634
v 15.806285 7.770308 -0.240137
v 15.821395 7.813651 -0.240137
v 15.821395 7.770308 -0.283480
v 15.806285 7.717805 -0.240137
v 15.806285 7.717805 -0.187634
v 15.978905 7.597690 -0.240137
v 15.978905 7.612799 -0.283479
v 16.022245 7.612799 -0.240137
v 15.978905 7.597690 -0.187634
v 16.022245 7.612799 -0.187634
v 15.978905 7.612799 -0.144293
v 15.978905 7.617945 -0.135131
v 16.031408 7.642217 -0.135131
v 16.031408 7.617946 -0.187634
v 16.054493 7.665302 -0.135131
v 16.078764 7.665302 -0.187634
v 16.083910 7.674466 -0.187634
v 16.078764 7.717805 -0.135131
v 16.083910 7.717805 -0.144295
v 16.078762 7.770308 -0.135131
v 16.083910 7.770308 -0.144295
v 16.083910 7.813647 -0.187634
v 16.054491 7.822812 -0.135131
v 16.078762 7.822812 -0.187634
v 16.031408 7.845896 -0.135131
v 16.031408 7.870167 -0.187634
v 16.031408 7.822812 -0.112046
v 15.978905 7.870167 -0.135131
v 15.978905 7.822812 -0.087775
v 15.978905 7.875315 -0.144295
v 16.022243 7.875315 -0.187634
v 15.978905 7.890423 -0.187634
v 15.978905 7.890423 -0.240137
v 16.022243 7.875315 -0.240137
v 15.978905 7.875315 -0.283477
v 15.978905 7.870167 -0.292640
v 16.031408 7.870167 -0.240137
v 16.031408 7.770308 -0.087775
v 16.099018 7.770308 -0.187634
v 16.099018 7.770308 -0.240137
v 16.031408 7.717805 -0.087775
v 16.099018 7.717805 -0.187634
v 16.031408 7.665302 -0.112046
v 15.978905 7.674464 -0.082628
v 16.022245 7.717805 -0.082628
v 15.978905 7.665302 -0.087775
v 15.978905 7.717805 -0.067519
v 15.978905 7.770308 -0.067519
v 16.022243 7.770308 -0.082628
v 15.978905 7.813648 -0.082628
v 15.926401 7.770308 -0.067519
v 15.926401 7.717805 -0.067519
v 16.099018 7.717805 -0.240137
v 15.826541 7.822812 -0.240137
v 15.850812 7.822812 -0.292640
vn 0.7106 0.4972 -0.4978
vn 0.4986 0.4986 -0.7091
vn 0.4972 0.7106 -0.4978
vn 0.7944 0.1867 -0.5781
vn 0.5867 0.1755 -0.7906
vn 0.8927 0.4106 -0.1857
vn 0.8847 0.2058 -0.4182
vn 0.8928 -0.1842 -0.4112
vn 0.7906 -0.1755 -0.5867
vn 0.7091 -0.4986 -0.4986
vn 0.8928 -0.4112 -0.1842
vn 0.7906 -0.5867 -0.1755
vn 0.4960 -0.7127 -0.4960
vn 0.5774 -0.7945 -0.1882
vn 0.4978 -0.4972 -0.7106
vn 0.1755 -0.5867 -0.7906
vn 0.1882 -0.7945 -0.5774
vn 0.1857 -0.4106 -0.8927
vn 0.5781 -0.1867 -0.7943
vn 0.4183 -0.2058 -0.8847
vn 0.4112 0.1842 -0.8927
vn 0.1621 -0.1621 -0.9734
vn 0.1621 0.1621 -0.9734
vn 0.1842 0.4112 -0.8927
vn -0.1621 0.1621 -0.9734
vn -0.2058 0.4183 -0.8847
vn 0.1755 0.5867 -0.7906
vn -0.1882 0.5774 -0.7945
vn -0.4182 0.2058 -0.8847
vn -0.5774 0.1882 -0.7945
vn -0.4960 0.4960 -0.7127
vn -0.1755 0.7906 -0.5867
vn -0.4978 0.7106 -0.4972
vn -0.1857 0.8927 -0.4106
vn -0.5781 0.7944 -0.1867
vn -0.4182 0.8847 -0.2058
vn -0.1621 0.9734 -0.1621
vn -0.1621 0.9734 0.1621
vn -0.4112 0.8928 0.1842
vn -0.1842 0.8928 0.4112
vn -0.4986 0.7091 0.4986
vn -0.1755 0.7906 0.5867
vn -0.4978 0.4972 0.7106
vn -0.1857 0.4106 0.8927
vn -0.5781 0.1867 0.7944
vn -0.4182 0.2058 0.8847
vn -0.4112 -0.1842 0.8928
vn -0.5867 -0.1755 0.7906
vn -0.4986 -0.4986 0.7091
vn -0.1842 -0.4112 0.8928
vn -0.1755 -0.5867 0.7906
vn -0.4986 -0.7091 0.4986
vn -0.1755 -0.7906 0.5867
vn -0.1842 -0.8928 0.4112
vn -0.4112 -0.8928 0.1842
vn -0.5867 -0.7906 0.1755
vn -0.1621 -0.9734 0.1621
vn -0.4182 -0.8847 -0.2058
vn -0.2058 -0.8847 -0.4183
vn -0.1621 -0.9734 -0.1621
vn -0.1882 -0.7945 -0.5774
vn -0.5774 -0.7945 -0.1882
vn -0.4960 -0.7127 -0.4960
vn -0.1755 -0.5867 -0.7906
vn -0.4986 -0.4986 -0.7091
vn -0.1842 -0.4112 -0.8928
vn -0.4112 -0.1842 -0.8928
vn -0.5867 -0.1755 -0.7906
vn -0.1621 -0.1621 -0.9734
vn -0.7106 -0.4972 -0.4978
vn -0.7943 -0.1867 -0.5781
vn -0.8927 -0.4106 -0.1857
vn -0.8847 -0.2058 -0.4183
vn -0.7906 -0.5867 -0.1755
vn -0.8928 -0.4112 0.1842
vn -0.7091 -0.4986 0.4986
vn -0.8927 -0.1842 0.4112
vn -0.7906 -0.5867 0.1755
vn -0.7943 0.1867 0.5781
vn -0.7906 -0.1755 0.5867
vn -0.7106 0.4972 0.4978
vn -0.8927 0.4106 0.1857
vn -0.8847 0.2058 0.4183
vn -0.9734 0.1621 0.1621
vn -0.8927 0.4112 -0.1842
vn -0.8927 0.1842 -0.4112
vn -0.9734 0.1621 -0.1621
vn -0.9734 -0.1621 -0.1621
vn -0.9734 -0.1621 0.1621
vn 0.2058 -0.8847 -0.4182
vn 0.4183 -0.8847 -0.2058
vn 0.1621 -0.9734 -0.1621
vn 0.1621 -0.9734 0.1621
vn 0.4106 -0.8927 0.1857
vn 0.2058 -0.8847 0.4182
vn 0.4972 -0.7106 0.4978
vn 0.1867 -0.7943 0.5781
vn 0.7906 -0.5867 0.1755
vn 0.5867 -0.7906 0.1755
vn 0.7106 -0.4972 0.4978
vn 0.8927 -0.4106 0.1857
vn 0.7944 -0.1867 0.5781
vn 0.8847 -0.2058 0.4182
vn 0.7906 0.1755 0.5867
vn 0.8928 0.1842 0.4112
vn 0.7091 0.4986 0.4986
vn 0.8928 0.4112 0.1842
vn 0.7906 0.5867 0.1755
vn 0.4960 0.7127 0.4960
vn 0.4978 0.4972 0.7106
vn 0.1882 0.7945 0.5774
vn 0.1755 0.5867 0.7906
vn 0.5774 0.7945 0.1882
vn 0.2058 0.8847 0.4182
vn 0.4182 0.8847 0.2058
vn 0.1621 0.9734 0.1621
vn 0.4106 0.8927 -0.1857
vn 0.2058 0.8847 -0.4182
vn 0.1621 0.9734 -0.1621
vn 0.1867 0.7943 -0.5781
vn 0.5867 0.7906 -0.1755
vn 0.5781 0.1867 0.7943
vn 0.9734 0.1621 0.1621
vn 0.5867 -0.1755 0.7906
vn 0.9734 -0.1621 0.1621
vn 0.4986 -0.4986 0.7091
vn 0.4112 -0.1842 0.8927
vn 0.1842 -0.4112 0.8928
vn 0.1755 -0.5867 0.7906
vn 0.1621 -0.1621 0.9734
vn 0.4183 0.2058 0.8847
vn 0.1621 0.1621 0.9734
vn 0.1857 0.4106 0.8927
vn -0.1621 0.1621 0.9734
vn -0.1621 -0.1621 0.9734
vn -0.1755 0.5867 0.7906
vn -0.5867 0.7906 0.1755
vn -0.7906 0.5867 -0.1755
vn -0.7091 0.4986 -0.4986
vn -0.7906 0.1755 -0.5867
vn 0.9734 -0.1621 -0.1621
vn 0.7906 0.5867 -0.1755
vn 0.9734 0.1621 -0.1621
vn -0.7906 0.5867 0.1755
s 1
f 3//1 2//2 1//3
f 2//2 5//4 4//5
f 3//1 6//6 5//4
f 8//7 5//4 6//6
f 5//4 9//8 10//9
f 12//10 9//8 11//11
f 13//12 12//10 11//11
f 15//13 13//12 14//14
f 16//15 12//10 15//13
f 18//16 15//13 17//17
f 16//15 19//18 20//19
f 21//20 20//19 19//18
f 21//20 4//5 20//19
f 22//21 23//22 24//23
f 22//21 24//23 25//24
f 25//24 27//25 26//26
f 28//27 26//26 29//28
f 29//28 31//29 30//30
f 32//31 29//28 30//30
f 34//32 32//31 33//33
f 36//34 33//33 35//35
f 37//36 36//34 35//35
f 36//34 37//36 38//37
f 37//36 39//38 38//37
f 40//39 41//40 39//38
f 40//39 42//41 41//40
f 44//42 41//40 42//41
f 46//43 44//42 42//41
f 48//44 46//43 47//45
f 49//46 48//44 47//45
f 51//47 47//45 50//48
f 51//47 52//49 53//50
f 54//51 53//50 52//49
f 54//51 55//52 56//53
f 57//54 55//52 58//55
f 59//56 58//55 55//52
f 57//54 58//55 60//57
f 62//58 60//57 58//55
f 62//58 63//59 61//60
f 65//61 62//58 64//62
f 66//63 65//61 64//62
f 67//64 66//63 68//65
f 69//66 68//65 70//67
f 71//68 70//67 68//65
f 70//67 72//69 69//66
f 31//29 72//69 70//67
f 72//69 19//18 69//66
f 74//70 71//68 68//65
f 73//71 30//30 71//68
f 74//70 76//72 73//71
f 78//73 73//71 76//72
f 77//74 79//75 76//72
f 83//76 81//77 79//75
f 80//78 83//76 79//75
f 85//79 81//77 82//80
f 88//81 86//82 85//79
f 84//83 85//79 86//82
f 89//84 84//83 86//82
f 91//85 89//84 86//82
f 92//86 90//87 91//85
f 93//88 92//86 78//73
f 84//83 94//89 81//77
f 81//77 94//89 79//75
f 93//88 79//75 94//89
f 93//88 78//73 76//72
f 74//70 68//65 66//63
f 96//90 61//60 63//59
f 96//90 97//91 95//92
f 97//91 98//93 95//92
f 99//94 100//95 98//93
f 99//94 102//96 101//97
f 100//95 99//94 101//97
f 105//98 102//96 103//99
f 104//100 106//101 107//102
f 108//103 107//102 106//101
f 109//104 108//103 110//105
f 112//106 110//105 111//107
f 113//108 112//106 111//107
f 113//108 114//109 112//106
f 116//110 112//106 114//109
f 116//110 117//111 118//112
f 115//113 119//114 117//111
f 114//109 115//113 117//111
f 119//114 120//115 121//116
f 123//117 121//116 120//115
f 123//117 124//118 122//119
f 123//117 1//3 125//120
f 124//118 123//117 125//120
f 123//117 115//113 126//121
f 109//104 116//110 127//122
f 110//105 128//123 111//107
f 128//123 6//6 111//107
f 109//104 130//124 107//102
f 131//125 110//105 108//103
f 107//102 132//126 104//100
f 132//126 134//127 133//128
f 135//129 132//126 133//128
f 134//127 136//130 133//128
f 138//131 136//130 134//127
f 137//132 138//131 139//133
f 140//134 139//133 48//44
f 133//128 141//135 53//50
f 131//125 108//103 106//101
f 11//11 131//125 106//101
f 104//100 132//126 102//96
f 100//95 60//57 98//93
f 62//58 59//56 64//62
f 57//54 101//97 56//53
f 83//76 59//56 55//52
f 141//135 51//47 53//50
f 135//129 53//50 54//51
f 50//48 83//76 52//49
f 49//46 141//135 140//134
f 49//46 140//134 48//44
f 118//112 44//42 45//136
f 88//81 46//43 42//41
f 117//111 41//40 44//42
f 43//137 88//81 42//41
f 143//138 43//137 35//35
f 119//114 39//38 41//40
f 124//118 38//37 122//119
f 40//39 35//35 43//137
f 36//34 125//120 34//32
f 144//139 35//35 33//33
f 32//31 144//139 33//33
f 30//30 70//67 71//68
f 144//139 30//30 75//140
f 27//25 31//29 26//26
f 23//22 21//20 19//18
f 18//16 69//66 19//18
f 18//16 65//61 67//64
f 13//12 103//99 14//14
f 10//9 16//15 20//19
f 13//12 106//101 105//98
f 9//8 142//141 11//11
f 8//7 142//141 9//8
f 7//142 111//107 6//6
f 129//143 8//7 6//6
f 2//2 22//21 25//24
f 28//27 2//2 25//24
f 7//142 1//3 126//121
f 2//2 125//120 1//3
f 5//4 20//19 4//5
f 14//14 96//90 17//17
f 15//13 14//14 17//17
f 7//142 115//113 113//108
f 129//143 131//125 142//141
f 97//91 103//99 99//94
f 116//110 139//133 127//122
f 138//131 127//122 139//133
f 127//122 134//127 130//124
f 102//96 135//129 101//97
f 28//27 34//32 125//120
f 24//23 72//69 27//25
f 17//17 63//59 65//61
f 122//119 39//38 121//116
f 95//92 60//57 61//60
f 118//112 48//44 139//133
f 137//132 141//135 136//130
f 135//129 56//53 101//97
f 144//139 92//86 91//85
f 143//138 144//139 91//85
f 75//140 78//73 92//86
f 74//70 64//62 77//74
f 143//138 86//82 87//144
f 90//87 94//89 89//84
f 77//74 59//56 80//78
f 88//81 47//45 46//43
f 85//79 50//48 47//45
f 52//49 83//76 55//52
f 2//2 3//1 5//4
f 3//1 7//142 6//6
f 5//4 8//7 9//8
f 12//10 10//9 9//8
f 15//13 12//10 13//12
f 18//16 16//15 15//13
f 16//15 18//16 19//18
f 21//20 22//21 4//5
f 22//21 21//20 23//22
f 25//24 24//23 27//25
f 28//27 25//24 26//26
f 29//28 26//26 31//29
f 34//32 29//28 32//31
f 36//34 34//32 33//33
f 37//36 40//39 39//38
f 40//39 43//137 42//41
f 46//43 45//136 44//42
f 48//44 45//136 46//43
f 51//47 49//46 47//45
f 51//47 50//48 52//49
f 54//51 52//49 55//52
f 57//54 56//53 55//52
f 62//58 61//60 60//57
f 65//61 63//59 62//58
f 67//64 65//61 66//63
f 69//66 67//64 68//65
f 31//29 27//25 72//69
f 72//69 23//22 19//18
f 74//70 73//71 71//68
f 73//71 75//140 30//30
f 74//70 77//74 76//72
f 77//74 80//78 79//75
f 83//76 82//80 81//77
f 85//79 84//83 81//77
f 88//81 87//144 86//82
f 91//85 90//87 89//84
f 93//88 90//87 92//86
f 84//83 89//84 94//89
f 93//88 76//72 79//75
f 96//90 95//92 61//60
f 97//91 99//94 98//93
f 99//94 103//99 102//96
f 105//98 104//100 102//96
f 104//100 105//98 106//101
f 109//104 107//102 108//103
f 112//106 109//104 110//105
f 113//108 115//113 114//109
f 116//110 114//109 117//111
f 115//113 120//115 119//114
f 123//117 122//119 121//116
f 123//117 126//121 1//3
f 123//117 120//115 115//113
f 109//104 112//106 116//110
f 128//123 129//143 6//6
f 109//104 127//122 130//124
f 131//125 128//123 110//105
f 107//102 130//124 132//126
f 132//126 130//124 134//127
f 138//131 137//132 136//130
f 140//134 137//132 139//133
f 133//128 136//130 141//135
f 11//11 142//141 131//125
f 100//95 57//54 60//57
f 62//58 58//55 59//56
f 57//54 100//95 101//97
f 83//76 80//78 59//56
f 135//129 133//128 53//50
f 50//48 82//80 83//76
f 49//46 51//47 141//135
f 118//112 117//111 44//42
f 117//111 119//114 41//40
f 43//137 87//144 88//81
f 143//138 87//144 43//137
f 119//114 121//116 39//38
f 124//118 36//34 38//37
f 40//39 37//36 35//35
f 36//34 124//118 125//120
f 144//139 143//138 35//35
f 30//30 31//29 70//67
f 144//139 32//31 30//30
f 18//16 67//64 69//66
f 18//16 17//17 65//61
f 13//12 105//98 103//99
f 10//9 12//10 16//15
f 13//12 11//11 106//101
f 8//7 129//143 142//141
f 7//142 113//108 111//107
f 2//2 4//5 22//21
f 7//142 3//1 1//3
f 2//2 28//27 125//120
f 5//4 10//9 20//19
f 14//14 97//91 96//90
f 7//142 126//121 115//113
f 129//143 128//123 131//125
f 97//91 14//14 103//99
f 116//110 118//112 139//133
f 127//122 138//131 134//127
f 102//96 132//126 135//129
f 28//27 29//28 34//32
f 24//23 23//22 72//69
f 17//17 96//90 63//59
f 122//119 38//37 39//38
f 95//92 98//93 60//57
f 118//112 45//136 48//44
f 137//132 140//134 141//135
f 135//129 54//51 56//53
f 144//139 75//140 92//86
f 75//140 73//71 78//73
f 74//70 66//63 64//62
f 143//138 91//85 86//82
f 90//87 93//88 94//89
f 77//74 64//62 59//56
f 88//81 85//79 47//45
f 85//79 82//80 50//48
